<?xml version="1.0" encoding="UTF-8"?>
<!-- Generated by Pixelmator Pro 3.6.14 -->
<svg width="1356" height="220" viewBox="0 0 1356 220" xmlns="http://www.w3.org/2000/svg">
    <path id="Resumx" fill="#ffffff" fill-rule="evenodd" stroke="none" d="M 1205.98999 209 L 1249.72998 209 L 1281.859985 159.860001 L 1313.719971 209 L 1356.650024 209 L 1305.349976 135.830002 L 1355.300049 64.279999 L 1311.290039 64.279999 L 1281.320068 110.720001 L 1250.27002 64.279999 L 1207.340088 64.279999 L 1257.560059 135.559998 Z M 981.890015 209 L 1022.390015 209 L 1022.390015 127.729996 C 1022.390015 105.860001 1030.76001 93.169998 1045.609985 93.169998 C 1061.27002 93.169998 1067.209961 105.320007 1067.209961 127.729996 L 1067.209961 209 L 1103.659912 209 L 1103.659912 127.729996 C 1103.659912 105.860001 1112.030029 93.169998 1126.880005 93.169998 C 1142 93.169998 1148.75 104.509995 1148.75 127.190002 L 1148.75 209 L 1189.25 209 L 1189.25 115.850006 C 1189.25 80.210007 1170.349976 61.039993 1140.650024 61.039993 C 1121.47998 61.039993 1106.630005 71.300003 1099.880005 90.470001 C 1093.669922 72.380005 1079.359985 61.039993 1058.570068 61.039993 C 1041.02002 61.039993 1026.439941 70.759995 1019.150024 87.770004 L 1018.340027 64.279999 L 981.890015 64.279999 Z M 865.52002 212.23999 C 886.849976 212.23999 901.700012 203.330002 908.98999 185.51001 L 909.530029 209 L 946.52002 209 L 946.52002 64.279999 L 906.02002 64.279999 L 906.02002 146.089996 C 906.02002 169.040009 896.299988 180.110001 879.830017 180.110001 C 865.25 180.110001 858.5 170.389999 858.5 147.979996 L 858.5 64.279999 L 818 64.279999 L 818 157.429993 C 818 192.26001 835.549988 212.23999 865.52002 212.23999 Z M 728.630005 212.23999 C 768.049988 212.23999 792.619995 196.580002 792.619995 168.5 C 792.619995 143.389999 776.690002 130.429993 731.059998 123.679993 C 711.079956 120.710007 705.140015 116.389999 705.140015 105.860001 C 705.140015 96.139999 712.969971 89.660004 727.280029 89.660004 C 744.02002 89.660004 751.849976 98.839996 752.390015 112.339996 L 792.890015 110.720001 C 790.72998 82.369995 771.290039 61.039993 727.820007 61.039993 C 684.890015 61.039993 663.290039 79.669998 663.290039 107.479996 C 663.290039 132.589996 676.790039 144.199997 722.150024 152.029999 C 746.179993 156.080002 751.040039 160.130005 751.040039 169.040009 C 751.040039 178.76001 743.209961 183.619995 728.630005 183.619995 C 710.27002 183.619995 702.440002 175.790009 700.01001 162.019989 L 658.969971 163.369995 C 661.130005 191.720001 681.920044 212.23999 728.630005 212.23999 Z M 571.219971 212.23999 C 606.049988 212.23999 631.969971 195.230011 639.799988 166.339996 L 599.030029 163.910004 C 595.25 175.790009 585.530029 181.459991 572.030029 181.459991 C 553.400024 181.459991 541.25 170.389999 540.169983 147.440002 L 641.959961 147.440002 L 641.959961 139.339996 C 641.959961 90.740005 613.880005 61.039993 570.950012 61.039993 C 526.940002 61.039993 498.320007 91.009995 498.320007 136.639999 C 498.320007 182.269989 526.940002 212.23999 571.219971 212.23999 Z M 540.169983 122.600006 C 542.330017 102.619995 553.940002 91.009995 570.950012 91.009995 C 587.690002 91.009995 599.299988 101.539993 600.380005 122.600006 Z M 324.980011 209 L 366.019989 209 L 366.019989 138.800003 L 406.790009 138.800003 C 426.230011 138.800003 433.25 145.820007 434.330017 160.399994 L 437.839996 209 L 479.690002 209 L 474.830017 153.919998 C 473.210022 134.479996 463.220001 123.679993 444.049988 120.979996 C 464.029999 114.770004 477.799988 97.759995 477.799988 74.539993 C 477.799988 39.710007 451.070007 17.299988 408.950012 17.299988 L 324.980011 17.299988 Z M 366.019989 104.509995 L 366.019989 51.860001 L 403.01001 51.860001 C 424.339996 51.860001 435.679993 61.039993 435.679993 78.050003 C 435.679993 94.789993 424.070007 104.509995 404.359985 104.509995 Z"/>
    <path id="resumx-logo-square-light" fill="#ffffff" stroke="none" d="M 3.322159 -0.120255 C 4.352159 -0.120255 5.382159 -0.120255 6.442159 -0.11026 C 7.022159 -0.11026 7.022159 -0.11026 9.952159 -0.11026 C 10.592159 -0.11026 10.592159 -0.11026 13.782159 -0.10025 C 14.432158 -0.10025 14.432158 -0.10025 17.682159 -0.090256 C 21.10216 -0.090256 24.532158 -0.080261 27.952158 -0.070251 C 31.452158 -0.060257 34.942162 -0.050247 38.432159 -0.050247 C 45.29216 -0.040253 52.142159 -0.020248 59.002159 -0.000259 C 61.582157 5.019745 64.162155 10.039749 66.752159 15.059753 C 66.952164 15.449738 66.952164 15.449738 67.962158 17.409744 C 72.692162 26.619751 77.432159 35.839752 82.152161 45.059753 C 82.582161 45.879745 83.002159 46.709747 83.432159 47.559753 C 84.282158 49.209747 85.132156 50.869751 85.982162 52.529755 C 93.882156 67.939743 101.812157 83.329742 109.802162 98.689743 C 110.892159 100.779747 111.942162 102.889748 113.002159 104.999748 C 113.012161 104.289749 113.022156 103.579742 113.032158 102.849747 C 113.162155 93.749748 113.302162 84.659744 113.442162 75.559753 C 113.452156 74.839752 113.462158 74.109741 113.47216 73.369751 C 113.842155 48.909744 114.322159 24.449738 115.002159 -0.000259 C 119.572159 -0.080261 124.132156 -0.130249 128.702148 -0.160248 C 130.252167 -0.180252 131.79216 -0.200256 133.342163 -0.230255 C 154.442154 -0.580261 172.172165 3.469742 189.002151 16.999741 C 189.662155 17.50975 190.332153 18.019745 191.012161 18.549744 C 192.392166 19.63974 193.702164 20.809753 195.002151 21.999741 C 195.002151 22.659744 195.002151 23.319748 195.002151 23.999741 C 195.992157 24.329742 196.982162 24.659744 198.002151 24.999741 C 199.572159 27.119751 200.992157 29.199738 202.372162 31.439743 C 202.772156 32.079742 203.172165 32.719742 203.582153 33.379745 C 204.732162 35.239746 205.872162 37.119751 207.002151 38.999741 C 207.262161 39.419739 207.262161 39.419739 208.562164 41.519745 C 217.252151 56.979736 218.082153 76.819748 213.972153 93.689743 C 210.232162 106.379745 204.302155 116.959747 195.242157 126.579742 C 192.722153 129.299744 190.362152 132.129745 188.002151 134.999741 C 201.382156 161.949753 201.382156 161.949753 206.752151 171.999741 C 211.422165 180.789749 215.942154 189.669739 220.422165 198.559738 C 221.262161 200.229752 222.112152 201.88974 222.952164 203.549744 C 224.152161 205.89975 225.332153 208.249741 226.512161 210.599747 C 226.882156 211.309738 227.242157 212.029739 227.622162 212.769745 C 228.482162 214.479752 229.252151 216.239746 230.002151 217.999741 C 229.672165 218.659744 229.342163 219.319748 229.002151 219.999741 C 209.862152 219.999741 190.722153 219.999741 171.002151 219.999741 C 159.212158 197.599747 159.212158 197.599747 154.622162 188.749741 C 154.052155 187.64975 153.492157 186.559738 152.902161 185.429749 C 149.262161 178.39975 145.652161 171.369751 142.04216 164.339752 C 141.832153 163.919739 141.832153 163.919739 140.732162 161.789749 C 138.612152 157.63974 136.492157 153.489746 134.372162 149.339752 C 128.322159 137.519745 122.162155 125.769745 116.002159 113.999748 C 115.672157 148.979752 115.342155 183.959747 115.002159 219.999741 C 81.672157 219.999741 48.342159 219.999741 14.002159 219.999741 C 13.962159 206.369751 13.922159 192.729752 13.872159 178.689743 C 13.852159 174.39975 13.842159 170.119751 13.822159 165.699753 C 13.812159 160.419739 13.812159 160.419739 13.812159 157.939743 C 13.802158 156.219742 13.802158 154.50975 13.792159 152.799744 C 13.672159 131.749741 17.20216 115.189743 30.002159 97.999748 C 30.462158 97.369743 30.932159 96.749748 31.412159 96.099747 C 33.492157 93.459747 35.682159 91.469742 38.372158 89.499756 C 39.242157 88.679749 40.11216 87.849747 41.002159 86.999756 C 40.732159 82.699738 39.45216 79.469742 37.442158 75.699738 C 36.892159 74.679749 36.352158 73.64975 35.802158 72.599747 C 35.502159 72.049744 35.502159 72.049744 34.002159 69.249756 C 32.72216 66.829742 31.452158 64.419739 30.182159 61.999741 C 29.842159 61.359741 29.512159 60.719742 29.162159 60.069748 C 25.042158 52.209747 21.082159 44.25975 17.122158 36.309753 C 16.432159 34.919739 15.732159 33.519745 15.042159 32.129745 C 14.032159 30.099747 13.022159 28.079742 12.012158 26.059753 C 10.272159 22.539749 8.512159 19.029739 6.752159 15.529739 C 6.382159 14.799744 6.012159 14.069748 5.632159 13.319748 C 4.932159 11.919739 4.222159 10.519745 3.522159 9.119751 C 2.172159 6.439743 0.952159 3.859741 0.002159 0.999741 C 1.002159 -0.000259 1.002159 -0.000259 3.322159 -0.120255 Z"/>
</svg>
