<svg xmlns="http://www.w3.org/2000/svg" version="1.1" xmlns:xlink="http://www.w3.org/1999/xlink" width="1000" height="1000"><style>
    #light-icon {
      display: inline;
    }
    #dark-icon {
      display: none;
    }

    @media (prefers-color-scheme: dark) {
      #light-icon {
        display: none;
      }
      #dark-icon {
        display: inline;
      }
    }
  </style><g id="light-icon"><svg xmlns="http://www.w3.org/2000/svg" version="1.1" xmlns:xlink="http://www.w3.org/1999/xlink" width="1000" height="1000"><g><g transform="matrix(1.8416206261510129,0,0,1.8416206261510129,0,0)"><svg xmlns="http://www.w3.org/2000/svg" version="1.1" xmlns:xlink="http://www.w3.org/1999/xlink" width="543" height="543"><svg width="543" height="543" viewBox="0 0 543 543" xmlns="http://www.w3.org/2000/svg">
    <g id="Group">
        <path id="esumx" fill="#000000" fill-rule="evenodd" stroke="none" d="M 394.200012 435.836853 C 362.999847 435.836853 336.100098 429.036926 313.5 415.436829 C 290.899902 401.836792 273.400055 383.236938 261 359.636841 C 248.599945 336.036682 242.399994 309.436951 242.399994 279.836853 C 242.399994 248.236694 248.799942 220.836945 261.600006 197.636841 C 274.400055 174.436737 292.19989 156.336914 315 143.336853 C 337.80011 130.336761 364.199829 123.836853 394.200012 123.836853 C 423.80014 123.836853 449.69989 130.236786 471.899994 143.036835 C 494.100098 155.836914 511.499939 173.436737 524.099976 195.836853 C 536.700073 218.236938 543 244.036682 543 273.236847 C 543 278.436859 542.799988 283.536804 542.400024 288.536804 C 542 293.536865 541.400024 298.236816 540.599976 302.636841 L 319.799988 302.636841 C 321 316.636902 324.699951 328.936768 330.899994 339.536804 C 337.100037 350.136902 345.499939 358.336792 356.100006 364.136841 C 366.700073 369.93689 378.799927 372.836853 392.399994 372.836853 C 406.400085 372.836853 418.499939 369.836853 428.700012 363.836853 C 438.900055 357.836792 446.999969 348.636902 453 336.236816 L 535.200012 336.236816 C 529.599976 353.836914 520.600098 370.236755 508.200012 385.436829 C 495.799927 400.636902 480.100098 412.836792 461.100006 422.036835 C 442.099915 431.236877 419.80011 435.836853 394.200012 435.836853 Z M 320.399994 251.636841 L 463.799988 251.636841 C 463.399994 231.636749 456.100067 215.836914 441.899994 204.236847 C 427.699951 192.63678 411.000092 186.836853 391.799988 186.836853 C 375.399902 186.836853 360.200073 191.936798 346.200012 202.136841 C 332.199921 212.336884 323.600006 228.836731 320.399994 251.636841 Z"></path>
        <path id="Circle-copy-7" fill="#000000" fill-rule="evenodd" stroke="none" d="M 83.316101 103.294891 C 83.316101 80.287781 64.665154 61.636841 41.658051 61.636841 C 18.650944 61.636841 0 80.287781 0 103.294891 C 0 126.302002 18.650944 144.952942 41.658051 144.952942 C 64.665154 144.952942 83.316101 126.302002 83.316101 103.294891 Z"></path>
        <g id="Group-copy-8">
            <path id="Rounded-Corner" fill="#000000" fill-rule="evenodd" stroke="#000000" stroke-width="60" d="M 72 242.636841 C 72 192.931335 112.294495 152.636841 162 152.636841 L 162 170.078552 C 121.927368 170.078552 89.441711 202.564209 89.441711 242.636841 Z"></path>
            <path id="Rectangle" fill="#000000" fill-rule="evenodd" stroke="none" d="M 42 434.636841 L 119 434.636841 L 119 270.636841 L 42 270.636841 Z"></path>
            <path id="Rectangle-copy" fill="#000000" fill-rule="evenodd" stroke="none" d="M 191 122.636841 L 191 199.636841 L 230 199.636841 L 230 122.636841 Z"></path>
        </g>
    </g>
</svg></svg></g></g></svg></g><g id="dark-icon"><svg xmlns="http://www.w3.org/2000/svg" version="1.1" xmlns:xlink="http://www.w3.org/1999/xlink" width="1000" height="1000"><g><g transform="matrix(1.8416206261510129,0,0,1.8416206261510129,0,0)"><svg xmlns="http://www.w3.org/2000/svg" version="1.1" xmlns:xlink="http://www.w3.org/1999/xlink" width="543" height="543"><svg width="543" height="543" viewBox="0 0 543 543" xmlns="http://www.w3.org/2000/svg">
    <g id="Group">
        <path id="esumx" fill="#ffffff" fill-rule="evenodd" stroke="none" d="M 394.200012 435.836853 C 362.999847 435.836853 336.100098 429.036926 313.5 415.436829 C 290.899902 401.836792 273.400055 383.236938 261 359.636841 C 248.599945 336.036682 242.399994 309.436951 242.399994 279.836853 C 242.399994 248.236694 248.799942 220.836945 261.600006 197.636841 C 274.400055 174.436737 292.19989 156.336914 315 143.336853 C 337.80011 130.336761 364.199829 123.836853 394.200012 123.836853 C 423.80014 123.836853 449.69989 130.236786 471.899994 143.036835 C 494.100098 155.836914 511.499939 173.436737 524.099976 195.836853 C 536.700073 218.236938 543 244.036682 543 273.236847 C 543 278.436859 542.799988 283.536804 542.400024 288.536804 C 542 293.536865 541.400024 298.236816 540.599976 302.636841 L 319.799988 302.636841 C 321 316.636902 324.699951 328.936768 330.899994 339.536804 C 337.100037 350.136902 345.499939 358.336792 356.100006 364.136841 C 366.700073 369.93689 378.799927 372.836853 392.399994 372.836853 C 406.400085 372.836853 418.499939 369.836853 428.700012 363.836853 C 438.900055 357.836792 446.999969 348.636902 453 336.236816 L 535.200012 336.236816 C 529.599976 353.836914 520.600098 370.236755 508.200012 385.436829 C 495.799927 400.636902 480.100098 412.836792 461.100006 422.036835 C 442.099915 431.236877 419.80011 435.836853 394.200012 435.836853 Z M 320.399994 251.636841 L 463.799988 251.636841 C 463.399994 231.636749 456.100067 215.836914 441.899994 204.236847 C 427.699951 192.63678 411.000092 186.836853 391.799988 186.836853 C 375.399902 186.836853 360.200073 191.936798 346.200012 202.136841 C 332.199921 212.336884 323.600006 228.836731 320.399994 251.636841 Z"></path>
        <path id="Circle-copy-7" fill="#ffffff" fill-rule="evenodd" stroke="none" d="M 83.316101 103.294891 C 83.316101 80.287781 64.665154 61.636841 41.658051 61.636841 C 18.650944 61.636841 0 80.287781 0 103.294891 C 0 126.302002 18.650944 144.952942 41.658051 144.952942 C 64.665154 144.952942 83.316101 126.302002 83.316101 103.294891 Z"></path>
        <g id="Group-copy-8">
            <path id="Rounded-Corner" fill="#ffffff" fill-rule="evenodd" stroke="#ffffff" stroke-width="60" d="M 72 242.636841 C 72 192.931335 112.294495 152.636841 162 152.636841 L 162 170.078552 C 121.927368 170.078552 89.441711 202.564209 89.441711 242.636841 Z"></path>
            <path id="Rectangle" fill="#ffffff" fill-rule="evenodd" stroke="none" d="M 42 434.636841 L 119 434.636841 L 119 270.636841 L 42 270.636841 Z"></path>
            <path id="Rectangle-copy" fill="#ffffff" fill-rule="evenodd" stroke="none" d="M 191 122.636841 L 191 199.636841 L 230 199.636841 L 230 122.636841 Z"></path>
        </g>
    </g>
</svg></svg></g></g></svg></g></svg>