<?xml version="1.0" encoding="UTF-8"?>
<!-- Generated by Pixelmator Pro 3.6.14 -->
<svg width="108" height="108" viewBox="0 0 108 108" xmlns="http://www.w3.org/2000/svg">
    <path id="Path" fill="#009aa6" stroke="none" d="M 53.700001 0 L 0 54.200001 L 53.700001 108.199997 L 107.699997 54.200001 Z"/>
    <path id="path1" fill="#ffffff" stroke="none" d="M 25.4 69.5 C 25 52.099998 45.599998 54.400002 45.599998 45.599998 C 45.599998 42.699997 43.5 40.199997 38.5 40.199997 C 34.799999 40.199997 31.200001 42.099998 28.700001 44.400002 L 25 40.599998 C 28.1 37.5 33.299999 34.900002 38.799999 34.900002 C 47.299999 34.900002 51.700001 39.699997 51.700001 45.400002 C 51.700001 58.599998 31.700001 56.299999 31.700001 67.199997 L 51.5 67.199997 L 51.5 72.400002 L 25.5 72.400002 L 25.5 69.5 Z M 67.099998 68.199997 C 63.099998 68.199997 60.599998 65.699997 60.599998 60.700001 C 60.599998 54.400002 64.800003 48.799999 69.800003 48.799999 C 73.800003 48.799999 76.300003 51.299999 76.300003 56.299999 C 76.199997 62.599998 72.099998 68.199997 67.099998 68.199997 Z M 92.300003 43.900002 L 70.199997 43.900002 C 61.200001 43.900002 54.599998 51 54.599998 60.599998 C 54.599998 68.400002 59.400002 72.900002 66.5 72.900002 C 75.5 72.900002 82.300003 65.599998 82.300003 56.200001 C 82.300003 53.099998 81.5 50.299999 80 48.400002 L 87.699997 48.400002 L 92.300003 43.900002 Z"/>
</svg>
