<svg viewBox="0 0.333 800 373.333" xmlns="http://www.w3.org/2000/svg"><path id="Path" fill="#000000" stroke="none" d="M 0 0.333313 L 0 373.666687 L 53.333336 373.666687 L 53.333336 0.333313 Z M 106.666672 0.333313 L 106.666672 373.666687 L 160 373.666687 L 160 0.333313 Z M 213.333344 0.333313 L 213.333344 373.666687 L 266.666656 373.666687 L 266.666656 0.333313 Z M 320 0.333313 L 320 373.666687 L 373.333313 373.666687 L 373.333313 0.333313 Z M 426.666687 0.333313 L 426.666687 53.666687 L 800 53.666687 L 800 0.333313 Z M 426.666687 107 L 426.666687 160.333313 L 800 160.333313 L 800 107 Z M 426.666687 213.666687 L 426.666687 267 L 800 267 L 800 213.666687 Z M 426.666687 320.333344 L 426.666687 373.666687 L 800 373.666687 L 800 320.333344 Z"/></svg>