<svg viewBox="0 0 93 99" xmlns="http://www.w3.org/2000/svg"><path id="Path" fill="#ff5a5f" stroke="none" d="M 91.5 70.099998 C 91 68.900002 90.5 67.599998 90 66.5 C 89.199997 64.699997 88.400002 63 87.699997 61.399998 L 87.599998 61.299999 C 80.699997 46.299999 73.300003 31.099998 65.5 16.099998 L 65.199997 15.5 C 64.400002 14 63.599998 12.400002 62.799999 10.800003 C 61.799999 9 60.799999 7.099998 59.200001 5.300003 C 56 1.300003 51.400002 -0.900002 46.5 -0.900002 C 41.5 -0.900002 37 1.300003 33.700001 5.099998 C 32.200001 6.900002 31.1 8.800003 30.1 10.599998 C 29.299999 12.199997 28.5 13.800003 27.700001 15.300003 L 27.4 15.900002 C 19.700001 30.900002 12.2 46.099998 5.3 61.099998 L 5.2 61.299999 C 4.5 62.899998 3.7 64.599998 2.9 66.400002 C 2.4 67.5 1.9 68.699997 1.4 70 C 0.1 73.699997 -0.3 77.199997 0.2 80.799995 C 1.3 88.299995 6.3 94.599998 13.2 97.400002 C 15.8 98.5 18.5 99 21.299999 99 C 22.1 99 23.1 98.900002 23.9 98.799995 C 27.200001 98.400002 30.6 97.299995 33.900002 95.400002 C 38 93.099998 41.900002 89.799995 46.299999 85 C 50.700001 89.799995 54.700001 93.099998 58.700001 95.400002 C 62 97.299995 65.400002 98.400002 68.699997 98.799995 C 69.5 98.900002 70.5 99 71.300003 99 C 74.099998 99 76.900002 98.5 79.400002 97.400002 C 86.400002 94.599998 91.300003 88.199997 92.400002 80.799995 C 93.199997 77.299995 92.800003 73.799995 91.5 70.099998 Z M 46.400002 75.299995 C 41 68.5 37.5 62.099998 36.299999 56.699997 C 35.799999 54.399998 35.700001 52.399998 36 50.599998 C 36.200001 49 36.799999 47.599998 37.599998 46.399998 C 39.5 43.699997 42.700001 42 46.400002 42 C 50.099998 42 53.400002 43.599998 55.200001 46.399998 C 56 47.599998 56.599998 49 56.799999 50.599998 C 57.099998 52.399998 57 54.5 56.5 56.699997 C 55.299999 62 51.799999 68.400002 46.400002 75.299995 Z M 86.300003 80 C 85.599998 85.199997 82.099998 89.699997 77.199997 91.699997 C 74.800003 92.699997 72.199997 93 69.599998 92.699997 C 67.099998 92.400002 64.599998 91.599998 62 90.099998 C 58.400002 88.099998 54.799999 85 50.599998 80.400002 C 57.200001 72.299995 61.200001 64.900002 62.700001 58.299999 C 63.400002 55.199997 63.5 52.399998 63.200001 49.799999 C 62.799999 47.299999 61.900002 45 60.5 43 C 57.400002 38.5 52.200001 35.899998 46.400002 35.899998 C 40.599998 35.899998 35.400002 38.599998 32.299999 43 C 30.9 45 30 47.299999 29.6 49.799999 C 29.200001 52.399998 29.299999 55.299999 30.1 58.299999 C 31.6 64.900002 35.700001 72.400002 42.200001 80.5 C 38.099998 85.099998 34.400002 88.199997 30.799999 90.199997 C 28.200001 91.699997 25.700001 92.5 23.200001 92.799995 C 20.5 93.099998 17.9 92.699997 15.6 91.799995 C 10.7 89.799995 7.2 85.299995 6.5 80.099998 C 6.2 77.599998 6.4 75.099998 7.4 72.299995 C 7.7 71.299995 8.2 70.299995 8.7 69.099998 C 9.4 67.5 10.2 65.799995 11 64.099998 L 11.1 63.900002 C 18 49 25.4 33.800003 33.099998 19 L 33.400002 18.400002 C 34.200001 16.900002 35 15.300003 35.799999 13.800003 C 36.599998 12.199997 37.5 10.699997 38.599998 9.400002 C 40.700001 7 43.5 5.699997 46.599998 5.699997 C 49.700001 5.699997 52.5 7 54.599998 9.400002 C 55.700001 10.699997 56.599998 12.199997 57.400002 13.800003 C 58.200001 15.300003 59 16.900002 59.799999 18.400002 L 60.099998 19 C 67.699997 33.900002 75.099998 49.099998 82 64 L 82 64.099998 C 82.800003 65.699997 83.5 67.5 84.300003 69.099998 C 84.800003 70.299995 85.300003 71.299995 85.599998 72.299995 C 86.400002 74.900002 86.699997 77.400002 86.300003 80 Z"/></svg>