<svg version="1.1" xmlns="http://www.w3.org/2000/svg" viewBox="-0.25 -0.253 540.5 540.51"><path d="M0 0 C0.47 -0 0.47 -0 2.86 -0.02 C5.89 -0.04 8.93 -0.05 11.96 -0.05 C12.47 -0.05 12.47 -0.05 15.09 -0.05 C29.91 -0.03 44.19 0.38 58.77 3.2 C60.65 3.52 62.53 3.84 64.41 4.16 C88.06 8.42 111.27 16.5 132.77 27.2 C133.5 27.56 134.23 27.92 134.98 28.29 C150.58 36.04 165.06 45.48 178.77 56.2 C179.59 56.83 180.42 57.47 181.27 58.12 C196.91 70.3 211.61 84.56 223.77 100.2 C224.56 101.19 225.34 102.17 226.16 103.18 C260.25 146.05 282.7 202.37 282.97 257.43 C282.98 258.38 282.99 259.32 282.99 260.3 C283.01 263.33 283.02 266.36 283.02 269.39 C283.02 269.91 283.02 269.91 283.02 272.53 C283.01 287.34 282.59 301.62 279.77 316.2 C279.45 318.08 279.13 319.96 278.81 321.84 C274.55 345.5 266.47 368.7 255.77 390.2 C255.41 390.93 255.05 391.66 254.68 392.41 C246.93 408.01 237.49 422.49 226.77 436.2 C226.14 437.03 225.51 437.85 224.86 438.7 C212.67 454.34 198.41 469.04 182.77 481.2 C182.28 481.6 182.28 481.6 179.79 483.59 C136.93 517.68 80.61 540.13 25.54 540.41 C24.59 540.41 23.65 540.42 22.68 540.43 C19.64 540.44 16.61 540.45 13.58 540.45 C13.06 540.45 13.06 540.45 10.45 540.46 C-4.37 540.44 -18.65 540.02 -33.23 537.2 C-35.11 536.88 -36.99 536.56 -38.87 536.24 C-62.52 531.98 -85.73 523.91 -107.23 513.2 C-107.96 512.84 -108.69 512.48 -109.44 512.11 C-125.04 504.36 -139.52 494.93 -153.23 484.2 C-154.06 483.57 -154.88 482.94 -155.73 482.29 C-171.37 470.11 -186.07 455.85 -198.23 440.2 C-199.02 439.22 -199.81 438.24 -200.62 437.23 C-234.71 394.36 -257.16 338.04 -257.43 282.97 C-257.44 282.03 -257.45 281.08 -257.45 280.11 C-257.47 277.08 -257.48 274.05 -257.48 271.02 C-257.48 269.98 -257.48 268.95 -257.48 267.88 C-257.47 253.06 -257.05 238.79 -254.23 224.2 C-253.91 222.32 -253.59 220.45 -253.27 218.57 C-249.01 194.91 -240.93 171.7 -230.23 150.2 C-229.87 149.47 -229.51 148.74 -229.14 147.99 C-221.39 132.39 -211.95 117.92 -201.23 104.2 C-200.6 103.38 -199.97 102.55 -199.32 101.7 C-187.14 86.06 -172.88 71.36 -157.23 59.2 C-156.74 58.81 -156.74 58.81 -154.25 56.82 C-111.39 22.72 -55.07 0.27 0 0 Z " fill="#005AF0" transform="translate(257.23046875,-0.203125)"/><path d="M0 0 C4.23 0.23 8.24 0.81 12.33 1.91 C11.52 8.85 10.42 15.73 9.29 22.63 C9.09 23.86 8.89 25.1 8.68 26.37 C8.14 29.7 7.59 33.02 7.04 36.35 C6.71 38.41 6.37 40.48 6.03 42.54 C2.96 61.23 -0.17 79.91 -3.51 98.55 C-3.58 98.92 -3.58 98.92 -3.91 100.81 C-4.26 102.74 -4.61 104.68 -4.96 106.61 C-6.01 112.69 -6.82 118.8 -7.67 124.91 C-7.26 124.9 -7.26 124.9 -5.2 124.89 C2.5 124.83 10.19 124.78 17.89 124.75 C21.84 124.74 25.8 124.71 29.76 124.68 C33.57 124.65 37.39 124.63 41.21 124.62 C42.67 124.62 44.12 124.61 45.58 124.59 C47.62 124.57 49.66 124.57 51.7 124.57 C52.87 124.56 54.03 124.55 55.22 124.55 C59.53 125.05 62.12 126.69 65.14 129.72 C66.76 132.7 66.64 134.53 66.33 137.91 C65.23 140.27 64.14 142.32 62.77 144.51 C62.4 145.13 62.02 145.76 61.64 146.4 C60.4 148.45 59.15 150.49 57.89 152.53 C57.02 153.97 56.15 155.41 55.28 156.86 C53.06 160.52 50.83 164.18 48.6 167.84 C46.71 170.93 44.83 174.02 42.95 177.12 C40.89 180.52 38.82 183.92 36.75 187.32 C31.38 196.15 26.09 205.02 20.83 213.91 C14.11 225.26 7.32 236.56 0.46 247.82 C-4.73 256.35 -9.87 264.9 -15 273.46 C-18.31 278.99 -21.64 284.52 -25 290.02 C-25.36 290.62 -25.73 291.22 -26.1 291.84 C-27.93 294.85 -29.76 297.84 -31.62 300.83 C-34.87 306.07 -37.93 311.26 -40.45 316.9 C-45.17 327.16 -45.17 327.16 -48.67 329.91 C-55.54 332.04 -62.69 331.04 -69.67 329.91 C-69.01 319.31 -67.15 308.88 -65.43 298.41 C-65.11 296.41 -64.78 294.41 -64.45 292.41 C-63.77 288.23 -63.09 284.05 -62.4 279.87 C-61.54 274.57 -60.67 269.27 -59.81 263.97 C-59.14 259.84 -58.47 255.71 -57.79 251.58 C-57.47 249.63 -57.16 247.67 -56.84 245.72 C-54.73 232.72 -52.34 219.81 -49.67 206.91 C-50.5 206.92 -51.32 206.93 -52.17 206.94 C-59.97 207.04 -67.77 207.12 -75.57 207.17 C-79.57 207.19 -83.58 207.23 -87.59 207.28 C-91.46 207.34 -95.33 207.37 -99.2 207.38 C-100.68 207.39 -102.15 207.41 -103.63 207.44 C-116.63 207.67 -116.63 207.67 -120.56 204.5 C-123.63 200.72 -124.08 198.78 -123.67 193.91 C-122.62 191.54 -121.56 189.49 -120.23 187.28 C-120.04 186.94 -120.04 186.94 -119.04 185.24 C-117.6 182.78 -116.14 180.34 -114.67 177.91 C-114.08 176.93 -113.49 175.95 -112.88 174.94 C-110.13 170.39 -107.37 165.84 -104.59 161.3 C-99.05 152.21 -93.59 143.07 -88.17 133.91 C-81.89 123.3 -75.55 112.73 -69.13 102.2 C-63.4 92.81 -57.77 83.37 -52.17 73.91 C-47.57 66.14 -42.96 58.37 -38.29 50.64 C-38.11 50.35 -38.11 50.35 -37.22 48.87 C-35.47 45.99 -33.71 43.12 -31.93 40.27 C-28.61 34.91 -25.45 29.58 -22.59 23.96 C-10.71 0.57 -10.71 0.57 0 0 Z " fill="#FDFEFE" transform="translate(298.6689453125,104.0927734375)"/></svg>