<?xml version="1.0" encoding="UTF-8"?>
<!-- Generated by Pixelmator Pro 3.6.14 -->
<svg width="108" height="100" viewBox="0 0 108 100" xmlns="http://www.w3.org/2000/svg">
    <path id="Path" fill="#000000" stroke="none" d="M 106.676422 63.713181 C 105.281952 63.03997 103.935562 62.270611 102.589157 61.501244 C 98.122551 58.877232 93.961632 55.764603 90.183128 52.220753 C 88.884827 51.018631 87.586517 49.768402 86.384384 48.422012 C 75.500961 36.597008 69.030113 21.379486 68.063835 5.337479 L 67.919579 1.154053 L 67.919579 0.769363 C 67.932907 0.569878 67.862839 0.373817 67.726105 0.227966 C 67.589363 0.082115 67.398224 -0.000443 67.198296 0 L 39.501102 0 C 39.301178 -0.000443 39.110035 0.082115 38.973297 0.227966 C 38.836559 0.373817 38.766495 0.569878 38.779819 0.769363 L 38.779819 1.154053 L 38.635567 5.337479 C 37.670944 21.178307 31.345776 36.21965 20.699701 47.989243 C 19.497566 49.335632 18.199259 50.633942 16.900953 51.836071 C 13.127997 55.441998 8.967289 58.618973 4.494916 61.30891 C 3.15728 62.091125 1.794113 62.828842 0.407655 63.520844 C 0.049499 63.693779 -0.101079 64.124001 0.071057 64.482544 C 0.696168 65.92511 1.321278 67.2715 1.994474 68.521713 C 4.421409 73.212051 7.479194 77.547958 11.082618 81.408615 C 12.140498 82.562653 13.294548 83.668625 14.448599 84.774582 C 36.539425 105.019684 70.421974 105.082237 92.587402 84.918839 C 93.789536 83.812881 94.8955 82.706909 95.953377 81.600952 C 99.569214 77.757347 102.643044 73.437805 105.0896 68.762131 C 105.793175 67.429977 106.43499 66.066116 107.013023 64.674881 C 107.185158 64.316338 107.034576 63.88612 106.676422 63.713181 Z M 23.248228 82.514572 C 23.267561 82.79641 23.120575 83.063591 22.872171 83.198143 C 22.62377 83.332695 22.319683 83.309845 22.094179 83.139679 C 21.228642 82.498545 20.395161 81.825353 19.593737 81.120102 C 18.343515 80.062225 17.285637 79.004333 16.275843 77.994553 C 13.04539 74.64518 10.279762 70.876816 8.053236 66.790649 C 7.865486 66.457069 7.971022 66.03492 8.293663 65.828934 C 12.292997 63.390976 16.059534 60.590218 19.545652 57.46207 C 20.795874 56.356102 22.046093 55.153973 23.200144 53.951832 C 32.597355 44.342838 39.240292 32.385551 42.434311 19.330345 C 42.434311 18.931992 42.75724 18.609062 43.155594 18.609062 C 43.553947 18.609062 43.876873 18.931992 43.876873 19.330345 C 45.186123 26.105385 47.233967 32.716522 49.983723 39.045353 C 50.078709 39.242897 50.078709 39.472916 49.983723 39.670464 C 45.308666 49.481823 38.889103 58.361679 31.038067 65.877014 C 29.851858 66.932899 28.727974 68.056793 27.672089 69.243004 C 25.503441 71.778389 24.058277 74.85144 23.488655 78.138802 C 23.295908 79.201859 23.199345 80.280128 23.200144 81.360519 L 23.200144 82.514572 Z M 70.035339 68.569801 C 70.202232 68.7276 70.283989 68.955452 70.255501 69.183365 C 70.227013 69.41127 70.091682 69.611984 69.891083 69.723854 C 64.994499 72.614113 59.420216 74.156998 53.734386 74.195793 L 53.59013 74.195793 C 47.722012 74.192322 41.967308 72.57901 36.952576 69.531509 C 36.769238 69.417267 36.646763 69.22686 36.61882 69.01265 C 36.590881 68.798447 36.660419 68.582993 36.808319 68.425545 C 38.250881 66.982979 39.693443 65.444244 40.991749 63.905514 C 45.485729 58.777321 49.418999 53.183701 52.72459 47.219872 C 52.853313 46.996254 53.091682 46.858429 53.349701 46.858429 C 53.607723 46.858429 53.846088 46.996254 53.974812 47.219872 C 58.300915 55.068768 63.70715 62.271687 70.035339 68.617889 Z M 31.374664 74.051544 C 31.482079 73.890907 31.64946 73.78009 31.839287 73.743935 C 32.029118 73.707779 32.225513 73.749298 32.38446 73.8592 C 38.657921 78.061798 46.039097 80.304604 53.59013 80.302643 L 55.321205 80.254639 C 56.836361 80.187813 58.345928 80.027214 59.841232 79.773781 C 65.225082 78.879196 70.356171 76.846436 74.891968 73.81118 C 75.159004 73.632713 75.511879 73.652321 75.7575 73.859283 C 78.939995 76.576569 82.297142 79.082375 85.807358 81.360603 C 86.008812 81.49424 86.129929 81.719917 86.129929 81.96167 C 86.129929 82.203423 86.008812 82.4291 85.807358 82.562729 C 76.775452 89.740547 65.607147 93.700226 54.070984 93.814735 L 53.638214 93.814735 C 51.274078 93.808388 48.912872 93.647758 46.56966 93.333862 C 41.458775 92.644272 36.481682 91.185196 31.807432 89.00618 C 31.691719 88.952927 31.592175 88.869972 31.518921 88.765762 C 28.372166 84.376945 28.333632 78.481194 31.42275 74.05162 Z M 79.363907 69.243004 L 75.901756 66.117439 C 67.775543 58.389652 61.169949 49.20705 56.42717 39.045353 C 55.553009 37.185646 54.750988 35.292877 54.0229 33.371277 C 50.760174 24.902016 48.814182 15.982895 48.252647 6.924294 C 48.224747 6.716965 48.288235 6.507744 48.426643 6.350876 C 48.565048 6.194016 48.764744 6.104973 48.97393 6.106842 L 61.476139 6.106842 C 61.667534 6.093658 61.856297 6.157265 62.000679 6.2836 C 62.145061 6.409927 62.233166 6.588577 62.245502 6.780029 L 62.630188 10.867302 C 64.788017 27.286125 72.251259 42.550312 83.883942 54.336521 C 85.037987 55.538651 86.288208 56.692711 87.538429 57.798672 C 91.025681 60.897068 94.792435 63.665787 98.790421 66.069351 C 99.11306 66.275337 99.218597 66.697487 99.030846 67.031075 C 96.964073 70.757217 94.444519 74.213531 91.529518 77.321342 C 91.29995 77.584068 90.915245 77.644806 90.615898 77.465599 C 86.658272 75.019791 82.896324 72.270676 79.363907 69.243004 Z"/>
</svg>
