<svg version="1.2" xmlns="http://www.w3.org/2000/svg" viewBox="0 0 1547 1425"><title>ASAN_BIG</title><path id="asana-horizontal-logo__icon" d="m1211.3 754.2c-89 0-174.4 35.2-237.2 98-62.8 62.8-98 148.1-98 237.2 0 89 35.2 174.3 98 237.2 62.8 62.8 148.2 97.9 237.2 97.9 88.7 0 174-35.1 236.8-97.9 62.9-62.9 98-148.2 98-237.2 0-89.1-35.1-174.4-98-237.2-62.8-62.8-148.1-98-236.8-98zm-870.7 0c-90-1.4-176.3 33.8-240 96.6-63.8 62.8-99.9 149-99.9 238.6 0 89.5 36.1 175.8 99.9 238.6 63.7 63.2 150 97.9 240 96.5 88.2-1.4 172.1-37 234-99.8 61.9-62.8 96.6-147.2 96.6-235.3 0-88.1-34.7-172.5-96.6-235.3-61.9-62.8-145.8-98.5-234-99.9zm770.4-419c0 89-35.2 174.3-98 237.1-62.8 62.9-148.2 98-237.2 98-88.7 0-174-35.1-236.8-98-62.9-62.8-98.5-148.1-98.5-237.1 0-89.1 35.6-173.9 98.5-237.2 62.8-62.8 148.1-98 236.8-98 89 0 174.4 35.2 237.2 98 62.8 63.2 98 148.1 98 237.2z" fill="#ff584a"/></svg>