<svg version="1.2" xmlns="http://www.w3.org/2000/svg" viewBox="0 0 1568 324"><title>logo-001-svg</title><path id="Layer" d="m765.2 0h-276.4c-64.1 0-92.6 40.2-99.1 78.4v-78.4h-153.4c-21.4 0-31.7 6.5-42.1 21.4l-42.1 61.6h613.1c0 0 0-83 0-83zm-765.2 324h110.1l137.8-222.9-98.4-9.8zm872.1-324h-90.6v83h90.6zm575.3 129.6l-283.6-16.8c0 43.4 28.5 72.6 77 76.4l202 15.5c15.5 1.4 25.2 5.2 25.2 18.2 0 12.4-11 16.9-33.7 16.9h-275.1v84.2h281c88.7 0 127.5-31.1 127.5-101.8 0-63.4-34.9-87.4-120.3-92.6z" fill="#2d2926"/><path id="Layer" d="m1160.1 112.8l-89.3-5.2v95.2c0 29.9-14.9 38.9-66.7 38.9h-71.2c-42.7 0-60.8-12.3-60.8-38.8v-104.3l-90.7-6.5v118.5h-1.9c-5.2-34.3-18.1-74.5-104.3-80.4l-283.5-18.8c0 43.5 31.1 69.4 79.6 74.5l197.4 20.1c15.6 1.3 27.2 5.8 27.2 18.8 0 14.3-11.6 15.5-29.7 15.5h-277.8v-129.5l-90.6-5.8v219h368.9c82.2 0 108.8-42.7 112.7-78.4h2c10.3 56.4 59.5 78.4 143 78.4h91.9c97.7 0 143.7-29.8 143.7-99.8v-111.4c0 0 0.1 0 0.1 0zm401.3-29.8v-83h-304.2c-63.4 0-91.9 39.3-96.9 77.2q-0.1 0.1-0.1 0.3 0 0.1 0 0.3-0.1 0.2-0.1 0.4 0 0.1 0 0.3v-78.5h-89.3v83z" fill="#2d2926"/></svg>