<svg version="1.2" xmlns="http://www.w3.org/2000/svg" viewBox="0 0 1658 1658"><path d="m321.6 1483.3c140.4 108.7 316.7 174.1 507.9 174.1 209.3 0 400.1-77.8 545.7-205.4 1.8-1.5 0.9-2.6-0.9-1.5-65.3 43.6-251.5 138.9-544.8 138.9-254.8 0-415.9-56.9-506.9-107.6-1.7-0.9-2.3 0.4-1 1.5zm564.1 42.3c203.9 0 427.9-55.6 561.8-165.6 36.7-30 71.6-69.9 102.9-123.5 18-30.9 35.6-67.5 49.9-103.6 0.7-1.7-0.4-2.6-1.7-0.6-124.6 183.4-485.4 297.8-857.9 297.8-263.3 0-546.6-84.2-657.5-245.1-1.1-1.5-2.2-0.8-1.5 0.9 103.3 219.7 416.8 339.7 804 339.7zm-222.7-364.5c-423.9 0-623.8-197.5-660.1-332.3-0.4-2-1.7-1.5-1.7 0.2 0 45.4 4.5 104 12.3 142.8 3.8 19 19.1 48.7 41.7 72.3 102.7 107.1 358.6 257.1 801.9 257.1 603.9 0 741.9-201.3 770.1-267.5 20.2-47.3 30.6-132.8 30.6-204.7 0-17.4-0.4-31.3-1.1-44.9 0-2.2-1.2-2.4-1.7-0.2-30.2 161.9-546.1 377.2-992 377.2zm-582-687.5c-24.3 48.3-51.2 129.6-59.2 171.8-3.5 18-2 26.7 4.3 40.1 50.8 107.9 307.9 280.5 907.4 280.5 365.7 0 649.9-89.9 695.9-254 8.5-30.2 8.9-62.1-2-105-12.1-48-34.9-104-54.2-143.3-0.6-1.3-1.8-1.1-1.5 0.4 7.1 215.2-592.6 353.8-895.2 353.8-327.8 0-601.3-130.6-601.3-295.6 0-15.9 3.3-31.7 7.4-48.2 0.4-1.5-0.9-1.8-1.6-0.5zm1295.5-264.1c3.5 5.4 5.2 11.2 5.2 19.1 0 92-281.5 254.8-729.7 254.8-329.4 0-391-122.2-391-199.9 0-27.8 10.6-56.2 34.1-85.1 1.3-1.7 0.2-2.4-1.3-1.1-42.8 36.3-82.1 77.1-116.6 121.1-16.4 20.9-26.7 39.3-26.7 50.4 0 161.1 403.8 277.9 781.3 277.9 402.2 0 581.7-131.4 581.7-246.8 0-41.3-16-65.4-57.1-112.1-26.7-30.4-51.9-55.1-78.6-79.4-1.3-1.1-2.2-0.2-1.3 1.1zm-123.3-92.1c-124.1-74.4-268.3-116.7-423.7-116.7-156.5 0-305 43.8-429.6 120.2-37.3 23-58.4 41.4-58.4 65.2 0 69.8 163.3 144.9 452.8 144.9 286.6 0 508.9-82.2 508.9-161.4 0-19-16.6-32.2-50-52.2z" fill="#00a8e0"/></svg>