<svg viewBox="0 0 175 167" xmlns="http://www.w3.org/2000/svg"><linearGradient id="linearGradient1" x1="14.642857" y1="144.142855" x2="109.642865" y2="125.214286" gradientUnits="userSpaceOnUse"><stop offset="1e-05" stop-color="#2b7a77" stop-opacity="1"/><stop offset="0.510487" stop-color="#4ebaa9" stop-opacity="1"/><stop offset="1" stop-color="#5cc2b1" stop-opacity="1"/></linearGradient><path id="path4460" fill="url(#linearGradient1)" stroke="none" d="M 33.084587 166.500015 C 28.358278 166.500015 25.902191 164.717209 23.544455 160.575882 L 2.007802 120.652725 C 0.523659 117.791656 0.500007 116.83876 0.500007 114.777344 L 34.347679 116.26944 L 42.094578 124.016342 L 109.988724 124.016342 L 53.615658 158.938232 C 50.867893 160.563309 40.417229 166.500015 33.084587 166.500015 Z"/><linearGradient id="linearGradient2" x1="63.571428" y1="13.428571" x2="16.428572" y2="124.142857" gradientUnits="userSpaceOnUse"><stop offset="1e-05" stop-color="#236736" stop-opacity="1"/><stop offset="0.4928" stop-color="#6ba443" stop-opacity="1"/><stop offset="1" stop-color="#86c146" stop-opacity="1"/></linearGradient><path id="path4458" fill="url(#linearGradient2)" stroke="none" d="M 42.125668 124.016342 L 12.847866 124.016342 C 4.004964 124.016342 0.500007 119.391159 0.500007 114.777344 C 0.500007 111.857834 1.439446 110.265732 2.738356 107.021042 L 45.405365 5.164322 L 45.863884 4.270523 L 46.454544 3.353455 L 47.682476 2.156601 L 49.485531 1.192902 L 52.096844 0.617798 L 56.588917 0.734375 L 86.238205 11.75473 L 76.212639 43.370277 Z"/><linearGradient id="linearGradient3" x1="81.785704" y1="0.928573" x2="151.071439" y2="165.928584" gradientUnits="userSpaceOnUse"><stop offset="1e-05" stop-color="#29a5e3" stop-opacity="1"/><stop offset="0.515493" stop-color="#356eb9" stop-opacity="1"/><stop offset="1" stop-color="#394da5" stop-opacity="1"/></linearGradient><path id="path4456" fill="url(#linearGradient3)" fill-rule="evenodd" stroke="none" d="M 128.093826 166.493698 L 60.746819 7.060593 C 59.586807 4.34584 57.726967 0.84317 52.91288 0.84317 C 48.611553 0.84317 46.562508 2.925903 45.405365 5.164322 C 46.003704 3.550079 47.814327 0.414169 53.062092 0.414169 L 99.543472 0.414169 C 103.826981 0.414169 105.881859 2.93634 106.818321 5.245575 L 174.923386 166.493698 Z"/></svg>