<svg viewBox="0.4 0 30.6 30.6" xmlns="http://www.w3.org/2000/svg"><path id="Shape12" fill="#cb2026" stroke="none" d="M 21.100006 16.1 L 18.299988 3.700001 L 10.600006 13.700001 L 21.100006 16.1 Z M 31 15.3 C 31 23.700001 24.100006 30.6 15.700012 30.6 C 7.300003 30.6 0.399994 23.700001 0.399994 15.3 C 0.399994 6.9 7.300003 0 15.700012 0 C 16.5 0 17.299988 0.1 18.100006 0.200001 L 16.799988 1.9 L 15.700012 1.9 C 12.299988 1.9 9.100006 3.200001 6.600006 5.5 C 4.199997 7.9 2.800003 11.1 2.800003 14.5 C 2.800003 21.6 8.600006 27.4 15.700012 27.4 C 22.799988 27.4 28.600006 21.6 28.600006 14.5 C 28.600006 9.299999 25.299988 4.6 20.399994 2.799999 L 19.899994 0.700001 C 26.5 2.5 31 8.5 31 15.3 Z"/></svg>