<svg version="1.2" xmlns="http://www.w3.org/2000/svg" viewBox="0.535 0 1451.696 1553.8"><title>Barclays_logo-svg</title><defs><clipPath clipPathUnits="userSpaceOnUse" id="cp1"><path d="m-10408.68 3605.26v-5669.56c0.05-326.45 242.79-562.11 563.1-562.11-320.31 0-579.95-264.76-579.95-591.06l-1.49-1594.28c0-142.98 113.69-258.78 253.65-258.78h13792.38c581.54 0 1052.96 480.37 1052.96 1072.87v8133.44c0 267.84-213.16 542.2-476.18 542.2h-13551.52c-581.79 0-1052.95-632.9-1052.95-1072.72z"/></clipPath></defs><g id="g6604"><g id="Clip-Path: path4050" clip-path="url(#cp1)"><path id="path4050" d="m683 0c49.3 1.9 88.8 11.7 121.3 40.7 32.6 28.4 39.2 97.8 40.6 128.7 1.9 30.5 0.8 122 32.5 166.4 32.8 46.1 68.2 59.5 110.4 59.5 9.7 0 19.8-0.6 30.3-1.9 56-6.7 71.7-39.8 71.7-39.8 0 0-47-12.7-47-72-0.3-39.9 34.7-77.1 85.8-92.4 16.4-4.7 34.4-7.2 53.1-7.2 60.2 0 127.8 25.2 172.8 84.3 102.6 135.4 110.9 332.2 85.8 516-24.9 184.1-141.8 354.1-145.6 359-2 3.1-4.4 4.8-6.7 4.8-1.4 0-3-0.7-4.3-2.1-50.6-48.2-98.3-115.3-118.9-159.9-22.4 17.1-10.4 54.3 1.1 94.6 12.1 41 40.4 94.7 49.7 112 10.1 16.8 22.7 36.9 5.7 47.3-1.9 1.1-4.2 1.7-7 1.7-22.7 0-75.4-39.3-135-118.4-66.5-88.4-100.5-167.8-100.5-167.8-4.7 1.8-12.3 9.3-11.4 31.9 0.4 22.5 24.7 107.6 70.1 185.7 45.9 78.7 88.6 128.2 96.7 138.9 5.1 7.1 0.8 10.8-2.7 13.1-3 2.6-84.8 78.8-203 143.1-140.2 74.6-202.2 87.6-202.2 87.6 0 0-62.1-13.4-202.3-88-118.3-64.2-199.7-140.1-203.1-142.4-3.4-2.6-7.9-6.7-2.6-13.1 8.6-11.2 51.1-60.4 97.1-139.1 45.6-78.7 69-163.3 69.9-186 1.3-22.4-6.8-30.6-11.7-31.7 0 0-33.7 78.9-100.1 167.8-59.3 79.1-112.5 118.4-135.1 118.4-2.7 0-5-0.6-6.8-1.7-17.6-10.3-4.5-30.1 5.3-47.2 10.1-17.4 38-71.4 49.5-112.1 12.1-39.8 23.6-77.1 1.6-94.6-20.5 44.7-68.6 111.4-119 160.3q-2.1 1.7-4 1.7c-2.6 0-4.8-1.7-7.3-5-3.4-4.7-120.1-174.9-145.3-358.7-25-183.5-16.7-380.7 85.9-516 45.3-59 112.4-84 172.1-84 19 0 37.3 2.4 53.9 7.2 50.7 14.9 85.8 51.8 86.2 92.1-0.4 59.3-47.1 71.9-47.1 71.9 0 0 17 33.9 71 39.8 16 1.5 31 1.5 31 1.5 116.1-1 144.5-85.3 148.9-161 4.9-75.7-35.5-104.3-90-110.8-6.5-0.5-12.7-1.1-18.2-1.1-39.5 0-51.5 17.6-51.5 17.6-17.8-28.7-1.9-67.9 31.7-90 34.7-23.2 75.4-27.9 107.2-27.9 5.7 0 11.2 0.1 16.5 0.5 13.3-14.9 21.9-22.1 63.1-22.1 3 0 6.3 0 9.9-0.1z" fill="#00afe9"/></g></g></svg>