<svg version="1.2" xmlns="http://www.w3.org/2000/svg" viewBox="0 0 1570 1418"><title>BILI_BIG-svg</title><g id="top_logo"><g id="Layer"><path id="形状" fill-rule="evenodd" d="m845.7 446.9c8.3 1.4 73.5-13.3 76.3-8.4 4.1 6.1 33.4 215.8 25.7 217.3-7.5 1.4-61.7 13.8-61.7 13.8-4.3-28.5-39.7-204.8-40.3-222.7zm188.7-20.2c0 0 14.7 134.6 23.1 220.1-5.5 0.6-64.6 4.9-79.3 5.5l-28.5-225.6c27.9-5.5 57-5.5 84.7 0zm-140.9 313.1c0 0 128.5-32.7 174.9-16.7 23.7 85.3 66.8 564.4 70.9 583.7-29.1 3.5-125 11.8-132.6 14.1-6.3-36.3-113.2-558.3-113.2-581.1zm475.7-287.4c7.5 2 75.6-7 76.4-2.1 1.4 16.7 8.3 217.9 0.6 218.7-7.6 0.6-61.7 5.5-61.7 5.5-1.4-27.7-16.7-203.4-15.3-222.1zm189.6 0c0 0-1.4 134.5 0 220-6.3 0.7-64.6-2.8-79.2-2.8l-5.5-222.7c28.3-1.5 56.8 0.6 84.7 5.5zm-174.3 293.5c0 0 131.1-17.3 175.5 3.5 9.8 100 8.4 565.8 9.8 585.3-29.8 0-125 1.4-132.6 2.7-1.4-36.1-54.8-568.5-52.7-591.5zm-129.9-581c-0.6 21.6 47.8 685.9 87.5 1101.8-67.4-4.3-127-5.7-127-5.7-2.1-42.3-59.7-701.7-135.5-1087.7 0 0 158.3-27.1 175-8.4zm-761 1224.6c-201.4 38.9-318.7 26.4-318.7 26.4-73.5-890-174.9-1319-174.9-1319 84.7-31.1 241.5-106.3 256.2-95.7-2.1 31.8-9.8 224.8-0.6 423.5 10.4 231.1 37.4 469.9 37.4 469.9 217.9-39.5 605.4 83.2 620.1 191.5 19.9 143.2-218.1 264.5-419.5 303.4zm151.3-265.9c-22.2-13.8-231.1-91.6-239.5-87.3l34 244.9c0 0 202-142.3 205.5-157.6z" fill="#00a1d6"/></g></g></svg>