<svg viewBox="0 0 37 36" xmlns="http://www.w3.org/2000/svg"><g id="g15292"><path id="path15294" fill="#ed1c24" stroke="none" d="M 18.370926 -0.234669 C 8.509594 -0.234669 0.508259 7.766665 0.508259 17.631996 C 0.508259 27.49733 8.509594 35.499996 18.370926 35.499996 C 28.241592 35.499996 36.237595 27.49733 36.237595 17.631996 C 36.237595 7.766665 28.241592 -0.234669 18.370926 -0.234669"/></g><path id="path15296" fill="#ffffff" stroke="none" d="M 9.871975 25.394691 L 26.751976 25.394691 L 26.751976 20.063963 L 9.871975 20.063963 Z"/><g id="g15298"><path id="path15300" fill="#ffffff" stroke="none" d="M 17.762657 12.100664 C 17.982658 12.381996 18.170662 12.465998 18.367996 12.469997 C 18.570663 12.465998 18.747993 12.39533 18.96933 12.100664 C 18.96933 12.100664 21.78933 8.39533 21.937325 8.216663 C 22.317329 7.740664 22.777328 7.740664 23.157326 8.213997 L 26.751991 12.764664 L 26.751991 20.064663 L 23.181328 15.480663 C 22.76133 14.956663 22.285324 14.952663 21.863991 15.480663 C 21.722656 15.665997 18.981323 19.29533 18.981323 19.29533 C 18.555992 19.832663 18.145325 19.832663 17.725327 19.29533 C 17.725327 19.29533 14.921326 15.647329 14.794662 15.480663 C 14.383995 14.964663 13.926659 14.952663 13.481323 15.480663 L 9.871994 20.064663 L 9.870659 12.785997 C 9.870659 12.785997 13.309326 8.47533 13.527992 8.213997 C 13.917328 7.740664 14.383995 7.740664 14.765327 8.209997 C 14.93866 8.436665 17.762657 12.100664 17.762657 12.100664"/></g></svg>