<svg viewBox="0.586 0.186 523.507 322.459" xmlns="http://www.w3.org/2000/svg"><path id="path3360" fill="#92342f" stroke="none" d="M 509.100708 0.18573 C 509.862549 0.18573 510.624329 0.490448 511.37085 0.642792 C 511.37085 1.099884 511.523254 2.532074 510.761414 2.486359 C 509.542542 2.791077 508.156067 2.94342 506.617249 2.94342 C 506.769653 1.572205 507.074341 0.917053 509.07019 0.27713"/><path id="path3362" fill="#92342f" stroke="none" d="M 521.38092 1.435059 C 522.295044 1.435059 523.19397 1.435059 524.092896 1.587433 C 523.635803 2.501587 522.416992 3.14151 520.360107 2.958679 C 520.360107 2.958679 520.360107 2.806305 520.360107 2.653961 C 520.207764 2.653961 520.055359 2.653961 519.903015 2.653961 C 519.918274 2.349243 519.903015 2.196869 519.903015 1.892151 C 520.360107 1.739777 520.817139 1.435059 521.274292 1.282715"/><path id="path3364" fill="#92342f" stroke="none" d="M 499.471619 0.734222 C 500.233398 0.734222 500.995178 1.03894 501.726501 1.03894 C 501.878845 2.105438 502.945435 2.76059 502.945435 3.720459 C 500.233398 4.482269 497.277588 6.082031 494.062805 6.158234 C 493.453369 6.158234 493.148621 6.310577 493.148621 6.005859 C 492.996338 6.005859 492.843933 6.005859 492.691589 6.005859 C 492.386841 1.70932 493.453369 2.486359 499.425842 0.779938"/><path id="path3366" fill="#92342f" stroke="none" d="M 484.266052 2.593018 C 485.027832 2.593018 486.536194 2.593018 486.505737 3.202454 C 488.318848 6.051575 486.810486 7.727539 481.096985 7.803711 C 479.725739 7.803711 478.811554 7.498993 477.547028 7.346619 C 477.547028 7.041901 477.394653 6.737183 477.24231 6.432465 C 477.851715 6.432465 482.346375 5.061218 482.346375 5.061218 C 481.736877 4.299438 480.167603 3.690002 480.228577 2.806305 C 480.533264 2.821533 480.838013 2.806305 481.1427 2.806305 C 482.209229 2.806305 483.306213 2.653961 484.357483 2.501587"/><path id="path3368" fill="#92342f" stroke="none" d="M 463.60611 3.857605 C 465.129669 4.162323 466.318085 4.619385 466.257172 5.457367 C 463.682281 5.457367 460.360809 4.847931 463.60611 3.857605"/><path id="path3370" fill="#92342f" stroke="none" d="M 473.570435 5.213593 C 475.459686 5.823029 475.398712 6.584839 473.722748 7.285675 C 472.808624 7.742767 471.955414 8.352203 471.041229 8.809296 C 469.670013 9.266357 468.024506 8.961639 466.470459 9.114014 C 465.099213 9.266357 463.682281 9.418732 462.26532 9.72345 C 460.741699 9.72345 459.21814 9.72345 457.69455 9.571075 C 457.085083 9.571075 456.628021 9.571075 456.049042 9.571075 C 454.83017 9.875793 454.677826 10.789948 453.931244 11.292755 C 453.017059 12.054535 448.583435 13.62384 446.892242 13.760986 C 443.433655 14.065704 441.224426 12.694458 438.299133 12.115479 C 437.537323 12.115479 434.276825 11.353699 435.678558 10.744263 C 436.592712 10.28717 443.296539 11.506042 444.774445 11.658417 C 444.774445 11.658417 444.774445 11.506042 444.774445 11.353699 C 445.231506 11.353699 450.792633 10.28717 450.731689 11.353699 C 450.731689 11.353699 451.036407 11.353699 451.188782 11.353699 C 453.230377 8.397919 452.102936 7.62088 459.172424 8.077942 C 461.381622 7.468506 464.505035 8.077942 466.836121 7.773224 C 469.51767 7.316162 471.102203 5.990631 473.52475 5.289764"/><path id="path3372" fill="#92342f" stroke="none" d="M 434.185394 6.462952 C 434.947235 6.462952 437.384979 6.462952 437.354492 6.920013 C 437.506866 6.920013 437.65921 6.920013 437.811584 6.935272 C 437.811584 7.23999 438.116302 8.154144 437.354492 8.154144 C 434.337769 8.76358 432.296173 8.76358 432.159027 10.896606 C 431.092499 10.896606 425.775146 10.439545 425.805634 9.982452 C 425.653259 9.982452 425.500916 9.982452 425.348541 9.982452 C 425.348541 9.677734 425.348541 9.373016 425.348541 9.068298 C 428.70047 8.611206 430.863983 7.102844 434.200653 6.56958"/><path id="path3374" fill="#92342f" stroke="none" d="M 413.403564 9.845337 C 414.317719 9.845337 415.216614 9.845337 416.130768 9.997681 C 415.368988 10.759491 414.409119 11.216553 412.39798 11.216553 C 412.550323 10.759491 412.855042 10.302399 413.464508 9.845337"/><path id="path3376" fill="#92342f" stroke="none" d="M 421.509094 11.551758 C 423.977295 11.704132 426.034149 12.161194 428.243378 12.618286 C 429.46225 12.923004 430.69635 13.227722 431.915253 13.53244 C 431.915253 13.684784 431.915253 13.989502 431.915253 14.29425 C 429.660339 14.751312 419.848358 17.463318 419.07132 15.05603 C 418.918976 14.598969 419.376038 12.526855 419.680756 12.557343 C 420.137848 12.10025 420.747284 11.947906 421.570038 11.795532"/><path id="path3378" fill="#92342f" stroke="none" d="M 407.751007 12.328796 C 412.047546 13.24295 402.57077 14.67514 402.616486 13.882874 C 402.464111 13.882874 402.311768 13.882874 402.159393 13.882874 C 402.159393 13.425781 402.159393 12.663971 403.073547 12.816345 C 404.612366 12.816345 406.151215 12.511627 407.674805 12.359253"/><path id="path3380" fill="#92342f" stroke="none" d="M 411.240051 14.903687 C 413.357849 14.903687 415.231842 15.360748 417.136353 15.513123 C 415.186157 17.600433 412.535095 19.261169 406.913025 18.529846 C 405.998871 18.529846 404.47525 17.768036 403.423981 18.072754 C 402.052734 18.377472 402.357452 19.748718 401.778503 19.703003 C 400.559631 20.007721 398.898865 20.160095 398.076141 20.769531 C 397.466705 21.226593 397.314331 21.83606 396.445892 22.354065 C 395.22702 22.963501 393.002563 23.115875 391.478973 23.572937 C 390.412445 23.877655 389.406891 24.182373 388.355591 24.487091 C 387.289093 24.639465 383.937164 24.487091 383.69339 23.725311 C 383.541016 23.115875 385.064636 22.963501 386.039703 23.115875 C 387.898499 22.506439 393.840546 22.049347 394.328094 20.998077 C 394.785187 20.083893 393.566315 19.230682 394.17572 18.3013 C 394.328094 17.996582 394.785187 17.53949 395.546967 17.53949 C 395.546967 17.387146 395.546967 17.234772 395.546967 17.082428 C 395.089874 16.930054 392.530243 15.482635 393.810059 15.558807 C 396.628723 13.639099 398.487518 14.949371 401.290955 15.711182 C 402.662201 15.863556 403.896301 16.0159 405.191345 16.168274 C 406.714935 15.711182 409.213623 14.949371 411.194336 15.101746 C 411.194336 15.101746 411.194336 15.101746 411.194336 14.949371"/><path id="path3382" fill="#92342f" stroke="none" d="M 380.874725 17.905151 C 382.398315 18.057526 386.024475 18.819336 384.470428 19.962006 C 382.535461 21.333252 379.366364 19.962006 379.198761 22.521667 C 380.265289 22.521667 381.347046 22.521667 382.398315 22.506439 C 382.245972 23.115875 382.093628 23.725311 381.179443 24.151917 C 379.076904 25.066071 376.517242 25.218445 374.323273 25.934509 C 373.409119 26.391602 372.43399 26.848694 371.474121 27.45813 C 370.407623 27.762848 369.29538 28.067566 368.183167 28.372284 C 366.248199 29.134064 364.876953 30.231079 362.561096 30.7948 C 359.970978 31.404236 357.258942 31.251892 354.531738 31.708954 C 353.46521 32.013672 352.505341 32.31839 351.469299 32.470764 C 350.555145 32.470764 346.685181 31.708954 346.654724 32.31839 C 345.588226 33.0802 345.74057 34.314301 344.506439 34.938995 C 343.287567 35.548431 341.017395 35.243713 339.53952 35.548431 C 336.720856 36.310211 333.91745 37.224396 331.083527 38.047119 C 329.559967 38.961273 328.082062 39.844971 326.5737 40.728668 C 324.166443 41.795166 320.844971 41.795166 318.300568 42.831207 C 317.538757 43.2883 316.700806 43.593018 315.89328 44.05011 C 314.339203 44.507172 312.785156 44.964264 311.215851 45.421326 C 305.746124 47.371552 300.824921 49.38269 295.29425 51.180542 C 293.191681 51.789978 291.073883 52.24707 288.971313 52.856506 C 286.7164 53.618286 284.766174 55.096191 282.419861 55.934174 C 280.302063 56.695953 277.635742 56.848328 275.548431 57.68631 C 273.613434 58.44809 272.836395 59.758392 270.962372 60.535431 C 269.591156 61.144867 267.381927 60.992493 266.11734 61.754303 C 264.898468 62.516113 264.898468 63.613098 263.390106 64.329193 C 261.744629 65.091003 259.946777 65.548065 258.225098 66.111786 C 257.1586 66.416504 256.853851 67.178314 255.634979 67.483032 C 254.11142 67.78775 252.298309 67.483032 251.003265 67.940125 C 249.403503 68.549561 249.312073 69.798889 247.438019 70.36264 C 246.219147 70.819702 244.634613 70.36264 243.202423 70.36264 C 239.210602 70.36264 240.002899 72.08429 239.60672 73.684082 C 239.302032 74.293518 238.997314 74.75061 238.692596 75.299072 C 236.727142 74.84201 234.776947 74.384918 232.826721 73.927856 C 231.303131 74.84201 230.73941 76.197998 228.057861 76.396088 C 227.600769 76.396088 227.600769 76.396088 227.600769 76.243713 C 227.448456 76.243713 227.296082 76.243713 227.143707 76.243713 C 227.143707 75.481934 227.143707 74.674408 227.296082 73.882141 C 227.143707 73.882141 226.991364 73.882141 226.838989 73.882141 C 226.838989 73.882141 226.838989 73.882141 226.838989 74.034515 C 226.686646 74.034515 226.534271 74.034515 226.381897 74.034515 C 225.772491 74.796295 225.010651 75.679993 224.401245 76.502716 C 223.791809 76.502716 223.944168 76.502716 223.944168 76.65509 C 226.73233 77.721619 226.061951 79.961304 224.553619 81.13446 C 222.923355 82.353363 217.651703 82.200989 215.061584 82.795197 C 213.00473 83.252258 213.431335 84.623505 212.273392 85.491943 C 210.597443 86.710846 208.708191 87.944946 206.971283 89.14859 C 206.209488 89.605682 205.14296 89.9104 204.914429 90.519836 C 204.457352 91.586365 206.559906 92.165314 206.498962 93.170898 C 204.8992 93.018524 203.497482 92.256744 201.98912 92.10437 C 201.98912 92.10437 201.98912 92.256744 201.98912 92.409088 C 200.617889 93.323242 200.922592 94.58783 200.770233 95.882904 C 199.002869 95.73053 197.281204 95.273468 195.376709 95.273468 C 194.310181 95.273468 193.853104 95.73053 193.015121 95.73053 C 194.386368 98.320648 192.558044 96.949402 190.2117 98.153046 C 189.754623 98.610138 189.449905 99.0672 188.992828 99.524292 C 188.231018 100.59082 186.524597 100.743164 184.482986 101.047882 C 183.87355 101.047882 183.87355 101.047882 183.87355 101.3526 C 183.721176 101.3526 183.568817 101.3526 183.416458 101.3526 C 184.63533 102.571472 188.291977 103.729431 188.200546 105.207306 C 181.649094 104.293152 183.325043 104.140808 178.525711 106.273834 C 177.306824 106.730927 175.813705 107.035645 175.09761 107.797424 C 174.335815 108.559235 174.488174 109.45816 173.391174 110.037109 C 170.313522 111.636902 166.595932 112.154907 163.731567 113.510925 C 162.512695 114.120361 161.41571 115.476349 160.882446 116.32959 C 160.120651 117.548462 161.339539 118.813049 160.730087 119.95575 C 160.27301 120.717529 157.880966 120.869904 157.210587 121.677399 C 157.210587 122.439209 157.210587 123.048645 157.210587 123.810455 C 155.991699 123.810455 154.788055 123.658081 153.569183 123.658081 C 153.569183 124.876953 154.483337 127.192841 150.415329 126.217743 C 149.958267 126.217743 149.805893 125.912994 149.805893 126.217743 C 148.891739 126.674805 146.667282 127.588959 146.667282 128.365997 C 146.667282 128.975433 148.556549 129.584869 147.886154 130.285736 C 147.276718 130.895172 145.768356 131.19989 144.854202 131.656952 C 144.092407 132.418762 143.254425 133.028198 142.431686 133.759552 C 141.212799 134.216614 140.024399 134.521332 138.805511 134.978424 C 137.891357 135.283142 137.43428 136.044922 136.200165 136.197296 C 134.676575 136.34967 133.366272 136.044922 131.827438 135.892578 C 131.827438 135.892578 131.827438 136.044922 131.827438 136.197296 C 134.935593 136.959106 137.632355 137.979889 141.304214 138.223694 C 142.675446 137.918945 144.549484 137.918945 146.332077 138.07132 C 147.093887 138.07132 147.870926 138.07132 148.632721 138.07132 C 148.023285 140.905212 146.575867 145.963562 139.460663 145.50647 C 139.460663 144.897034 139.155945 144.135223 139.765381 143.586731 C 140.374817 143.129669 141.913651 142.824951 141.959366 142.063141 C 142.416443 141.910797 142.416443 142.063141 142.416443 141.606049 C 141.045212 141.606049 140.039642 141.606049 138.988358 141.910797 C 137.617111 142.215485 133.015839 144.378998 132.711121 145.12558 C 132.406403 145.88736 133.320572 146.816772 132.711121 147.50238 C 131.644608 147.807098 130.593323 148.111816 129.542053 148.416534 C 127.500412 149.178345 126.312027 151.006653 123.097229 150.869537 C 122.18306 150.869537 120.857529 150.564819 120.888 150.107727 C 120.278564 150.107727 119.973846 150.107727 119.973846 150.564819 C 119.212051 150.869537 118.069351 151.478973 118.038879 152.088409 C 119.257767 152.545502 120.888 153.688202 122.503021 153.79483 C 121.741226 155.318451 119.592957 155.318451 116.484802 155.013733 C 116.789536 155.623169 117.398972 156.384949 117.398972 157.192474 C 117.398972 158.106628 116.180099 158.563721 115.64682 159.264557 C 114.732681 160.483429 114.108002 163.454437 110.801788 163.606812 C 106.459534 163.759186 104.372208 160.788177 99.786179 162.997375 C 99.024384 163.302094 98.094986 163.91153 98.049271 164.368622 C 99.67952 164.67334 102.985733 164.978058 104.006546 165.739868 C 105.652023 167.111084 99.207214 171.240051 107.175629 171.742828 C 107.175629 172.047546 107.02327 172.352264 106.870911 172.656982 C 105.652023 173.266418 104.524567 173.723511 103.35141 174.272003 C 102.132523 175.033783 101.827805 176.49646 100.471802 177.227783 C 99.86235 177.532501 99.100555 177.532501 98.15593 177.532501 C 96.617096 177.380127 95.108734 175.44516 96.388565 175.536591 C 96.388565 175.536591 96.388565 175.536591 96.388565 175.231873 C 91.010254 175.079498 85.479599 174.317719 85.251053 177.837219 C 88.526787 178.141937 97.028473 178.141937 97.455078 180.290222 C 97.607437 181.052002 96.693283 181.509094 96.540909 182.103271 C 96.693283 182.865082 96.998001 183.626892 97.15036 184.266785 C 97.759796 184.266785 98.369232 184.571533 98.948196 184.571533 C 100.319443 183.657349 101.370712 183.047913 104.06749 183.200287 C 104.829285 183.200287 105.606323 183.200287 106.35289 183.200287 C 105.895813 185.379028 104.692154 185.119995 103.473282 186.643616 C 103.320923 187.100677 103.016205 187.55777 102.863846 188.167206 C 101.949692 188.776642 101.203125 189.538452 100.349915 190.193604 C 99.892838 190.955383 99.435745 191.808594 98.978668 192.616119 C 98.216873 193.530273 96.068604 194.505371 96.00766 195.587128 C 92.549088 194.977692 93.371826 193.972107 93.478485 192.341888 C 93.326126 192.341888 93.173767 192.32663 93.021408 192.32663 C 88.222069 194.078766 80.238419 191.260132 85.860497 189.766998 C 85.555779 189.766998 85.098694 189.766998 84.641617 189.614624 C 82.036263 188.70047 79.507088 187.816772 76.551315 188.852844 C 74.783936 189.46228 72.848969 191.427704 75.637154 192.280914 C 77.831131 192.89035 81.228752 191.976196 83.422737 192.89035 C 84.489258 193.347443 84.18454 193.956879 84.336891 194.627258 C 84.336891 194.931976 84.18454 195.541412 84.946335 195.693787 C 84.946335 195.693787 84.961578 195.541412 84.961578 195.389069 C 87.597397 195.389069 90.370346 195.84613 91.040726 197.23262 C 91.040726 197.537338 91.49781 197.689697 90.736008 197.689697 C 90.736008 197.689697 90.736008 197.842056 90.736008 197.842056 C 88.770569 197.842056 86.805122 197.537338 84.824448 197.537338 C 84.824448 198.146774 84.367371 199.106644 84.824448 199.71608 C 86.043327 201.087326 90.172279 200.934952 89.562836 203.022293 C 88.801041 203.936447 88.191605 204.850601 87.47551 205.764771 C 87.47551 206.526566 87.780228 207.136002 87.932587 207.882568 C 87.932587 209.10144 86.866074 210.48793 85.967148 211.4935 C 84.900627 212.712372 81.929611 213.01709 80.497429 214.144562 C 78.897652 215.363434 79.583275 217.085098 78.53199 218.562988 C 77.465469 220.193237 74.890587 221.381638 73.900253 223.088074 C 73.138458 224.672623 72.376656 226.257156 71.660568 227.826462 C 70.898766 229.197708 69.649414 229.197708 69.420876 231.254562 C 69.420876 231.55928 69.573235 231.55928 68.963799 231.406906 C 68.963799 231.406906 68.963799 231.55928 68.963799 231.55928 C 63.387428 230.492767 68.659081 226.60759 62.915115 227.277969 C 62.153313 227.277969 60.050751 227.735046 60.035515 228.192123 C 59.883148 228.192123 59.730797 228.192123 59.57843 228.192123 C 60.797318 229.715714 63.235069 232.18396 62.046661 233.722794 C 61.132507 234.484589 60.20311 235.246384 59.288948 236.023422 C 58.98423 236.328125 58.222435 236.785217 58.98423 236.937576 C 60.843018 235.292084 65.992775 234.667419 66.129906 232.442963 C 68.704781 232.442963 69.055214 233.357117 69.07045 234.530289 C 69.055214 237.120407 65.185272 239.131546 63.661674 241.325531 C 63.509315 241.934967 63.204597 242.696777 62.899872 243.321457 C 62.138077 245.286896 61.528641 247.267548 60.644951 249.309189 C 60.187866 250.375702 59.57843 252.127838 58.892815 253.163895 C 58.435738 253.620987 57.978653 254.078049 57.521576 254.535141 C 57.216858 256.165405 56.759773 257.780396 56.455055 259.395416 C 56.150337 261.726501 53.682114 264.164276 50.604446 265.626953 C 49.537926 266.083984 47.907677 266.236359 47.237289 266.998169 C 47.237289 266.998169 46.780212 267.759949 46.780212 267.302856 C 46.932571 267.302856 47.08493 267.302856 47.237289 267.302856 C 49.44651 267.150513 50.360664 268.217041 50.528259 269.17691 C 50.528259 269.329285 50.528259 269.481628 50.528259 269.633972 C 50.528259 272.589752 44.951889 271.904144 43.839668 274.418091 C 42.620789 277.084381 47.37442 278.836487 47.511543 280.8172 C 47.511543 280.8172 47.511543 280.8172 47.511543 280.969543 C 47.511543 282.036072 45.363274 282.843567 44.967133 283.894867 C 44.510048 285.113739 45.42421 286.347839 44.967133 287.353424 C 44.662415 287.962891 43.382591 288.115234 42.437958 288.419922 C 40.000198 289.181763 37.394852 290.370148 37.257729 291.939453 C 37.105362 293.463074 38.918449 294.621002 39.543121 295.931274 C 40.304924 297.561523 40.457283 299.161316 41.462852 300.715393 C 42.072296 301.629517 43.687309 302.863647 43.474007 303.899719 C 43.321648 304.813843 42.102768 305.270935 40.24398 305.118591 C 40.24398 304.052063 40.548698 303.015991 39.786896 302.056152 C 39.025101 300.989624 37.333908 300.105927 37.425323 298.810883 C 37.272964 298.810883 37.120605 298.810883 36.968246 298.810883 C 36.663521 300.182129 35.383705 300.608734 34.789497 301.766663 C 34.180061 302.985535 34.804733 304.372009 34.941856 305.529968 C 34.941856 305.834686 34.637138 306.444092 35.551292 306.444092 C 35.551292 306.444092 35.551292 306.596466 35.551292 306.596466 C 35.703659 306.596466 35.856018 306.596466 36.008377 306.596466 C 36.008377 306.596466 36.008377 306.444092 36.008377 306.291748 C 36.465454 306.291748 42.072296 304.387238 41.980881 305.682312 C 41.980881 306.291748 41.828522 306.74884 41.371437 307.251587 C 39.634537 308.927551 37.455795 307.861053 34.241005 308.013428 C 32.245087 308.013428 30.218704 308.775208 29.152187 309.658905 C 25.998341 312.172821 29.761627 313.71167 30.934795 315.951355 C 32.519341 319.013794 30.477715 320.537354 26.074516 321.558197 C 24.124313 322.015259 21.884628 322.7771 19.492577 322.624695 C 19.492577 320.6745 19.0355 318.053955 23.057796 317.81015 C 23.667233 317.81015 24.825169 317.657776 24.809933 317.962524 C 25.114651 317.353058 25.571732 316.743652 25.87645 316.134186 C 23.133976 315.52475 22.219814 314.229675 20.2239 313.132721 C 19.462105 312.828003 18.700306 312.370911 17.968979 312.066162 C 17.054821 311.456726 16.750099 310.84729 15.592167 310.390228 C 15.592167 310.390228 15.439808 310.390228 15.287445 310.390228 C 15.287445 310.390228 15.287445 310.542603 15.287445 310.694946 C 9.863438 312.066162 12.971581 318.206268 12.77351 321.162048 C 12.164074 321.162048 11.859352 321.162048 11.859352 320.857361 C 8.781685 319.638428 7.166672 317.916809 5.505951 316.28656 C 1.514122 312.401367 0.447605 310.649231 0.599964 305.956543 C 0.599964 304.737671 1.666481 304.113007 1.81884 302.970276 C 1.81884 301.263855 0.599964 299.709808 1.209404 297.759583 C 1.971203 296.693085 2.580643 295.763672 3.266258 294.758118 C 3.875702 293.234497 4.332779 291.863281 4.987926 290.415833 C 5.597366 288.800842 5.140285 287.170593 5.597366 285.525116 C 6.054443 284.763306 6.359165 284.15387 6.816242 283.453003 C 7.120964 281.929443 7.578041 280.542908 7.882759 279.065063 C 8.33984 278.150879 8.94928 277.236755 9.48254 276.307312 C 10.09198 274.570435 9.939621 272.909729 10.701416 271.249023 C 11.310856 270.487183 11.767937 269.877747 12.362141 269.146423 C 12.362141 268.079895 12.362141 267.135284 12.362141 266.1297 C 12.666859 264.758484 13.12394 263.341522 13.428658 261.924591 C 13.581017 260.553345 13.885738 259.334473 14.038097 258.02417 C 15.104614 256.957642 16.216843 255.799728 17.28336 254.672241 C 18.197517 253.758087 19.523048 252.798233 19.873474 251.716492 C 20.482918 249.705338 19.873474 247.602768 20.178196 245.606842 C 20.482918 244.05278 23.438698 239.116318 26.211643 238.7659 C 27.430519 238.613541 28.390385 239.070618 29.594028 239.222977 C 29.594028 239.222977 29.594028 239.070618 29.594028 238.918243 C 29.746387 238.7659 29.898746 238.613541 30.051109 238.461166 C 30.660549 236.937576 27.918072 235.977707 28.466568 234.454117 C 29.228367 233.692322 29.837803 232.930511 30.538658 232.138245 C 30.995739 231.071732 29.929222 229.94426 30.84338 228.923447 C 31.909901 228.161652 32.900238 227.399857 33.921051 226.714233 C 34.07341 226.104797 34.225769 225.343002 34.530487 224.672623 C 35.139923 224.063187 35.597008 223.301376 36.22168 222.570038 C 37.135841 220.589371 37.592918 218.654404 38.598495 216.658493 C 39.207932 215.439621 41.310493 214.708282 41.965645 213.504654 C 43.717781 210.320328 46.01841 207.57785 47.831497 204.408768 C 48.440933 203.342239 47.526772 202.458557 48.288574 201.513931 C 49.050369 200.599777 50.772034 199.990341 51.960442 199.213287 C 52.874603 198.451492 53.712585 197.659225 54.581032 196.866959 C 55.952271 195.495728 55.799911 193.575989 57.140678 192.189514 C 57.750114 191.732422 58.511917 191.27536 59.136589 190.818268 C 60.050751 190.056458 60.888725 189.264191 61.757179 188.532867 C 62.671333 187.466339 63.463608 186.399841 64.316826 185.318085 C 65.23098 184.403931 66.63269 183.489777 67.577324 182.545135 C 68.339119 181.783325 67.882042 180.945374 67.882042 180.061676 C 67.882042 179.147522 68.796196 178.157166 69.497055 177.425842 C 70.715927 176.359314 72.071938 175.44516 73.351761 174.439606 C 74.875359 173.677795 77.31311 173.677795 78.151093 172.596039 C 78.455811 171.986603 78.760529 171.377167 79.065254 170.691559 C 80.131767 169.472656 81.335403 168.253784 82.447632 167.05014 C 84.18454 164.612396 85.906204 162.174622 87.643105 159.736877 C 88.404907 158.975067 90.126572 158.975067 91.02549 158.213287 C 91.634926 157.451477 92.24437 156.689697 92.869041 156.004059 C 93.630844 155.546967 94.392647 155.242279 95.108734 154.785187 C 95.870529 153.871033 96.632324 153.048279 97.394135 152.17984 C 99.146271 150.610535 100.898407 149.026001 102.6353 147.441437 C 102.940033 146.679626 103.244736 145.841675 103.549469 145.034149 C 104.463623 143.419159 106.017685 141.804138 107.510818 140.371948 C 109.049652 139.610138 110.588486 138.741699 112.112091 137.903717 C 112.873886 136.989563 113.727097 136.197296 114.519379 135.344086 C 116.088669 133.759552 118.328369 132.327362 119.973846 130.758057 C 121.040359 130.14859 121.985001 129.691528 122.99057 129.127808 C 123.75238 128.365997 124.057083 127.512787 125.077896 126.81192 C 127.42424 125.28833 129.785828 123.795197 132.1474 122.286835 C 134.00618 120.915588 133.518631 118.736877 135.270767 117.319916 C 136.184937 116.558105 137.937073 116.405762 139.140717 115.765839 C 139.902496 115.004059 140.77095 114.242249 141.593704 113.541382 C 143.635315 112.627228 145.676941 111.789246 147.718567 110.905579 C 148.937439 109.83905 150.293442 108.681122 151.573273 107.55365 C 152.639786 106.79187 154.163376 106.334778 155.27562 105.694855 C 157.378174 104.323639 158.74942 102.739075 160.836746 101.367859 C 161.903259 100.758392 163.167847 99.996613 164.32579 99.387177 C 165.392303 99.082458 166.336929 98.625366 167.342514 98.320648 C 167.647217 97.863556 168.104309 97.406494 168.409027 96.949402 C 169.170822 96.187622 170.90773 95.882904 171.852356 95.288696 C 172.614151 94.67926 173.406418 94.069824 174.183456 93.429901 C 175.249985 92.972839 176.819275 92.668121 177.702957 91.906311 C 178.617126 91.144501 178.312393 90.306519 178.921844 89.544739 C 179.531296 88.782928 181.435791 88.782928 182.593719 88.173492 C 183.812592 87.7164 183.812592 86.95462 184.92482 86.390869 C 187.179749 85.324371 190.059357 84.653992 192.64946 83.90741 C 194.279709 83.14563 195.89473 82.322876 197.509735 81.530609 C 198.576263 80.768799 199.749435 80.159363 200.861649 79.367096 C 201.775803 79.062378 202.598557 78.605286 203.451767 78.300568 C 204.365921 77.691132 204.365921 76.776978 205.56958 76.350372 C 207.946381 75.436218 211.283066 75.436218 213.324677 74.186859 C 214.848282 73.272705 216.737534 72.373779 218.10878 71.459625 C 219.022949 70.697815 219.96756 70.088379 220.881729 69.417999 C 222.252975 68.808563 223.548035 68.199127 224.858307 67.665863 C 226.701874 66.599335 227.387482 65.563293 229.718597 64.694855 C 230.937469 64.237762 232.095398 63.933044 233.268585 63.475983 C 234.792175 63.171234 236.590027 63.01889 237.824158 62.561798 C 238.585938 61.952362 239.195374 61.4953 239.941956 60.855377 C 241.313171 60.093597 242.714874 59.484131 244.086121 58.737579 C 245.152649 58.128143 246.752411 58.280487 247.757996 57.671051 C 248.824524 57.061615 249.129211 55.979858 250.789948 55.614197 C 251.247009 55.614197 253.364807 55.157135 253.319153 55.614197 C 254.857971 56.071289 255.223633 56.985443 256.610107 57.564423 C 257.524261 58.021484 263.694824 60.06311 264.928955 60.139282 C 265.386017 59.834564 266.147827 59.225128 266.802948 59.377502 C 266.49826 58.92041 265.888794 58.615692 266.041168 58.15863 C 265.279388 58.15863 262.369293 58.463348 262.39975 58.006256 C 262.247406 58.006256 262.095032 58.006256 261.942688 58.006256 C 262.095032 57.549164 262.247406 57.092102 262.552124 56.63501 C 261.028534 56.63501 258.819336 56.939728 257.524261 56.330292 C 255.985413 55.568512 259.946777 51.652863 261.439911 51.165314 C 262.506409 50.860596 264.136658 50.860596 265.660278 51.012939 C 265.660278 51.927094 265.660278 52.902191 265.507904 53.846832 C 266.422058 53.846832 267.397186 53.846832 268.326569 53.846832 C 269.240723 53.694489 269.941589 53.085022 271.114746 53.085022 C 274.969452 52.932678 279.189819 53.999207 282.648376 53.085022 C 285.649872 52.323242 286.183136 49.596008 288.33139 49.443634 C 288.788483 49.443634 289.093201 49.443634 289.550262 49.443634 C 289.85498 49.443634 290.159729 49.443634 290.464447 49.443634 C 290.464447 49.138916 290.312073 49.29129 290.921509 49.29129 C 290.312073 48.986572 288.209503 48.834198 288.23999 48.377106 C 288.087646 48.377106 287.935272 48.377106 287.782898 48.377106 C 288.544708 44.750946 293.907776 44.964264 297.990997 43.044525 C 300.169739 41.977997 303.156006 40.058289 305.075745 38.778442 C 305.685181 38.321381 306.142273 37.711945 306.751709 37.254852 C 307.818237 36.950134 308.854248 36.645416 309.905548 36.188324 C 312.251892 35.426544 312.389008 34.542847 316.076111 34.817108 C 318.026337 34.207672 321.210632 32.775482 323.724579 34.055298 C 324.181671 34.360016 324.334015 34.817108 324.181671 35.121826 C 324.029297 35.27417 323.572235 35.578888 324.181671 35.578888 C 324.181671 35.883606 324.029297 35.883606 324.638733 35.883606 C 325.552887 36.340698 327.305023 36.493042 328.706757 36.645416 C 331.083527 35.121826 328.706757 33.857239 329.773254 32.0289 C 330.38269 30.810028 343.348511 26.391602 345.923401 26.102112 C 351.74353 25.492676 352.733887 28.280853 357.594177 26.863922 C 359.254883 26.40683 360.915588 25.949768 361.007019 24.761353 C 360.397583 24.456635 358.752106 23.847198 359.346313 23.390106 C 360.565186 22.475952 366.552917 23.694824 366.461487 25.127014 C 373.363403 24.669922 369.828644 22.323608 373.485291 20.540985 C 375.465942 19.626831 378.421722 19.626831 380.585236 18.727905"/><path id="path3384" fill="#92342f" stroke="none" d="M 349.854279 23.938599 C 350.768463 24.090973 351.65213 24.395691 351.606415 25.005127 C 350.539886 24.700409 350.387512 24.548035 349.854279 23.938599"/><path id="path3386" fill="#92342f" stroke="none" d="M 346.365234 28.433228 C 344.993988 28.890289 341.3526 28.737946 341.276428 29.956818 C 342.906677 31.602295 345.969116 30.109192 348.071686 30.261536 C 348.071686 29.956818 348.22403 30.109192 347.614594 29.956818 C 347.157501 29.499756 346.700439 28.890289 346.395721 28.433228"/><path id="path3388" fill="#92342f" stroke="none" d="M 285.588928 42.23703 C 288.072388 42.541748 290.098785 43.151184 290.007355 44.659546 C 286.990631 44.659546 281.642822 44.507172 285.588928 42.23703"/><path id="path3390" fill="#92342f" stroke="none" d="M 284.949005 45.040436 C 285.710815 45.345154 286.167877 45.649872 286.167877 46.106964 C 286.472595 47.47821 284.171997 47.021118 282.572205 47.325836 C 281.658051 47.47821 280.911469 47.630554 280.073486 47.782928 C 279.006989 47.782928 278.031891 47.630554 276.995819 47.630554 C 276.691101 46.868744 276.995819 46.259308 276.995819 45.512756 C 280.363007 45.208038 281.764679 45.969849 284.796661 45.055664"/><path id="path3392" fill="#92342f" stroke="none" d="M 270.627197 47.417236 C 272.546936 47.874329 274.055298 49.276031 271.541351 49.794067 C 269.804443 49.946411 268.067535 50.098785 266.330627 50.251129 C 266.635376 48.544708 268.082794 48.14859 270.627197 47.462952"/><path id="path3394" fill="#92342f" stroke="none" d="M 263.344391 54.029663 C 263.192047 54.639099 263.039673 55.096191 262.734985 55.644684 C 263.801483 55.339966 264.624207 54.882874 264.669922 54.121094 C 264.21283 54.121094 263.755768 54.121094 263.298676 54.121094"/><path id="path3396" fill="#92342f" stroke="none" d="M 245.8992 62.104736 C 245.8992 62.104736 245.8992 62.25708 245.8992 62.409454 C 240.703735 63.171234 243.598572 64.115875 243.857605 65.822327 C 243.857605 66.584106 242.94342 66.736481 242.791077 67.40686 C 248.778809 66.797424 248.687378 64.755798 245.868744 62.150452"/><path id="path3398" fill="#92342f" stroke="none" d="M 229.291992 78.75766 C 230.922241 78.75766 231.074585 79.51944 231.02887 80.28125 C 230.26709 80.28125 229.50528 80.28125 228.7435 80.28125 C 228.895844 79.824188 229.048218 79.367096 229.352936 78.910004"/><path id="path3400" fill="#92342f" stroke="none" d="M 218.291611 79.22998 C 217.834534 79.382324 217.834534 79.22998 217.834534 79.687042 C 218.443985 79.687042 218.748688 79.687042 218.748688 79.22998 C 218.596329 79.22998 218.443985 79.22998 218.291611 79.22998"/><path id="path3402" fill="#92342f" stroke="none" d="M 200.236969 82.779968 C 198.408661 83.389404 198.332474 83.846466 198.271545 85.019653 C 199.993195 85.019653 201.303497 85.476715 202.796616 85.629089 C 202.94899 85.324371 204.167862 84.562561 203.406067 84.410217 C 202.644257 83.496033 202.034821 83.191315 200.313156 82.795197"/><path id="path3404" fill="#92342f" stroke="none" d="M 215.457718 87.777344 C 216.219528 87.777344 217.743118 87.777344 217.712646 88.082062 C 217.865005 88.082062 218.017365 88.082062 218.169724 88.082062 C 217.865005 89.14859 214.939697 93.094727 211.770615 91.753937 C 209.71376 90.839783 214.299789 88.249664 215.457718 87.685944"/><path id="path3406" fill="#92342f" stroke="none" d="M 198.058228 88.082062 C 195.60524 88.843872 194.767273 89.453308 194.660599 91.15976 C 194.812973 91.15976 194.965332 91.15976 195.117691 91.15976 C 195.117691 91.15976 195.117691 91.007385 195.117691 90.855011 C 197.738281 90.702667 202.065292 89.285706 198.058228 87.975433"/><path id="path3408" fill="#92342f" stroke="none" d="M 194.691086 97.772156 C 196.062317 98.076874 197.387863 98.68631 197.326904 99.585236 C 195.666199 99.128143 195.163391 98.671082 194.691086 97.772156"/><path id="path3410" fill="#92342f" stroke="none" d="M 195.849014 101.169769 C 196.153732 101.169769 198.515305 102.236298 197.220245 102.236298 C 197.220245 102.236298 197.220245 102.388672 197.220245 102.541016 C 196.610809 102.541016 196.001373 102.541016 195.391937 102.541016 C 195.544296 102.236298 195.696655 101.779236 196.001373 101.474487"/><path id="path3412" fill="#92342f" stroke="none" d="M 186.905487 105.298737 C 187.667297 105.298737 188.429092 105.603455 189.160431 105.755798 C 189.160431 106.212891 189.160431 106.669952 189.160431 107.127045 C 188.246262 107.127045 187.332092 107.127045 186.433182 106.97467 C 186.585541 106.365234 186.7379 105.908173 187.042618 105.344452"/><path id="path3414" fill="#92342f" stroke="none" d="M 180.095016 111.469299 C 180.856827 111.469299 181.618607 111.774017 182.365189 111.774017 C 182.349945 112.078735 182.365189 112.383453 182.365189 112.688171 C 181.603378 112.688171 180.841583 112.688171 180.079773 112.535828 C 180.079773 112.078735 180.079773 111.774017 180.079773 111.316956"/><path id="path3416" fill="#92342f" stroke="none" d="M 182.82225 111.880676 C 183.584061 111.880676 184.345856 112.185394 185.077179 112.185394 C 185.077179 112.490112 185.077179 112.642487 185.077179 112.947205 C 184.772461 112.947205 184.467743 112.947205 184.163025 112.947205 C 183.705933 112.947205 183.248856 112.947205 182.791794 112.947205 C 182.791794 112.642487 182.791794 112.185394 182.791794 111.728302"/><path id="path3418" fill="#92342f" stroke="none" d="M 174.351059 115.598236 C 175.417572 115.902954 175.722305 116.207672 175.569931 116.817139 C 175.265213 118.569275 173.040756 118.599731 171.364807 119.772919 C 171.212448 119.925262 171.060074 120.077637 170.90773 120.382355 C 170.755371 120.839417 170.450638 121.296509 170.298279 121.905945 C 169.231766 123.124817 159.922577 127.360413 160.196838 123.277191 C 160.806274 123.277191 164.919983 122.210663 165.300888 122.210663 C 165.300888 122.058319 165.300888 121.905945 165.300888 121.753601 C 164.386719 121.296509 163.533508 120.687073 163.579208 119.970978 C 163.731567 119.970978 163.883942 119.970978 164.036301 119.970978 C 165.559891 119.513885 166.992065 119.209167 168.485199 118.752106 C 170.450638 117.685577 172.416092 116.725708 174.366287 115.704895"/><path id="path3420" fill="#92342f" stroke="none" d="M 149.257401 114.684082 C 149.257401 114.684082 149.257401 114.836456 149.242157 114.9888 C 148.78508 115.141174 148.78508 115.598236 148.78508 115.902954 C 148.937439 115.902954 149.089813 115.902954 149.242157 115.902954 C 149.242157 115.902954 149.242157 115.75061 149.242157 115.75061 C 149.546875 115.445892 149.394516 115.293518 150.156326 115.293518 C 149.851593 115.141174 149.546875 114.9888 149.242157 114.836456"/><path id="path3422" fill="#92342f" stroke="none" d="M 158.033325 127.528015 C 159.694046 127.528015 159.404572 128.137451 159.252197 128.746887 C 158.642761 128.746887 158.033325 128.746887 157.408646 128.746887 C 157.408646 128.746887 157.408646 128.594543 157.408646 128.442169 C 157.256287 128.442169 157.103928 128.442169 156.951569 128.442169 C 156.951569 128.442169 156.951569 128.289825 156.951569 128.289825 C 157.256287 127.985107 157.561005 127.680389 157.865723 127.375641"/><path id="path3424" fill="#92342f" stroke="none" d="M 154.224335 130.118134 C 154.98613 130.118134 156.50972 130.118134 156.479248 130.422852 C 156.631607 130.422852 156.783981 130.422852 156.936325 130.422852 C 156.936325 131.337006 156.783981 132.34259 156.022171 133.119629 C 155.412735 133.576721 154.955643 134.033783 154.346207 134.490845 C 154.346207 135.252655 154.346207 136.029694 154.346207 136.791504 C 151.923691 136.334412 150.186783 134.902222 151.466629 133.576721 C 151.923691 133.119629 152.533142 132.662537 152.990204 132.205475 C 153.447281 131.443665 153.447281 130.636169 154.36145 129.996246"/><path id="path3426" fill="#92342f" stroke="none" d="M 124.392288 138.817871 C 124.087555 138.970245 122.457321 139.884399 123.478119 139.884399 C 124.087555 140.798553 124.696991 141.712708 124.696991 142.809692 C 125.001724 142.809692 125.306442 142.809692 125.61116 142.809692 C 125.61116 142.809692 125.61116 142.657349 125.626404 142.504974 C 127.393768 142.352631 130.121017 140.432892 130.791397 140.478607 C 129.084961 139.259735 127.317596 138.92453 124.514175 138.650299"/><path id="path3428" fill="#92342f" stroke="none" d="M 139.049286 145.658844 C 139.506363 145.658844 141.654648 146.725342 140.268173 146.725342 C 140.268173 146.725342 140.268173 146.877716 140.252945 147.03006 C 139.643509 147.03006 139.034058 147.03006 138.43985 147.03006 C 138.592209 146.725342 138.744583 146.26828 139.049286 145.811188"/><path id="path3430" fill="#92342f" stroke="none" d="M 136.657242 147.151947 C 138.653152 147.609039 138.43985 148.066132 138.378906 149.163116 C 137.76947 149.163116 137.160034 149.163116 136.520111 149.163116 C 136.063034 148.401306 135.910675 147.639526 136.520111 147.045319"/><path id="path3432" fill="#92342f" stroke="none" d="M 133.229141 150.94574 C 134.859406 151.555176 134.143311 152.012238 133.838593 152.895935 C 133.838593 153.505371 133.686218 154.267151 133.533875 154.937531 C 132.314987 157.0401 126.982407 159.858765 124.285629 161.702332 C 122.762024 162.616486 122.640152 164.749512 119.897675 165.069458 C 119.440598 165.069458 119.135864 165.221832 119.135864 164.917114 C 118.983505 164.917114 118.831161 164.901886 118.678787 164.901886 C 118.831161 163.119263 119.897675 160.468201 121.375565 159.066498 C 122.13736 158.609406 122.89917 158.152344 123.645721 157.847595 C 124.407532 157.085815 124.407532 156.065002 125.580688 155.409851 C 127.104294 154.648041 129.389679 154.648041 130.440964 153.581543 C 130.745682 153.124451 131.202759 151.372345 131.964554 151.402802 C 132.421646 151.402802 132.878723 151.098083 133.3358 151.098083"/><path id="path3434" fill="#92342f" stroke="none" d="M 118.054108 166.501648 C 118.968277 166.806366 119.577713 167.111084 119.272995 167.72052 C 118.206467 169.24411 117.277084 170.600128 116.2715 172.017059 C 115.662064 173.235962 114.900269 174.561493 114.321304 175.841309 C 113.40715 177.060181 108.592575 180.97583 105.667267 180.777771 C 105.819626 179.223694 107.282272 178.416199 107.983139 177.136383 C 108.287857 176.374573 108.440216 175.612762 108.744934 174.881439 C 109.506729 173.510193 110.938904 172.458923 111.990189 171.209564 C 112.59964 170.447784 113.056702 169.655487 113.620453 168.86322 C 115.144043 168.10144 116.621933 167.278687 118.099823 166.471161"/><path id="path3436" fill="#92342f" stroke="none" d="M 91.238792 171.148621 C 91.238792 171.148621 91.238792 171.300995 91.238792 171.453339 C 91.238792 171.453339 91.238792 171.300995 91.238792 171.148621"/><path id="path3438" fill="#92342f" stroke="none" d="M 86.576591 179.589355 C 85.357712 179.589355 80.192711 179.589355 80.147003 180.046448 C 80.147003 180.351166 80.147003 180.808228 80.147003 181.26532 C 80.60408 182.926056 82.264809 183.002197 84.336891 183.977325 C 85.555779 184.586761 86.165215 185.500916 88.008766 185.561859 C 89.075287 185.257141 89.958969 185.561859 91.223557 185.546631 C 91.223557 185.546631 91.223557 185.394257 91.238792 185.394257 C 92.000595 185.241913 92.960457 185.089539 93.295654 184.632477 C 93.90509 183.718292 90.172279 180.914886 88.892456 180.21402 C 88.28302 179.909302 87.368858 179.756958 86.576591 179.604584"/><path id="path3440" fill="#92342f" stroke="none" d="M 71.06636 193.240784 C 69.542763 193.697876 67.51638 194.154938 68.064873 195.495728 C 68.521957 196.409866 73.885017 197.247849 75.256256 196.7146 C 77.953026 195.648071 72.209053 193.621704 71.06636 193.225555"/><path id="path3442" fill="#92342f" stroke="none" d="M 67.424965 200.081741 C 66.96788 200.843552 66.510803 202.04718 65.535706 202.641388 C 64.164459 203.403198 60.385941 202.946106 60.294518 204.332581 C 59.989799 204.789658 63.814041 206.724625 63.737854 207.867325 C 62.214264 207.867325 60.568771 207.562607 59.456543 208.019684 C 57.552048 208.62912 54.108719 213.397995 54.596275 214.769226 C 54.748627 215.378662 55.967506 215.988098 56.957848 216.292831 C 57.872002 216.44519 58.786163 216.292831 59.517494 216.140457 C 60.584007 215.835754 62.351379 215.531021 63.113182 214.921585 C 64.332062 214.007431 64.63678 209.10144 67.744919 209.299515 C 67.440201 208.080643 68.506714 207.486435 68.963799 206.511322 C 69.877953 204.728729 70.715927 201.117783 67.394485 200.081741"/><path id="path3444" fill="#92342f" stroke="none" d="M 83.696983 203.007065 C 83.696983 203.007065 83.696983 203.159409 83.681755 203.159409 C 83.681755 203.159409 83.696983 203.159409 83.696983 203.007065"/><path id="path3446" fill="#92342f" stroke="none" d="M 78.577698 204.561111 C 77.663544 205.170563 76.246597 205.018204 75.591446 205.62764 C 73.473648 207.53215 73.945961 211.097366 79.507088 211.463013 C 84.382607 209.482346 83.727455 206.755096 78.592934 204.545883"/><path id="path3448" fill="#92342f" stroke="none" d="M 53.758286 206.511322 C 53.758286 206.511322 53.74305 206.663696 53.74305 206.663696 C 53.133614 206.663696 52.828896 206.511322 52.828896 206.816055 C 53.133614 206.816055 53.438332 206.816055 53.74305 206.816055 C 53.74305 206.816055 53.74305 206.663696 53.74305 206.511322 C 54.352493 206.511322 54.200134 206.511322 54.200134 206.358963 C 54.047775 206.358963 53.895416 206.343735 53.74305 206.358963"/><path id="path3450" fill="#92342f" stroke="none" d="M 68.643845 216.673721 C 66.754578 221.59494 61.239159 217.892593 56.409355 219.172424 C 51.107231 220.543671 50.299728 223.149017 49.050369 226.013367 C 48.898018 226.470459 48.593292 226.927536 48.440933 227.384613 C 48.136215 227.841705 46.917336 227.994049 46.917336 228.298782 C 47.222054 228.298782 47.831497 228.755859 47.831497 228.298782 C 47.983856 228.298782 48.136215 228.298782 48.288574 228.298782 C 50.223541 227.841705 55.586609 227.841705 56.714073 227.079895 C 57.475868 226.622833 56.714073 225.449646 56.714073 224.779266 C 56.561707 221.564468 57.475868 219.416199 64.271111 219.858047 C 64.423477 221.229294 66.099426 224.261246 69.58847 223.011887 C 71.462494 222.402451 69.58847 220.817917 70.197906 219.797089 C 70.350273 219.492386 70.959709 218.578217 71.721504 218.730576 C 70.959709 217.816437 69.99984 217.359344 68.643845 216.64325"/><path id="path3452" fill="#92342f" stroke="none" d="M 56.409355 236.419556 C 53.804001 237.973633 55.952271 239.588638 55.952271 241.584549 C 55.647552 242.346344 55.342834 242.955795 55.038109 243.656631 C 55.190475 243.656631 55.342834 243.656631 55.495193 243.656631 C 55.495193 243.656631 55.495193 243.504288 55.495193 243.351929 C 57.750114 243.047195 60.020279 241.76738 59.715561 240.380905 C 59.106117 239.314377 58.496681 238.369766 57.872002 237.348953 C 57.872002 237.04422 57.414925 236.587143 58.17672 236.739502 C 57.567284 236.739502 56.957848 236.434784 56.36364 236.434784"/><path id="path3454" fill="#92342f" stroke="none" d="M 36.572105 239.177261 C 36.419746 239.32962 35.657944 239.786697 36.572105 239.939072 C 36.572105 239.939072 36.572105 239.786697 36.572105 239.634338 C 37.02919 239.634338 37.486267 239.634338 37.486267 239.177261 C 37.181549 239.177261 36.876831 239.177261 36.572105 239.177261"/><path id="path3456" fill="#92342f" stroke="none" d="M 51.396713 243.184326 C 51.396713 243.184326 51.396713 243.336685 51.396713 243.489044 C 52.006157 243.489044 52.767952 243.641403 52.767952 244.098495 C 53.377388 244.098495 53.225029 244.098495 53.225029 243.946121 C 53.377388 243.946121 53.529747 243.961365 53.682114 243.946121 C 53.682114 243.946121 53.682114 243.793777 53.682114 243.641403 C 53.377388 243.62616 53.07267 243.641403 52.767952 243.641403 C 52.310875 243.641403 51.85379 243.489044 51.396713 243.336685"/><path id="path3458" fill="#92342f" stroke="none" d="M 32.04702 245.48497 C 32.04702 245.48497 32.04702 245.637329 32.031784 245.789688 C 32.031784 245.789688 32.031784 245.637329 32.04702 245.48497"/><path id="path3460" fill="#92342f" stroke="none" d="M 42.803619 249.004456 C 40.061142 249.613907 36.40451 249.613907 37.547211 251.990723 C 37.851929 252.600159 38.309006 253.20961 39.238403 253.697144 C 40.960068 254.458939 43.931084 254.763672 45.911758 255.44928 C 47.435356 255.906372 49.141785 257.44519 50.939636 257.55188 C 51.396713 256.485352 53.453568 253.422913 50.177841 252.828705 C 48.334282 252.523987 46.597382 252.828705 45.149963 252.066895 C 43.53495 251.15274 44.083443 249.979584 42.788391 249.004456"/><path id="path3462" fill="#92342f" stroke="none" d="M 34.134354 255.769241 C 32.610756 256.226318 31.17857 256.683411 29.883514 257.323334 C 27.049622 258.846924 31.589943 259.791534 31.498524 261.269409 C 31.650887 261.269409 31.803246 261.269409 31.955608 261.269409 C 32.717407 258.953552 34.530487 260.202911 37.181549 259.227844 C 39.817368 258.31366 35.81031 256.317749 34.14959 255.738785"/><path id="path3464" fill="#92342f" stroke="none" d="M 47.130638 259.913452 C 46.82592 260.370483 47.130638 262.076904 47.130638 261.787476 C 47.283005 261.787476 47.435356 261.787476 47.587723 261.787476 C 47.587723 261.025665 47.740074 260.568573 47.283005 259.882965"/><path id="path3466" fill="#92342f" stroke="none" d="M 33.022125 265.855469 C 32.565048 266.007813 32.565048 265.855469 32.565048 266.312531 C 33.022125 266.312531 33.479202 266.312531 33.479202 265.855469 C 33.326843 265.855469 33.174484 265.855469 33.022125 265.855469"/><path id="path3468" fill="#92342f" stroke="none" d="M 25.617439 267.257141 C 25.007999 268.99408 22.5093 274.296204 28.329441 274.524719 C 30.7672 274.524719 33.799156 271.309937 34.058167 270.152008 C 34.058167 269.84729 33.905807 269.694916 34.66761 269.694916 C 34.66761 269.694916 34.682846 269.542603 34.682846 269.542603 C 31.300457 269.08551 28.679871 268.018982 25.678383 267.302856"/><path id="path3470" fill="#92342f" stroke="none" d="M 22.692131 277.465271 C 21.320892 279.126007 19.309746 281.152405 19.29451 283.133057 C 19.29451 284.199585 20.665745 284.976624 20.361027 286.027893 C 20.056309 286.942047 18.989788 287.094421 18.487003 287.901917 C 18.334644 288.663727 18.182285 289.425507 18.029922 290.126404 C 17.420486 290.888184 16.811043 291.802307 16.125427 292.625061 C 15.363625 294.758118 18.547947 297.256805 22.829254 297.531067 C 23.743416 296.769257 24.520447 296.007446 25.373665 295.367554 C 26.13546 294.910461 26.897263 294.453369 27.613354 293.996338 C 28.679871 292.625061 29.136948 288.313293 27.613354 287.01825 C 26.394474 285.951721 23.591057 285.951721 23.682468 284.641418 C 26.211643 284.184326 29.258839 280.055389 27.613354 278.729858 C 26.699196 277.968079 24.352856 277.66333 22.78355 277.510986"/><path id="path3472" fill="#92342f" stroke="none" d="M 42.285599 285.327026 C 42.285599 285.479401 42.285599 285.784119 42.285599 286.088837 C 42.285599 285.784119 42.285599 285.631775 42.285599 285.327026"/></svg>