<svg viewBox="0 0 61 60" xmlns="http://www.w3.org/2000/svg"><g id="g144"><path id="path146" fill="#d70010" stroke="none" d="M 36.505337 18.201355 L 36.505337 54.430687 C 38.281338 53.994686 39.978672 53.374687 41.590672 52.592018 L 41.590672 11.130688 C 41.054672 11.373356 39.989338 11.870686 39.14534 12.541355 C 37.406673 13.932022 36.505337 15.690689 36.505337 18.201355"/></g><g id="g148"><path id="path150" fill="#d70010" stroke="none" d="M 21.645332 12.541321 C 20.803999 11.870655 19.735998 11.373322 19.202665 11.130657 L 19.202665 52.591988 C 20.811998 53.377323 22.511999 53.997322 24.283998 54.434654 L 24.283998 18.201321 C 24.283998 15.690655 23.385332 13.931988 21.645332 12.541321"/></g><g id="g152"><path id="path154" fill="#d70010" stroke="none" d="M 40.517345 6.14402 C 37.410679 4.797352 33.989346 4.052017 30.389345 4.052017 C 26.809345 4.052017 23.400011 4.792019 20.306679 6.122684 C 19.826679 6.373352 19.173346 6.849354 19.173346 7.606686 C 19.173346 8.958687 21.050678 8.677353 23.400011 10.546684 C 25.572012 12.278687 26.702679 14.716019 26.702679 17.448017 L 26.702679 54.898689 C 27.908012 55.073349 29.140011 55.166683 30.389345 55.166683 C 31.645346 55.166683 32.878677 55.073349 34.085346 54.898689 L 34.085346 17.448017 C 34.085346 14.716019 35.212013 12.278687 37.386677 10.546684 C 39.733345 8.677353 41.613346 8.958687 41.613346 7.606686 C 41.613346 6.870686 40.993343 6.396019 40.517345 6.14402"/></g><g id="g156"><path id="path158" fill="#d70010" stroke="none" d="M 30.390667 -0.28133 C 13.882668 -0.28133 0.500002 13.101337 0.500002 29.609337 C 0.500002 46.117336 13.882668 59.5 30.390667 59.5 C 46.898666 59.5 60.281334 46.117336 60.281334 29.609337 C 60.281334 13.101337 46.898666 -0.28133 30.390667 -0.28133 M 30.390667 57.024002 C 15.250669 57.024002 2.974667 44.750668 2.974667 29.609337 C 2.974667 14.472004 15.250669 2.198669 30.390667 2.198669 C 45.533333 2.198669 57.799999 14.472004 57.799999 29.609337 C 57.799999 44.750668 45.533333 57.024002 30.390667 57.024002"/></g><g id="g160"><path id="path162" fill="#d70010" stroke="none" d="M 4.830667 29.609329 C 4.830667 38.693329 9.570667 46.661327 16.705334 51.201328 L 16.705334 31.622662 C 13.794667 31.698662 12.729334 33.458664 12.401334 34.143997 C 12.137334 34.706665 11.966667 35.299995 11.461334 35.299995 C 10.617334 35.299995 9.929334 32.85733 9.929334 29.849329 C 9.929334 26.835995 10.617334 24.398663 11.461334 24.398663 C 11.966667 24.398663 12.137334 24.986664 12.401334 25.549328 C 12.729334 26.231995 13.794667 27.99733 16.705334 28.070663 L 16.705334 8.026661 C 9.570667 12.557331 4.830667 20.529331 4.830667 29.609329"/></g><g id="g164"><path id="path166" fill="#d70010" stroke="none" d="M 51.77066 34.144005 C 51.507996 34.706673 51.333328 35.29734 50.830662 35.29734 C 49.981327 35.29734 49.301327 32.857338 49.301327 29.84934 C 49.301327 26.836006 49.981327 24.398674 50.830662 24.398674 C 51.333328 24.398674 51.507996 24.986671 51.77066 25.549339 C 52.09066 26.22134 53.122662 27.922672 55.898663 28.06534 C 55.395996 19.636005 50.803993 12.302673 44.082661 8.032005 L 44.082661 51.19334 C 50.67733 46.997341 55.221329 39.865341 55.866661 31.630672 C 53.111996 31.78134 52.09066 33.477341 51.77066 34.144005"/></g></svg>