<svg viewBox="0.404 0.811 160.908 160.377" xmlns="http://www.w3.org/2000/svg"><path id="path38" fill="#0086ff" stroke="none" d="M 0.403555 0.811325 L 0.403555 54.356316 L 23.618626 54.356316 L 23.35062 54.093582 L 23.35062 23.758469 L 53.953743 23.758469 L 53.953743 0.81134 Z M 107.761383 0.811325 L 107.761383 23.758438 L 138.364502 23.758438 L 138.364502 54.356316 L 161.311569 54.356316 L 161.311569 0.811325 Z M 0.403555 107.643692 L 0.403555 161.188675 L 53.953743 161.188675 L 53.953743 138.241562 L 23.35062 138.241562 L 23.35062 107.643692 Z M 161.311569 107.643692 L 138.364502 107.906425 L 138.364502 138.241547 L 107.761383 138.241547 L 107.761383 161.18866 L 161.311569 161.18866 Z"/><path id="path46" fill="#93eaff" stroke="none" d="M 53.953743 0.811325 L 53.953743 23.758438 L 84.55159 54.356316 L 104.598091 54.356316 L 74.000244 23.758438 L 107.498657 23.758438 L 107.498657 0.811325 Z M 0.403555 54.356316 L 0.403555 107.643692 L 23.35062 107.643692 L 23.35062 74.40284 L 53.953743 105.005859 L 53.953743 84.691429 L 23.618626 54.356316 Z M 138.364502 54.356316 L 138.364502 87.592026 L 133.088837 82.316345 L 107.761383 56.994148 L 107.761383 77.308578 L 122.800209 92.342178 L 138.096497 107.643692 L 161.311569 107.643692 L 161.311569 54.356316 Z M 57.117039 107.643692 L 82.439209 132.965897 L 87.452156 138.241562 L 53.953743 138.241562 L 53.953743 161.188675 L 107.761383 161.188675 L 107.761383 137.978806 L 92.465096 122.940048 L 77.163536 107.643692 Z"/></svg>