<svg viewBox="0 0 148 115" xmlns="http://www.w3.org/2000/svg"><linearGradient id="linearGradient1" x1="0" y1="73.4834" x2="39.3755" y2="73.4834" gradientUnits="userSpaceOnUse"><stop offset="1e-05" stop-color="#f6c43d" stop-opacity="1"/><stop offset="1" stop-color="#fcd975" stop-opacity="1"/></linearGradient><path id="Path" fill="url(#linearGradient1)" stroke="none" d="M 30.299999 32.099998 L 9 32.099998 C 4 32.099998 0 36.199997 0 41.099998 L 0 105.800003 C 0 110.800003 4.1 114.800003 9 114.800003 L 30.299999 114.800003 C 35.299999 114.800003 39.299999 110.700005 39.299999 105.800003 L 39.299999 41.099998 C 39.400002 36.099998 35.299999 32.099998 30.299999 32.099998 Z"/><linearGradient id="linearGradient2" x1="54.2526" y1="57.1461" x2="93.6282" y2="57.1461" gradientUnits="userSpaceOnUse"><stop offset="1e-05" stop-color="#1480c4" stop-opacity="1"/><stop offset="1" stop-color="#1c99d4" stop-opacity="1"/></linearGradient><path id="path1" fill="url(#linearGradient2)" stroke="none" d="M 84.599998 -0.599998 L 63.299999 -0.599998 C 58.299999 -0.599998 54.299999 3.5 54.299999 8.400002 L 54.299999 105.800003 C 54.299999 110.800003 58.400002 114.800003 63.299999 114.800003 L 84.599998 114.800003 C 89.599998 114.800003 93.599998 110.700005 93.599998 105.800003 L 93.599998 8.400002 C 93.599998 3.5 89.599998 -0.599998 84.599998 -0.599998 Z"/><linearGradient id="linearGradient3" x1="108.3683" y1="79.6827" x2="147.7438" y2="79.6827" gradientUnits="userSpaceOnUse"><stop offset="1e-05" stop-color="#b11e26" stop-opacity="1"/><stop offset="1" stop-color="#c21c24" stop-opacity="1"/></linearGradient><path id="path2" fill="url(#linearGradient3)" stroke="none" d="M 138.699997 44.5 L 117.400002 44.5 C 112.400002 44.5 108.400002 48.599998 108.400002 53.5 L 108.400002 105.800003 C 108.400002 110.800003 112.5 114.800003 117.400002 114.800003 L 138.699997 114.800003 C 143.699997 114.800003 147.699997 110.700005 147.699997 105.800003 L 147.699997 53.5 C 147.699997 48.5 143.699997 44.5 138.699997 44.5 Z"/></svg>