<svg version="1.2" xmlns="http://www.w3.org/2000/svg" viewBox="0 -0.028 1545.2 1632.739"><path d="m0 816.7c0-452.8 370.7-816.7 834-816.7 282.5-2.3 547.7 138.6 704.4 373.7l-347.3 201.9c-19.6-28.6-42.9-55-69.3-77.6-26.4-23.3-55.7-42.9-86.6-58.7-30.9-16.6-63.3-28.7-97.2-37-34.7-8.2-69.3-12-104-12-238.1 0-433.2 198.1-433.2 426.4 0 228.3 195.1 426.5 433.2 426.5 36.2 0 73.1-4.5 108.5-12.8q52.7-13.6 101.7-40.7c31.7-17.3 61-39.2 88.2-64 26.3-24.9 49.7-53.5 68.5-84.4l344.3 204.9c-155.2 241.9-424.1 388-711.2 386.5-463.3 0.8-834-369.9-834-816z" fill="#0056d2"/></svg>