<svg
   width="19.355"
   height="20.84"
   viewBox="43.747 0 19.355 20.84"
   fill="none"
   xmlns="http://www.w3.org/2000/svg">
  <path
     d="m 62.064999,8.591 -8.631,4.859 L 44.192,8.258 43.747,8.498 v 3.77 l 9.686999,5.431 8.63,-4.84 v 1.995 l -8.63,4.86 -9.241999,-5.192 -0.445,0.24 v 0.646 l 9.686999,5.432 9.668,-5.432 v -3.769 l -0.445,-0.24 -9.223,5.173 L 44.784,11.732 V 9.736 l 8.649999,4.84 9.668,-5.43 V 5.43 l -0.482,-0.277 -9.186,5.155 -8.204999,-4.582 8.204999,-4.6 6.741,3.787 0.593,-0.332 V 4.119 L 53.433999,0 43.747,5.431 v 0.592 l 9.686999,5.432 8.63,-4.86 z"
     fill="#ee3d2c" />
</svg>
