<svg version="1.2" xmlns="http://www.w3.org/2000/svg" viewBox="0.39 0.635 1550.598 1566.983"><title>dbs_logo-svg</title><g id="Page-1"><g id="Group-3-Copy"><g id="logo/og/DBS-blk"><g id="Layer"><g id="Logomark"><path id="Fill-1" d="m258.3 261.3h1034.8v1045.7h-1034.8z" fill="#ffffff"/><path id="Layer" fill-rule="evenodd" d="m1514.6 1141.6c21.9 46.7 70.1 115.9-1 195.9-57.8 58.4-123.5 48.5-167.8 23 25.3 44.8 35 111.2-22.7 169.1-79.3 72.2-147.4 23.4-193.9 1.2-160.4-76.4-251.2-80.4-353.3-80.4-102.6 0-193.4 4-353.6 80.4-46.6 22.2-115.1 71-194.1-1.2-57.7-57.9-48-124.3-22.5-169.1-44.4 25.5-110.1 35.1-168-23-71.1-80-22.6-149.2-1.1-195.9 75.9-161.9 80.1-254.3 80.1-357.6 0-103-4.2-195.2-80.1-357.1-21.5-47.1-70-115.8 1.1-195.9 57.9-58.2 123.6-48.8 168-22.9-25.5-44.7-35.2-111.3 22.5-169.8 79-71.7 147.5-23 194.1-0.8 160.1 76.4 251 80.7 353.6 80.7 102.1 0 192.9-4.3 353.4-80.7 46.4-22.2 114.5-70.9 193.8 0.8 57.7 58.5 48.3 125.1 22.8 169.8 44.2-25.8 109.9-35.3 167.7 22.9 71.1 80.1 22.9 148.8 1 195.9-75.5 161.9-79.6 254.1-79.6 357v0.1c0 103.3 4.1 195.5 79.6 357.6zm-253.7 131.3l-315.6-379.3c0 0-49.2-51.2-49.2-109.6 0-57.7 49.2-109 49.2-109l315.6-379.4-1.6-1.7-375.5 318.6c0 0-50.9 50.3-107.9 50.3-57.7 0-108.5-50.3-108.5-50.3l-375.4-318.6-1.2 1.3 314.9 379.8c0 0 49.6 51.3 49.6 109 0 58.4-49.6 109.6-49.6 109.6l-314.9 379.4 1.2 1.1 375.4-318.2c0 0 50.8-50.1 108.5-50.1 57 0 107.9 50.1 107.9 50.1l375.5 318.2z" fill="#ff3333"/></g></g></g></g></g></svg>