<svg version="1.2" xmlns="http://www.w3.org/2000/svg" viewBox="0 0 1547 1549" width="1547" height="1549">
	<title>docu-svg</title>
	<style>
		.s0 { fill: #4c00ff } 
		.s1 { fill: #ff5252 } 
		.s2 { fill: #000000 } 
	</style>
	<g id="Layer">
		<path id="Layer" class="s0" d="m1113.4 1114.9v395.6c0 20.8-16.7 37.6-37.5 37.6h-1038.4c-20.7 0-37.5-16.8-37.5-37.6v-1039c0-20.7 16.8-37.5 37.5-37.5h394.3v643.4c0 20.7 16.8 37.5 37.5 37.5z"/>
		<path id="Layer" class="s1" d="m1546 557.1c0 332.4-193.9 557-432.6 557.8v-418.8c0-12-4.8-24-13.5-31.9l-217.1-217.4c-8.8-8.8-20-13.6-32-13.6h-418.2v-394.8c0-20.8 16.8-37.6 37.5-37.6h585.1c277.7-0.8 490.8 223 490.8 556.3z"/>
		<path id="Layer" class="s2" d="m1099.9 663.4c8.7 8.7 13.5 19.9 13.5 31.9v418.8h-643.3c-20.7 0-37.5-16.8-37.5-37.5v-643.4h418.2c12 0 24 4.8 32 13.6z"/>
	</g>
</svg>