<svg version="1.2" xmlns="http://www.w3.org/2000/svg" viewBox="0 0 1525 855" width="1525" height="855">
	<title>DoorDash_Logo-svg</title>
	<style>
		.s0 { fill: #ff3008 } 
	</style>
	<path id="Layer" class="s0" d="m1093.6 854.9h-238.6c-7.3 0-14.6-0.7-21.7-2.1-7.2-1.4-14.2-3.5-20.9-6.3-6.8-2.7-13.3-6.2-19.3-10.2-6.1-4-11.8-8.6-17-13.8l-236.5-234.8c-2.6-2.6-4.8-5.5-6.5-8.7-1.7-3.2-3-6.6-3.7-10.1-0.7-3.6-0.9-7.2-0.5-10.9 0.4-3.6 1.3-7.1 2.7-10.4 1.4-3.4 3.3-6.5 5.6-9.3 2.3-2.8 5.1-5.3 8.1-7.3 3.1-2 6.4-3.6 9.9-4.6 3.5-1.1 7.1-1.6 10.7-1.6h527.5c54.5-0.6 98.2-44.6 97.6-98.4-0.5-53.8-45.1-97-99.6-96.4h-765.1c-29.6 0-58-11.6-78.9-32.4l-236.4-234.7c-2.6-2.5-4.7-5.4-6.5-8.6-1.7-3.2-2.9-6.6-3.6-10.2-0.7-3.5-0.9-7.1-0.6-10.7 0.4-3.6 1.3-7.2 2.7-10.5 1.4-3.4 3.3-6.5 5.6-9.3 2.3-2.8 5-5.3 8.1-7.3 3-2 6.3-3.6 9.8-4.7 3.5-1 7.1-1.6 10.7-1.6h1085.3c143.4-0.5 275.3 77.3 342.7 202.3 173.4 325.1-61.3 652.6-371.6 652.6z"/>
</svg>