<svg viewBox="0.721 0.589 122.557 48.821" xmlns="http://www.w3.org/2000/svg"><linearGradient id="linearGradient1" x1="54.497045" y1="1.303785" x2="54.497045" y2="59.85017" gradientUnits="userSpaceOnUse"><stop offset="1e-05" stop-color="#0994dc" stop-opacity="1"/><stop offset="0.35" stop-color="#66cef5" stop-opacity="1"/><stop offset="0.35001" stop-color="#66cef5" stop-opacity="1"/><stop offset="0.846" stop-color="#127bca" stop-opacity="1"/><stop offset="0.84601" stop-color="#127bca" stop-opacity="1"/><stop offset="1" stop-color="#127bca" stop-opacity="1"/></linearGradient><path id="Path" fill="url(#linearGradient1)" stroke="none" d="M 43.287998 10.558998 C 47.705002 24.066002 49.377998 48.160004 62.293999 48.160004 C 63.276001 48.160004 64.271004 48.064003 65.267998 47.874001 C 53.528 45.137001 52.136002 21.305 44.971001 8.962006 C 44.400089 9.483788 43.838989 10.01622 43.287998 10.558998"/><linearGradient id="linearGradient2" x1="56.70134" y1="-0.104545" x2="56.70134" y2="59.780345" gradientUnits="userSpaceOnUse"><stop offset="1e-05" stop-color="#0e76bc" stop-opacity="1"/><stop offset="0.36" stop-color="#36aee8" stop-opacity="1"/><stop offset="0.36001" stop-color="#36aee8" stop-opacity="1"/><stop offset="0.846" stop-color="#00adef" stop-opacity="1"/><stop offset="0.84601" stop-color="#00adef" stop-opacity="1"/><stop offset="1" stop-color="#00adef" stop-opacity="1"/></linearGradient><path id="path1" fill="url(#linearGradient2)" stroke="none" d="M 44.971001 8.962006 C 52.136002 21.304001 53.528 45.136002 65.267998 47.874001 C 66.210258 47.696182 67.137352 47.44577 68.041 47.125 C 57.501999 41.960999 54.59 18.819 46.452999 7.678001 C 45.960334 8.088666 45.466334 8.516668 44.971001 8.962006"/><path id="path2" fill="#14559a" stroke="none" d="M 55.293999 1.623001 C 54.313999 1.623001 53.317001 1.719002 52.317001 1.908997 C 49.705002 2.402 47.049 3.527 44.373001 5.229996 C 45.103001 5.951996 45.799999 6.777 46.453999 7.678001 C 49.176998 5.418999 51.881001 3.75 54.574001 2.746002 C 55.557178 2.377533 56.570709 2.095787 57.603001 1.903999 C 56.847935 1.715103 56.07233 1.620712 55.293999 1.623001"/><linearGradient id="linearGradient3" x1="68.55167" y1="46.738492" x2="68.55167" y2="-0.910928" gradientUnits="userSpaceOnUse"><stop offset="1e-05" stop-color="#1c63b7" stop-opacity="1"/><stop offset="0.5" stop-color="#33bdf2" stop-opacity="1"/><stop offset="1" stop-color="#33bdf2" stop-opacity="0.42"/></linearGradient><path id="path3" fill="url(#linearGradient3)" stroke="none" d="M 76.267998 42.365997 C 77.390846 41.46936 78.471985 40.521698 79.508003 39.526001 C 75.019997 26.083 73.413002 1.643005 60.407001 1.643005 C 59.477001 1.643005 58.539001 1.729996 57.603001 1.903 C 69.449997 4.849998 70.968002 30.625 76.267998 42.365997"/><path id="path4" fill="#3092c4" stroke="none" d="M 57.604 1.903999 C 56.848328 1.7146 56.072044 1.619873 55.292999 1.622002 L 60.407001 1.640999 C 59.478001 1.640999 58.540001 1.727005 57.604 1.903999"/><path id="path5" fill="#1969bc" stroke="none" d="M 76.040001 45.221001 C 75.521713 44.721207 75.032257 44.192352 74.573997 43.637001 C 72.386002 45.185997 70.206001 46.361 68.041 47.125999 C 68.811996 47.501999 69.619003 47.781998 70.476997 47.955002 C 71.140999 48.091003 71.830002 48.161003 72.552002 48.161003 C 74.983002 48.161003 76.904999 47.873001 78.539001 47.088997 C 77.639 46.600998 76.813004 45.971001 76.040001 45.221001"/><linearGradient id="linearGradient4" x1="65.331425" y1="-6.3609" x2="65.331425" y2="55.974275" gradientUnits="userSpaceOnUse"><stop offset="1e-05" stop-color="#166ab8" stop-opacity="1"/><stop offset="0.4" stop-color="#36aee8" stop-opacity="1"/><stop offset="0.40001" stop-color="#36aee8" stop-opacity="1"/><stop offset="0.846" stop-color="#0798dd" stop-opacity="1"/><stop offset="0.84601" stop-color="#0798dd" stop-opacity="1"/><stop offset="1" stop-color="#0798dd" stop-opacity="1"/></linearGradient><path id="path6" fill="url(#linearGradient4)" stroke="none" d="M 54.573002 2.748001 C 65.183998 8.298004 66.107002 33.431999 74.573997 43.637001 C 75.140668 43.237002 75.704336 42.813334 76.264999 42.365997 C 70.964996 30.625 69.449997 4.847 57.605 1.903 C 56.595 2.090998 55.584334 2.372665 54.573002 2.748001"/><linearGradient id="linearGradient5" x1="60.738776" y1="-5.8742" x2="60.738776" y2="60.411248" gradientUnits="userSpaceOnUse"><stop offset="1e-05" stop-color="#124379" stop-opacity="1"/><stop offset="0.39" stop-color="#1487cb" stop-opacity="1"/><stop offset="0.39001" stop-color="#1487cb" stop-opacity="1"/><stop offset="0.78" stop-color="#165197" stop-opacity="1"/><stop offset="0.78001" stop-color="#165197" stop-opacity="1"/><stop offset="1" stop-color="#165197" stop-opacity="1"/></linearGradient><path id="path7" fill="url(#linearGradient5)" stroke="none" d="M 46.452999 7.678001 C 54.59 18.819 57.501999 41.961998 68.041 47.125999 C 70.207001 46.361 72.387001 45.186996 74.573997 43.637001 C 66.107002 33.431999 65.183998 8.298996 54.573002 2.748001 C 51.880001 3.75 49.175999 5.418999 46.452999 7.678001"/><linearGradient id="linearGradient6" x1="33.428252" y1="13.69604" x2="42.784298" y2="13.69604" gradientUnits="userSpaceOnUse"><stop offset="1e-05" stop-color="#33bdf2" stop-opacity="0.698"/><stop offset="1" stop-color="#1dacd8" stop-opacity="1"/></linearGradient><path id="path8" fill="url(#linearGradient6)" stroke="none" d="M 38.083 10.234001 C 36.807999 13.117004 35.505001 16.908005 33.931 21.854996 C 37.062 17.442001 40.183998 13.640999 43.287998 10.559998 C 42.896023 9.332787 42.434612 8.128845 41.905998 6.953995 C 40.572716 7.976685 39.296471 9.071663 38.083 10.234001"/><path id="path9" fill="#2b74b1" stroke="none" d="M 43.036999 6.121002 C 42.662998 6.389 42.285999 6.662994 41.907001 6.953003 C 42.402 8.033005 42.860001 9.244995 43.286999 10.559998 C 43.839069 10.017982 44.40049 9.485565 44.971001 8.962997 C 44.400085 7.967529 43.753513 7.017395 43.036999 6.121002"/><path id="path10" fill="#125a9e" stroke="none" d="M 44.373001 5.229004 C 43.929001 5.511668 43.483334 5.808665 43.035999 6.119995 C 43.730999 6.974998 44.368999 7.93 44.972 8.964005 C 45.466667 8.515335 45.960667 8.086334 46.453999 7.677002 C 45.799999 6.777 45.104 5.951004 44.373001 5.229004"/><linearGradient id="linearGradient7" x1="104.27936" y1="45.499848" x2="104.27936" y2="-0.917172" gradientUnits="userSpaceOnUse"><stop offset="1e-05" stop-color="#136ab4" stop-opacity="1"/><stop offset="0.6" stop-color="#59caf5" stop-opacity="0.549"/><stop offset="1" stop-color="#59caf5" stop-opacity="0.235"/></linearGradient><path id="path11" fill="url(#linearGradient7)" stroke="none" d="M 116.750999 0.594002 C 110.75 23.737999 98.214996 42.328003 87.707001 47.014 L 87.685997 47.014 L 87.119003 47.257004 L 87.050003 47.283997 L 86.889 47.346001 L 86.817001 47.375999 L 86.554001 47.469002 L 86.445999 47.507004 L 86.315002 47.550003 L 86.189003 47.594002 L 86.077003 47.632004 L 85.852997 47.699997 L 85.757004 47.724998 L 85.606003 47.765999 L 85.502998 47.793999 L 85.337997 47.836998 L 85.137001 47.880997 C 85.612 48.056 86.107002 48.144997 86.639999 48.144997 C 96.605003 48.144997 106.653 30.287003 123.278 0.589005 L 116.75 0.589005 Z"/><linearGradient id="linearGradient8" x1="0.223778" y1="24.796502" x2="34.930388" y2="24.796502" gradientUnits="userSpaceOnUse"><stop offset="1e-05" stop-color="#05a1e6" stop-opacity="0.247"/><stop offset="1" stop-color="#05a1e6" stop-opacity="1"/></linearGradient><path id="path12" fill="url(#linearGradient8)" stroke="none" d="M 31.765999 2.563004 L 31.785 2.546997 L 31.807999 2.531998 L 31.820999 2.531998 L 31.981998 2.470001 L 32.014 2.453995 L 32.056 2.436996 L 32.229 2.375 L 32.237999 2.375 L 32.620998 2.240997 L 32.678001 2.225998 L 32.841999 2.177002 L 32.917 2.153 L 33.082001 2.104004 L 33.145 2.087006 L 33.693001 1.945 L 33.768002 1.928001 L 33.928001 1.897003 L 34.006001 1.873001 L 34.167 1.843002 L 34.205002 1.843002 L 34.537998 1.780998 L 34.604 1.780998 L 34.757999 1.753998 L 34.845001 1.738998 L 34.992001 1.716995 L 35.073002 1.701004 L 35.431 1.668999 C 35.078304 1.635345 34.724289 1.617325 34.369999 1.615005 C 23.146999 1.615005 7.685 22.436996 0.721 49.403 L 2.064 49.403 C 4.146129 45.681061 6.167068 41.925224 8.126 38.137001 C 13.005 19.037003 22.940001 6.011002 31.765999 2.559998"/><path id="path13" fill="#0d82ca" stroke="none" d="M 38.083 10.234001 C 39.29776 9.072769 40.573925 7.977539 41.905998 6.953003 C 41.634918 6.349709 41.330788 5.761818 40.994999 5.192001 C 39.969002 6.438004 39.030998 8.082001 38.083 10.234001"/><path id="path14" fill="#0d82ca" stroke="none" d="M 39.005001 2.720001 C 39.737999 3.334 40.395 4.18 40.994999 5.193001 C 41.183 4.961667 41.376334 4.745333 41.575001 4.543999 C 40.769001 3.78199 39.855202 3.142807 38.862999 2.647003 L 38.983002 2.703995 Z"/><linearGradient id="linearGradient9" x1="20.132465" y1="46.697285" x2="20.132465" y2="-0.830065" gradientUnits="userSpaceOnUse"><stop offset="1e-05" stop-color="#318ed5" stop-opacity="1"/><stop offset="1" stop-color="#38a7e4" stop-opacity="1"/></linearGradient><path id="path15" fill="url(#linearGradient9)" stroke="none" d="M 8.127 38.138 C 18.360001 18.418999 23.208 5.938995 31.766998 2.561005 C 22.941999 6.014999 13.005 19.040001 8.127 38.138"/><path id="path16" fill="#127bca" stroke="none" d="M 41.574001 4.543999 C 41.375 4.748001 41.185001 4.960999 40.993999 5.193001 C 41.316002 5.731003 41.615002 6.317001 41.907001 6.953003 C 42.285 6.662994 42.662998 6.389999 43.035999 6.121002 C 42.587025 5.561035 42.098434 5.034012 41.574001 4.543999"/><linearGradient id="linearGradient10" x1="22.6944" y1="46.95022" x2="22.6944" y2="0.63236" gradientUnits="userSpaceOnUse"><stop offset="1e-05" stop-color="#05a1e6" stop-opacity="1"/><stop offset="1" stop-color="#05a1e6" stop-opacity="0.549"/></linearGradient><path id="path17" fill="url(#linearGradient10)" stroke="none" d="M 12.773 49.315002 L 12.587 49.336998 L 12.552 49.336998 L 12.394 49.352997 L 12.368 49.352997 L 11.992 49.377998 L 11.953 49.377998 C 22.309 49.087997 27.044001 43.903 29.393 36.380997 C 31.178001 30.68 32.645 25.875999 33.93 21.846001 C 29.591999 27.952003 25.233999 35.230003 20.853001 43.385002 C 18.740999 47.315002 15.528 48.957001 12.773 49.306999"/><linearGradient id="linearGradient11" x1="25.5985" y1="49.3719" x2="25.5985" y2="10.2328" gradientUnits="userSpaceOnUse"><stop offset="1e-05" stop-color="#1959a6" stop-opacity="1"/><stop offset="0.5" stop-color="#05a1e6" stop-opacity="1"/><stop offset="0.50001" stop-color="#05a1e6" stop-opacity="1"/><stop offset="0.918" stop-color="#7ec5ea" stop-opacity="1"/><stop offset="1" stop-color="#7ec5ea" stop-opacity="1"/></linearGradient><path id="path18" fill="url(#linearGradient11)" stroke="none" d="M 12.773 49.310997 C 15.528 48.959999 18.740999 47.32 20.853001 43.388 C 25.233999 35.237 29.594 27.957001 33.928001 21.849998 C 35.505001 16.901001 36.806 13.112999 38.082001 10.229004 C 29.443001 18.451996 20.771 32.125 12.772 49.306"/><path id="path19" fill="#05a1e6" stroke="none" d="M 8.127 38.139 C 6.168056 41.927399 4.146781 45.683243 2.064 49.404999 L 5.968 49.404999 C 6.462211 45.61068 7.182829 41.849304 8.126 38.140999"/><linearGradient id="linearGradient12" x1="26.772716" y1="46.781029" x2="19.30892" y2="4.451737" gradientUnits="userSpaceOnUse"><stop offset="1e-05" stop-color="#165096" stop-opacity="1"/><stop offset="1" stop-color="#0d82ca" stop-opacity="1"/></linearGradient><path id="path20" fill="url(#linearGradient12)" stroke="none" d="M 35.073002 1.709 L 34.990002 1.724998 L 34.844002 1.746002 L 34.757999 1.761002 L 34.604 1.787994 L 34.537998 1.804001 L 34.205002 1.862 L 34.167 1.862 L 34.005001 1.893997 L 33.924 1.916 L 33.766998 1.946999 L 33.693001 1.964996 L 33.144001 2.106995 L 33.081001 2.125 L 32.915001 2.173996 L 32.84 2.195 L 32.676998 2.244003 L 32.617001 2.259995 L 32.236 2.393997 L 32.063 2.453995 L 31.991001 2.484001 L 31.830002 2.543999 L 31.776001 2.57 C 23.218 5.946999 18.370001 18.427002 8.137 38.146004 C 7.191476 41.853783 6.470829 45.615303 5.979 49.410004 L 6.526 49.410004 L 10.281 49.393997 L 12.004 49.393997 L 12.379 49.369003 L 12.403 49.369003 L 12.561 49.352997 L 12.598 49.352997 L 12.784 49.331001 C 20.784 32.149002 29.455999 18.477005 38.094002 10.253998 C 39.043999 8.102005 39.980999 6.458 41.005001 5.214005 C 40.404999 4.201004 39.749001 3.352997 39.016998 2.737999 L 38.995998 2.722 L 38.874001 2.662994 L 38.752998 2.602005 L 38.636002 2.544998 L 38.497002 2.487 L 38.389 2.440002 L 38.161999 2.345001 L 38.064999 2.308998 L 37.896 2.240997 L 37.805 2.210999 L 37.57 2.130005 L 37.550999 2.130005 L 37.278999 2.053001 L 37.217999 2.033997 L 36.988998 1.970001 L 36.936001 1.955002 C 36.747913 1.906441 36.558121 1.864746 36.367001 1.830002 L 36.307999 1.813995 L 36.061001 1.774002 L 36.012001 1.759003 L 35.720001 1.720001 L 35.668999 1.720001 L 35.443001 1.695 L 35.084999 1.727997"/><linearGradient id="linearGradient13" x1="96.013078" y1="22.769313" x2="96.013078" y2="0.648123" gradientUnits="userSpaceOnUse"><stop offset="1e-05" stop-color="#05a1e6" stop-opacity="1"/><stop offset="0.874" stop-color="#0495d6" stop-opacity="1"/><stop offset="1" stop-color="#0495d6" stop-opacity="1"/></linearGradient><path id="path21" fill="url(#linearGradient13)" stroke="none" d="M 93.310997 13.406998 C 91.341003 19.714005 89.748001 24.917 88.359001 29.197998 C 93.762001 21.763 99.084 12.410995 104.151001 1.619003 C 98.237999 3.475998 95.085999 7.725998 93.310997 13.406998"/><linearGradient id="linearGradient14" x1="106.794946" y1="-1.310083" x2="97.80048" y2="49.700073" gradientUnits="userSpaceOnUse"><stop offset="1e-05" stop-color="#38a7e4" stop-opacity="0.329"/><stop offset="0.962" stop-color="#0e88d3" stop-opacity="1"/><stop offset="0.96201" stop-color="#0e88d3" stop-opacity="1"/><stop offset="1" stop-color="#0e88d3" stop-opacity="1"/></linearGradient><path id="path22" fill="url(#linearGradient14)" stroke="none" d="M 88.529999 46.621002 C 88.254997 46.761002 87.977997 46.893997 87.707001 47.014999 C 98.214996 42.328003 110.750999 23.737999 116.750999 0.594002 L 115.535004 0.594002 C 101.747002 25.224998 97.313004 41.713997 88.529999 46.621002"/><path id="path23" fill="#079ae1" stroke="none" d="M 81.667999 44.552002 C 83.955002 41.761002 85.816002 37.016998 88.359001 29.197998 C 85.426003 33.226997 82.473999 36.690002 79.518997 39.514 L 79.503998 39.539001 C 80.149002 41.470001 80.856003 43.175003 81.662003 44.551003"/><path id="path24" fill="#1969bc" stroke="none" d="M 81.667999 44.552002 C 80.889999 45.501999 80.065002 46.224998 79.149002 46.761002 C 78.949 46.878332 78.745667 46.98733 78.539001 47.087997 C 79.532776 47.627884 80.6213 47.971146 81.745003 48.098999 L 82.268997 48.144997 L 82.300003 48.144997 L 82.552002 48.161003 L 83.406998 48.161003 L 83.503998 48.144997 L 83.693001 48.128998 L 83.785004 48.128998 L 83.989998 48.107002 L 84.007004 48.107002 L 84.07 48.092003 L 84.289001 48.057999 L 84.352997 48.057999 L 84.598999 48.016998 L 84.639 48.016998 L 85.129997 47.913002 C 83.773003 47.417 82.638 46.246002 81.661003 44.579002"/><path id="path25" fill="#1e5cb3" stroke="none" d="M 62.294998 48.161003 C 63.277 48.161003 64.271004 48.065002 65.267998 47.873001 C 66.210754 47.69825 67.138039 47.448456 68.041 47.125999 C 68.811996 47.501999 69.620003 47.781998 70.475998 47.957001 C 71.138667 48.093002 71.831001 48.161336 72.553001 48.162003 L 62.294998 48.162003 Z M 72.553001 48.161003 C 74.982002 48.161003 76.905998 47.873001 78.539001 47.087997 C 79.5327 47.628227 80.621231 47.971832 81.745003 48.099998 L 82.268997 48.144997 L 82.300003 48.144997 L 82.552002 48.161003 L 82.853996 48.161003 Z"/><path id="path26" fill="#1d60b5" stroke="none" d="M 82.853996 48.161003 L 83.415001 48.161003 L 83.512001 48.144997 L 83.703003 48.128998 L 83.794998 48.128998 L 83.999001 48.107002 L 84.015999 48.107002 L 84.078003 48.091003 L 84.296997 48.057999 L 84.363998 48.042999 L 84.611 48.002998 L 84.650002 48.002998 L 85.140999 47.899002 C 85.615997 48.073997 86.111 48.163002 86.643997 48.163002 L 82.856003 48.179001 Z"/><path id="path27" fill="#175fab" stroke="none" d="M 79.511002 39.540001 L 79.511002 39.524002 C 78.474983 40.519699 77.393845 41.467361 76.271004 42.363998 C 75.718903 42.803726 75.154343 43.22757 74.578003 43.635002 C 75.054001 44.203003 75.537003 44.735001 76.045998 45.220001 C 76.818001 45.969002 77.642998 46.599998 78.543999 47.086998 C 78.749997 46.985664 78.952998 46.876666 79.153 46.760002 C 80.070999 46.223999 80.893997 45.5 81.672997 44.551003 C 80.866997 43.175003 80.160004 41.469002 79.515999 39.539001"/><linearGradient id="linearGradient15" x1="98.306268" y1="0.510558" x2="98.306268" y2="48.769938" gradientUnits="userSpaceOnUse"><stop offset="1e-05" stop-color="#168cd4" stop-opacity="1"/><stop offset="0.5" stop-color="#1c87cc" stop-opacity="1"/><stop offset="1" stop-color="#154b8d" stop-opacity="1"/></linearGradient><path id="path28" fill="url(#linearGradient15)" stroke="none" d="M 111.684998 0.594002 L 105.564003 0.594002 L 104.594002 0.640999 L 104.142998 1.606995 C 99.074997 12.400002 93.754997 21.751999 88.351997 29.186996 C 85.811996 37.004997 83.947998 41.75 81.662003 44.540001 C 82.639 46.208 83.776001 47.379997 85.127998 47.876999 L 85.234001 47.853996 L 85.255997 47.853996 L 85.331001 47.837997 L 85.500999 47.795998 L 85.601997 47.766998 L 85.752998 47.727997 L 85.847 47.700996 L 86.072998 47.633003 L 86.184998 47.595001 L 86.310997 47.549004 L 86.441002 47.508003 L 86.546997 47.468002 L 86.810997 47.375 L 86.884003 47.348 L 87.045998 47.285004 L 87.113998 47.260002 L 87.681999 47.016998 L 87.702003 47.016998 C 87.973 46.898003 88.249001 46.763 88.523003 46.623001 C 97.307999 41.714996 101.742996 25.226997 115.530998 0.597 L 111.68 0.597 Z"/><path id="path29" fill="#7dcbec" stroke="none" d="M 35.432999 1.677002 L 35.495998 1.693001 L 35.655998 1.709999 L 35.709999 1.709999 L 36.001999 1.748001 L 36.050999 1.764 L 36.297001 1.805 L 36.359001 1.82 L 36.925999 1.945999 L 36.978001 1.962006 L 37.206001 2.026001 L 37.269001 2.044998 L 37.540001 2.122002 L 37.561001 2.138 L 37.798 2.219002 L 37.888 2.248001 L 38.057999 2.317001 L 38.153999 2.350998 L 38.380001 2.445 L 38.490002 2.492004 L 38.625999 2.550995 L 38.745998 2.608002 L 38.865002 2.669998 C 39.844002 3.150002 40.743999 3.791 41.577999 4.568001 C 41.885334 4.246 42.206001 3.954666 42.540001 3.694 C 40.716999 2.401001 38.650002 1.664001 36.269001 1.664001 C 35.993 1.664001 35.716999 1.68 35.437 1.701004"/><path id="path30" fill="#5ec5ed" stroke="none" d="M 41.574001 4.543999 C 42.084999 5.018997 42.574001 5.548996 43.035999 6.121002 C 43.484001 5.809998 43.928001 5.509995 44.373001 5.229996 C 43.806011 4.658073 43.190727 4.136139 42.534 3.669998 C 42.201333 3.929998 41.881334 4.221331 41.574001 4.543999"/><g id="Group"><linearGradient id="linearGradient16" x1="33.036806" y1="-4.198075" x2="89.150411" y2="19.075927" gradientUnits="userSpaceOnUse"><stop offset="1e-05" stop-color="#97d6ee" stop-opacity="1"/><stop offset="0.703" stop-color="#55c1ea" stop-opacity="1"/><stop offset="1" stop-color="#55c1ea" stop-opacity="1"/></linearGradient><path id="path31" fill="url(#linearGradient16)" stroke="none" d="M 35.168152 1.741806 L 36.000652 1.706528 C 38.383541 1.706528 40.447849 2.44352 42.270599 3.73571 C 44.193794 2.216293 46.520607 1.686348 49.7514 1.686348 L 34.107655 1.686348 Z"/></g><g id="g1"><linearGradient id="linearGradient17" x1="48.292694" y1="8.972939" x2="92.612598" y2="-11.117472" gradientUnits="userSpaceOnUse"><stop offset="1e-05" stop-color="#7accec" stop-opacity="1"/><stop offset="1" stop-color="#3fb7ed" stop-opacity="1"/></linearGradient><path id="path32" fill="url(#linearGradient17)" stroke="none" d="M 49.7514 1.686348 C 46.520607 1.686348 44.198723 2.216293 42.270599 3.73571 C 42.909815 4.186673 43.522329 4.706652 44.108139 5.295647 C 46.788658 3.594444 49.438366 2.463699 52.053566 1.973969 C 53.05306 1.785507 54.044132 1.691277 55.026783 1.691277 L 49.7514 1.691277 Z"/></g><linearGradient id="linearGradient18" x1="91.721592" y1="3.134568" x2="91.721592" y2="50.337048" gradientUnits="userSpaceOnUse"><stop offset="1e-05" stop-color="#1da7e7" stop-opacity="1"/><stop offset="1" stop-color="#37abe7" stop-opacity="0"/></linearGradient><path id="path33" fill="url(#linearGradient18)" stroke="none" d="M 88.359001 29.202003 C 89.75 24.917999 91.338997 19.716995 93.313004 13.408005 C 95.089996 7.723999 98.237999 3.473999 104.148003 1.619995 L 104.603996 0.653999 C 94.968002 1.231003 90.463997 6.132996 88.198997 13.391998 C 84.235001 26.065002 81.834 34.279999 79.522003 39.514999 C 82.473999 36.692001 85.426003 33.226997 88.359001 29.202003"/></svg>