<svg version="1.2" xmlns="http://www.w3.org/2000/svg" viewBox="0 0.9 1528.8 1521.5"><title>elastsss-svg</title><g id="Layer"><path id="Layer" d="m1528.8 798.4c0-127.8-79.5-240.2-199.1-283.5 5.2-27.1 7.8-54.2 7.8-82 0-238.3-193.8-432-431.6-432-139.6 0-268.8 66.5-350.2 178.9-40.1-31-89.2-47.8-140.2-47.8-126.7 0-229.4 102.7-229.4 229.2 0 27.8 5.2 54.9 14.2 80.1-118.9 42.6-200.3 156.9-200.3 284.2 0 128.5 80.1 240.8 199.7 284.1-5.2 26.5-7.8 54.2-7.8 82 0 237.7 193.2 430.8 431 430.8 139.5 0 268.8-67.2 349.5-179.6 40.1 31.7 89.2 49.1 140.2 49.1 126.7 0 229.4-102.7 229.4-229.2 0-27.8-5.1-54.9-14.2-80.1 118.9-42.6 201-157 201-284.2z" fill="#ffffff"/><path id="Layer" d="m600.9 656.4l334.7 152.4 337.3-295.8c5.1-24.5 7.1-48.4 7.1-74.3 0-207.9-169.3-377.1-377.4-377.1-124.7 0-240.3 61.3-310.8 164l-56.2 291.3z" fill="#fed10a"/><path id="Layer" d="m254.6 1010.2c-5.2 24.6-7.1 49.8-7.1 75.6 0 208.6 169.9 377.8 378.6 377.8 125.4 0 242.3-62 312.7-165.3l55.6-290-74.3-142.1-336-153z" fill="#24bbb1"/><path id="Layer" d="m252.6 431.6l229.4 54.3 50.4-260.3c-31-23.9-69.8-36.8-109.8-36.8-99.5 0-181 80.7-181 180.8 0 21.3 3.9 42.7 11 62z" fill="#ef5098"/><path id="Layer" d="m232.6 486.5c-102.1 33.6-173.8 131.8-173.8 239.6 0 105.3 65.3 198.9 162.8 236.4l321.8-290.6-58.8-126z" fill="#1ba9f5"/><path id="Layer" d="m997 1298.3c31.7 23.9 69.8 37.4 109.2 37.4 99.5 0 180.9-80.7 180.9-180.8 0-22-3.9-43.3-11-62.6l-228.7-53.6z" fill="#93c83e"/><path id="Layer" d="m1043.5 978.6l252 58.8c102.7-33.6 173.8-131.8 173.8-240.3 0-104.6-65.3-198.9-162.8-235.7l-329.6 288.7z" fill="#0077cc"/></g></svg>