<svg version="1.1" id="Layer_1" xmlns="http://www.w3.org/2000/svg" xmlns:xlink="http://www.w3.org/1999/xlink" x="0px" y="0px" viewBox="-156.2 -86 216 223.6" xml:space="preserve" enable-background="new -156.3 -86 215.9 223.5"><g><g><g><path d="M-4.3-54.8c8.6,0,15.5-7,15.5-15.6C11.2-79,4.2-86-4.3-86s-15.5,7-15.5,15.6C-19.8-61.7-12.9-54.8-4.3-54.8z
				" fill="#003C71"/><path d="M-50.2,3.6c12.2,0,20.3-8,20.3-20.2c0-12.3-8.4-20.7-21-20.7c-11.5,0-19.6,8.2-19.6,21.2
				C-70.5-3.6-62.9,3.6-50.2,3.6z" fill="#003C71"/><path d="M-36.6,67.5l-27.5-1.4c-8.6,4.1-12.7,8-12.7,13.3c0,8.2,9.1,14,24.4,14c20.8,0,32.5-6.8,32.5-15.7
				C-19.8,70.7-25.3,68-36.6,67.5z" fill="#003C71"/><path d="M13.1-60.8C9.8-54.6,3.2-50.3-4.3-50.3c-10.9,0-19.9-8.9-19.9-20c0-2.3,0.4-4.6,1.2-6.7
				c-8.1-2-16.6-3-25.3-3c-59.6,0-107.9,48.7-107.9,108.8c0,60.1,48.4,108.8,108,108.8c59.6,0,108-48.7,108-108.8
				C59.7-8.4,41.2-41.1,13.1-60.8z M-51.9,114.5c-35.2,0-53.1-11.1-53.1-31.6c0-11.8,7-18.3,21.8-23.1
				c-11.2-5.5-16.5-10.6-16.5-19.3c0-8.9,6.5-17.6,18.7-23.9c-11.5-7-17.4-18.3-17.4-33c0-25.8,19.1-43.9,47.6-43.9
				c11.7,0,23.3,3.8,32.2,11.5C-12.7-43.6-8.1-37-5.5-29.6c1.7,5,2.3,10.4,2.3,15.7c0,24.3-17.7,40.2-46.9,40.2
				c-5.2,0-9.8-0.5-13.6-1.4c-5.5,2.2-8.1,5.1-8.1,8.4c0,8.4,11.5,7.7,33,9.4c32.3,2.4,45.9,8.7,45.9,32.8
				C7,100.3-13.3,114.5-51.9,114.5z" fill="#003C71"/></g></g></g></svg>