<svg version="1.2" xmlns="http://www.w3.org/2000/svg" viewBox="0.8 0 1548.1 1118"><path d="m1548.9 778c0 215.9-147.4 340-407.7 340-71.5 0-176.3-11.2-274.7-27v-422.3h76l31.9 99.9c71.5 230.2 122.3 306.3 212.6 306.3 95.3 0 163.7-84.1 163.7-195.2 0-90.4-42.8-153.9-134.9-203.3l-158.7-85.5c-122.3-65.2-189.2-166.8-189.2-290.5 0-187.5 154.1-300 406.4-300 57.1 0 124 4.5 230.2 18.9v344.5h-76.1l-42.7-131.8c-43.1-139.5-89-190.6-173.1-190.6-93.9 0-149.2 60.2-149.2 147.9 0 77.8 42.7 133.1 126.8 180.8l160.5 90.4c134.8 76.4 198.2 178.1 198.2 317.5z"/><path d="m445.4 546h328.6v538.4c-109.3 22-193.4 33.2-285.5 33.2-360.5 0-487.7-206.4-487.7-546 0-365.2 176.6-571.6 527.3-571.6 44.5 0 128.5 3.2 233.3 18.9v344.9h-76l-43.1-132.1c-41-125.2-90.4-187.2-168.2-187.2-134.9 0-206.3 182.6-206.3 524 0 342.7 28.7 504.6 204.6 504.6 23.8 0 52.5-3.1 79.5-10.8v-400.3l-106.5-73.2z"/></svg>