<svg viewBox="0 0 40.43 40.426" xmlns="http://www.w3.org/2000/svg"><path id="Path" fill="#000000" stroke="none" d="M 6.48 28.233999 C 9.25 32.960999 14.39 36.137001 20.254 36.120998 C 29.024 36.094002 36.140999 28.941 36.117001 20.167999 C 36.094002 11.395 28.937 4.278 20.164 4.300999 C 11.394 4.324001 4.277 11.484001 4.301 20.254 C 4.30594 21.30094 4.413116 22.344894 4.621 23.371 C 4.652 23.5 4.785 23.570999 4.911 23.539 L 7.125 22.989 C 7.187974 22.975151 7.242817 22.936743 7.277361 22.882298 C 7.311905 22.827854 7.323294 22.761875 7.309 22.698999 L 7.312 22.698999 C 7.15532 21.890694 7.07563 21.069351 7.074 20.246 C 7.054 13.004 12.93 7.094002 20.172001 7.074001 C 27.417999 7.054001 33.327999 12.934 33.344002 20.176001 C 33.367001 27.417999 27.488001 33.327999 20.246 33.348 C 15.449 33.359001 11.238 30.785 8.938 26.941 C 8.874006 26.823868 8.730271 26.776247 8.609 26.832001 L 6.582 27.902 C 6.462343 27.96567 6.416731 28.114132 6.48 28.233999"/><path id="path1" fill="#000000" stroke="none" d="M 28.582001 23.648001 L 30.601999 24.73 C 30.722 24.792999 30.882 24.757999 30.93 24.629 C 31.503159 23.260338 31.803122 21.792795 31.813 20.309 C 31.867001 13.91 26.702999 8.664001 20.305 8.609001 L 20.207001 8.609001 C 13.863 8.609001 8.66 13.769001 8.605 20.113001 C 8.555 26.511999 13.715 31.761999 20.113001 31.813 L 20.211 31.816 C 23.242001 31.816 26.007999 30.636 28.082001 28.715 C 28.184 28.625 28.202999 28.469 28.108999 28.367001 L 26.386999 26.813 C 26.285 26.723 26.132999 26.743 26.042999 26.827999 L 26.039 26.823999 C 24.433804 28.252707 22.359919 29.042334 20.211 29.042999 L 20.136999 29.042999 C 15.266 29 11.34 25.007999 11.379 20.136999 C 11.418 15.309 15.379 11.379 20.207001 11.379 L 20.285 11.379 C 25.152 11.422001 29.082001 15.417999 29.039 20.285 C 29.03071 21.320822 28.839087 22.346992 28.473 23.316 C 28.416937 23.438143 28.464447 23.582857 28.582001 23.648001"/><path id="path2" fill="#000000" stroke="none" d="M 31.895 3.727001 C 31.785 3.652 31.636999 3.672001 31.563 3.785 L 30.264999 5.66 C 30.190001 5.77 30.202 5.922001 30.312 6 C 34.751999 9.167999 37.659 14.355 37.654999 20.215 C 37.654999 29.832001 29.830999 37.652 20.214001 37.652 C 10.597 37.652 2.772 29.827999 2.772 20.207001 C 2.772 10.594 10.597 2.77 20.218 2.772999 C 22.250906 2.771358 24.268274 3.127106 26.177999 3.824001 C 26.302172 3.868355 26.439175 3.80648 26.488001 3.683998 L 27.304001 1.542999 C 27.348221 1.422131 27.289663 1.287842 27.171 1.237999 C 24.945244 0.416973 22.591354 -0.002205 20.219 0 C 9.07 -0.004002 0.004 9.063 0 20.209999 C 0 31.355 9.07 40.425999 20.215 40.425999 C 31.358999 40.425999 40.43 31.358999 40.43 20.215 C 40.43 13.415001 37.055 7.390999 31.895 3.727001"/></svg>