<svg viewBox="0.166 0.866 170.8 170.793" xmlns="http://www.w3.org/2000/svg"><path id="Path" fill="#aa4b38" stroke="none" d="M 170.966003 154.473007 C 170.966003 163.923004 163.231018 171.658997 153.765015 171.658997 L 17.366028 171.658997 C 7.916016 171.658997 0.166016 163.923996 0.166016 154.473007 L 0.166016 18.054993 C 0.166016 8.604996 7.916016 0.865997 17.366028 0.865997 L 153.763977 0.865997 C 163.22998 0.865997 170.965027 8.604996 170.965027 18.054993 L 170.965027 154.473007"/><path id="path1" fill="#ffffff" stroke="none" d="M 129.052002 23.983002 C 129.666992 24.087006 130.151978 24.233002 130.435974 24.690994 C 128.982971 24.722 128.72998 25.944 128.598999 26.643997 C 129.690979 27.740005 129.460022 29.25 129.021973 30.272995 C 128.622009 31.014999 127.538025 31.834 126.906982 32.134003 C 126.760986 32.488007 126.515015 32.925995 126.700012 33.306 C 128.260986 31.983994 129.622009 31.667999 130.935974 29.841995 C 132.250977 29.031006 133.458008 29.641998 134.549988 30.233994 C 135.249023 30.330002 135.695984 29.714996 136.802979 29.972992 C 138.440979 30.376007 138.71698 31.610992 138.648987 32.406998 C 137.734009 31.587997 136.31897 31.369003 135.642029 32.367996 C 135.510986 32.871002 135.596008 33.195007 135.310974 33.794006 C 134.981018 34.524002 133.989014 34.727997 133.619995 35.274002 C 134.382019 35.313004 134.882019 35.123993 135.642029 35.162994 C 136.687988 35.209 137.049011 35.597992 137.448975 36.100998 C 138.625977 35.666992 139.971008 35.897003 141.01001 36.792999 C 141.640015 37.265991 141.625 38.076996 141.617004 38.665009 C 141.185974 38.242004 140.924988 37.988007 140.455994 37.942001 C 139.447998 37.822998 138.625977 38.406998 138.356018 38.656998 C 138.05603 40.511002 137.586975 40.925995 136.234009 41.225006 C 135.427002 41.462997 134.427002 41.044006 133.458984 41.412994 C 132.612976 41.923996 132.028015 42.285995 131.875 43.193001 C 132.682983 43.720001 133.997009 43.328003 134.390015 44.247002 C 134.935974 45.438995 135.02002 46.572998 136.357971 46.673004 C 136.981018 46.714996 137.565002 46.768997 138.166016 45.958 C 138.203979 46.460999 138.203979 47.349998 137.895996 47.783997 C 137.580994 48.242004 137.304016 48.499001 136.72699 48.768005 C 136.434998 48.895004 136.004028 48.806999 135.536011 48.783997 C 134.981995 49.903 133.78302 50.990997 132.544983 50.990997 C 131.638 50.990997 131.198975 50.941002 129.393005 50.18 C 128.616028 49.848999 127.978027 51.083 127.554993 51.660004 C 125.585999 54.516998 123.494019 64.074997 123.348999 64.500999 C 121.895996 52.594002 113.513977 51.706001 113.513977 51.405998 C 114.713989 50.541 115.982971 49.848999 117.159973 48.964996 C 119.427979 46.897003 120.981018 43.675003 121.127014 41.091003 C 121.327026 37.93399 119.413025 34.563004 120.77301 31.667999 C 121.411987 30.322006 121.781006 29.203995 122.703979 27.839005 C 123.518005 27.085999 124.703003 26.447006 125.741028 26.290009 C 126.445007 24.975006 127.491028 24.005997 129.052002 23.983002 M 104.138977 94.403999 C 105.200989 95.310997 108.507019 97.686996 119.132996 101.917 C 118.210022 103.231003 118.372009 105.569 119.71698 106.730003 C 119.387024 107.653 119.463989 108.568001 119.870972 109.360001 C 120.21698 110.058998 121.200989 110.444 121.877991 110.382004 C 121.369995 109.928001 120.731995 108.828003 121.877991 107.697998 C 122.762024 108.005997 124.538025 107.782997 125.283997 106.775002 C 125.346008 107.452003 125.468994 107.790001 125.437988 108.466003 C 125.676025 109.588997 126.453003 110.665001 127.513 110.973 C 127.575989 111.457001 127.505981 111.819 127.536011 112.280998 C 127.413025 113.357002 126.94397 114.071999 125.906006 114.372002 C 127.151001 114.464996 128.213013 114.740997 129.218994 113.25 C 129.580017 112.834999 129.72699 111.558998 130.533997 111.896004 C 131.656006 111.973 132.55603 111.497002 133.078979 109.573997 C 133.525024 109.988998 133.671021 110.636002 134.117004 111.088997 C 135.002014 111.958 136.838989 112.434998 137.653992 111.834999 C 138.638 112.880997 137.861023 113.849998 137.653992 114.219002 C 138.531006 113.834 139.153015 113.689003 139.698975 112.235001 C 139.838013 111.558998 140.09198 110.897003 139.377014 109.844002 C 139.715027 108.728996 139.768982 107.637001 138.939026 106.459999 C 138.315979 105.553001 136.801025 105.299004 136.486023 104.084 C 136.817017 103.938004 137.393005 104.084 137.700989 103.869003 C 138.607971 103.438004 139.085022 102.577003 139.284973 101.57 C 140.900024 100.677002 141.684021 102.362 141.684021 102.362 C 142.091003 100.278 140.284973 99.232002 139.099976 99.269997 C 138.877014 98.347 138.638977 98.085999 138.093018 97.471001 C 136.893005 96.471001 135.302002 96.487 133.947998 96.763 C 132.971008 96.962997 131.901978 97.947998 130.710999 97.240997 C 128.63501 95.111 127.034973 95.134003 125.052002 95.111 C 124.137024 93.958 118.469971 89.736 115.786011 84.938004 C 113.950012 89.092003 112.320007 91.366997 104.138977 94.403999 Z M 96.757996 51.925995 C 97.810974 52.895004 99.471985 53.833 101.671021 54.675003 C 103.484985 55.360001 105.40802 55.770996 107.276001 56.147995 C 112.565979 57.244003 118.01001 58.416 121.646973 66.209999 C 121.286011 62.796005 120.031982 57.912994 116.809998 55.399002 C 112.528015 52.076996 108.275024 51.078003 102.117004 51.934998 L 101.809021 51.985001 C 100.786011 52.128998 98.625977 52.445 96.757996 51.925995 Z M 117.117981 80.325996 C 118.870972 78.25 120.340027 75.597 120.340027 72.452003 C 120.340027 70.864998 119.979004 69.153999 119.070984 67.349998 C 115.880981 60.994995 110.96698 59.815002 105.776001 58.565002 C 104.422974 58.242004 103.046997 57.903 101.685974 57.477005 C 101.062988 57.272995 100.294006 56.988998 99.487 56.597 C 101.478027 58.903999 103.776978 61.007004 106.046021 63.043999 C 111.666992 68.123001 116.987 72.932999 117.117981 80.325996 Z M 125.875977 138.662994 C 125.945007 138.317001 125.838013 137.779007 125.838013 137.401993 C 125.262024 135.242004 122.508972 135.563995 120.916992 135.326004 C 119.763977 134.779999 121.570007 134.679993 121.739014 134.033997 C 122.062012 133.518997 121.93103 132.742996 122.262024 132.259003 C 123.200012 131.673996 124.299011 132.473999 124.315002 133.326996 C 124.484009 132.404007 124.577026 131.442993 123.861023 130.720993 C 123.315002 130.151993 122.085999 129.966995 121.286011 130.259003 C 120.208984 129.451996 118.195007 128.983002 116.973022 129.276001 C 115.504028 129.630005 114.849976 130.421997 113.335022 130.421997 C 112.528015 130.421997 111.989014 129.276001 111.190002 129.014999 C 108.583008 127.837997 105.700012 129.569 103.692993 127.092003 C 102.523987 125.647003 103.838989 123.739998 104.192017 122.371002 C 109.244019 121.547997 113.104004 117.157997 113.104004 111.866997 C 113.104004 105.992996 108.343994 101.224998 102.461975 101.224998 C 102.439026 101.224998 102.393005 101.224998 102.346985 101.224998 C 100.632019 100.917 98.908997 100.910004 97.280029 100.978996 C 94.211975 101.101997 91.135986 99.586998 88.630005 97.473 C 84.585022 99.372002 80.526001 99.517998 76.080994 99.411003 C 76.289001 100.087997 75.619995 102.101997 75.02002 102.956001 C 75.328003 103.209999 75.596008 103.471001 75.880005 103.732002 C 78.755981 105.639 80.64801 108.899002 80.64801 112.605003 C 80.64801 112.928001 80.625 113.265999 80.60199 113.588997 C 81.940002 111.813004 84.062012 110.651001 86.468018 110.651001 C 90.513 110.651001 93.804016 113.958 93.804016 117.987 C 93.804016 120.324997 92.689026 122.431 90.981995 123.753998 C 90.791016 124.077003 90.567017 124.385002 90.335999 124.661003 C 90.005005 126.352997 92.080994 126.767998 92.981995 127.791 C 94.68103 129.391006 95.057983 131.873993 95.502991 134.033997 C 95.757019 135.195007 96.940979 134.656998 97.924988 134.626999 C 99.69397 134.595993 101.29303 135.710999 102.562012 137.210007 C 103.346008 138.132996 101.862976 139.348007 102.231995 140.602005 C 102.216003 141.363007 103.40802 141.647003 102.88501 142.438995 C 102.5 143.524002 102.515991 144.746994 103.47699 145.699997 C 103.947021 146.138 104.692017 146.315002 105.252991 146.145996 C 105.145996 145.960999 103.93103 144.531006 105.468018 143.130997 C 105.822021 142.807999 106.575012 142.554993 106.952026 143.069 C 108.098022 143.983994 110.619995 142.992004 111.189026 141.423004 C 111.458008 140.977005 111.133972 140.246002 111.549988 139.945999 C 112.018982 140.438004 112.395996 141.069 112.465027 141.792007 C 112.934021 143.630005 114.541016 144.628998 115.908997 144.684006 C 116.263 145.759995 115.515991 146.212997 114.940002 146.636002 C 115.377991 146.889999 115.947021 146.774994 116.486023 146.606003 C 117.59198 146.167999 118.416016 145.345001 118.43103 144.037994 C 120.176025 143.776001 120.752991 142.546997 120.76001 141.177994 C 121.744019 141.863007 123.005005 142.147003 124.143982 141.632004 C 124.890015 141.324005 125.088989 140.378006 125.711975 141.255005 C 126.096985 141.932007 126.02002 142.923004 125.442017 143.569 C 126.650024 143.162003 127.333984 142.130997 127.327026 140.824005 C 127.314026 139.748001 126.760986 139.209 125.875977 138.662994 Z M 91.474976 94.350998 C 88.760986 94.504997 85.078003 93.389999 85.078003 93.389999 C 85.078003 93.389999 88.546021 91.649002 89.984009 88.603996 C 85.494019 94.051003 75.728027 91.767998 73.690002 89.114998 C 76.849976 89.161003 82.249023 86.184998 79.210999 75.375 C 79.210999 75.375 74.135986 77.169998 71.244995 76.382004 C 72.528015 85.043999 66.015991 92.568001 57.166016 93.390999 C 56.63501 93.429001 50.698975 90.334 51.09198 84.248001 C 51.906006 71.911003 67.155029 63.249001 67.155029 47.871002 C 67.155029 37.559998 58.812012 29.197998 48.469971 29.197998 C 44.232971 29.197998 40.31897 30.628006 37.166016 33.046997 L 37.15802 33.046997 C 36.419983 33.615997 35.48999 33.962006 34.48999 33.962006 C 32.229004 33.962006 30.38501 32.227997 30.184021 30.024994 C 29.791016 30.785995 29.583984 31.647995 29.583984 32.550995 C 29.583984 34.826996 30.929993 36.779999 32.867004 37.653 C 26.607971 40.048996 22.140015 46.111 22.140015 53.220001 C 22.140015 57.809998 24.015991 61.973999 27.031006 64.991997 C 26.900024 64.126999 26.815002 63.235001 26.815002 62.339005 C 26.815002 59.244003 27.653015 56.360001 29.129028 53.880997 C 29.083008 54.984001 28.315002 60.550995 32.997009 63.557999 C 40.684998 68.540001 37.364014 72.588997 36.302979 75.598999 C 39.286011 74.391998 47.976013 64.369003 40.786011 57.598999 C 38.078979 55.022995 33.895996 55.488998 33.895996 48.252998 C 33.895996 45.624001 34.586975 43.158997 35.802002 41.033005 C 36.51001 43.324005 38.64801 44.977005 41.155029 44.977005 C 42.79303 44.977005 44.260986 44.277 45.299988 43.158997 C 44.799988 43.362999 44.245972 43.473999 43.692993 43.473999 C 41.294006 43.473999 39.348022 41.535995 39.348022 39.140991 C 39.348022 37.518005 40.255005 36.102997 41.570984 35.369995 C 43.655029 34.247009 46.031006 33.617004 48.544983 33.617004 C 56.627014 33.617004 63.185974 40.160004 63.185974 48.252998 C 63.185974 62.882004 45.739014 69.402 45.739014 87.233002 C 45.739014 93.491997 49.661011 98.829002 55.166992 100.919998 C 55.182007 100.928001 55.213013 100.935997 55.221008 100.935997 C 57.442993 101.612999 59.065979 103.672997 59.065979 106.111 C 59.065979 109.056 56.705017 111.440002 53.768005 111.477997 C 53.64502 111.500999 53.544006 111.500999 53.414001 111.500999 C 52.799011 111.500999 45.062988 110.132004 42.526001 109.393997 C 41.742004 109.302002 41.296021 108.771004 41.133972 109.902 C 40.994995 110.778 41.133972 111.477997 41.388 112.446999 C 42.263977 115.630997 43.309998 118.452003 44.187012 121.434998 C 46.223999 124.241997 44.309998 125.633003 44.741028 127.580002 C 44.741028 128.617004 45.702026 129.587006 46.03302 130.548004 C 44.294983 130.378998 42.164978 131.001007 41.47998 132.878006 C 41.065002 134.069 41.026978 134.776001 41.388 136.100006 C 36.534973 139.813995 40.549988 143.328003 40.919006 143.328003 C 40.434021 142.459 40.549988 141.214005 41.065002 140.636993 C 41.86499 139.699005 42.36499 141.029999 43.979004 140.783005 C 45.585999 140.475006 45.69397 140.251999 46.263 139.360001 C 46.624023 138.830002 46.669983 137.845001 46.669983 137.199997 C 48.469971 138.399002 47.185974 140.552002 47.546997 142.005997 C 47.776978 143.013 48.254028 143.865997 49.192993 144.542999 C 50.29303 145.335007 52.198975 144.326996 52.307007 146.410995 C 52.361023 147.279999 52.083008 147.903 51.344971 148.363998 C 52.797974 148.449005 53.945007 148.203003 54.658997 146.841995 C 54.913025 146.212006 55.08197 145.442993 54.851013 144.751007 C 56.242981 144.320007 56.473022 143.612 56.572998 142.873993 C 57.966003 143.173996 59.465027 143.343994 59.91803 142.328003 C 60.171997 141.313004 61.103027 141.904999 61.594971 141.959 C 62.578979 142.621002 62.594971 143.343994 62.403015 144.281006 C 63.69397 143.235001 63.880005 141.813004 63.424988 140.783005 C 63.018005 140.059998 62.471985 139.306 61.426025 139.106003 C 61.494995 138.014008 61.226013 137.061005 60.395996 136.360992 C 61.718018 135.876999 62.041992 134.307999 61.963989 133.324005 C 62.55603 133.100998 63.424988 133.294006 63.979004 134.307999 C 64.179016 133.162003 63.64801 132.139999 62.909973 131.393997 C 61.557007 130.110001 59.187988 130.770996 58.888977 130.809006 C 58.405029 129.695007 57.674011 128.878998 56.182983 128.541 C 55.276001 128.401993 54.044983 128.417999 53.307007 128.824997 C 53.145996 128.878998 53.184021 128.602005 53.244995 128.548996 C 53.945007 127.264999 54.705994 125.241997 54.952026 124.512001 C 55.174988 123.774002 57.705017 122.551003 58.273987 122.313004 C 58.849976 122.067001 61.442017 121.335999 62.741028 122.244003 C 64.041016 123.158997 66.309021 123.850998 68.362 123.850998 C 74.244019 123.850998 79.004028 119.083 79.004028 113.223999 C 79.004028 108.903 76.450989 105.189003 72.752991 103.521004 C 74.94397 102.136002 74.890991 99.306999 74.390991 97.738998 C 77.771973 97.918999 81.69397 99.426003 91.474976 94.350998 Z M 101.202026 44.479004 C 98.770996 44.764 97.419006 44.014 96.89502 43.691002 C 96.36499 43.360001 96.018982 42.787994 96.018982 42.091995 C 96.018982 41.061005 96.856995 40.227005 97.903015 40.227005 C 98.564026 40.227005 99.140015 40.565002 99.471008 41.091995 C 101.809021 40.496002 107.752014 37.350998 108.906006 41.007004 C 110.075012 39.777008 111.129028 38.807999 111.557983 37.365997 C 112.320007 33.951996 109.682007 33.540009 110.296997 31.460999 C 107.974976 28.966003 102.315979 33.705994 102.393005 28.477997 C 98.640991 25.268005 92.896973 26.485992 89.036987 28.363007 L 88.606018 30.416 C 88.606018 30.416 87.791992 27.936996 87.783997 27.936996 L 87.783997 27.914001 C 87.377014 26.684006 86.237976 25.787994 84.846008 25.787994 C 83.146973 25.787994 81.770996 27.171997 81.770996 28.875 C 81.770996 29.205994 81.833008 29.535995 81.916992 29.852005 L 82.51001 31.647003 L 82.387024 31.669998 C 78.65802 31.934998 79.765015 37.606003 72.890991 35.68399 C 72.482971 37.809998 74.289001 40.190002 75.789001 40.182007 C 75.328003 43.093002 71.906006 43.556999 69.138 43.362 C 69.138 43.362 69.906982 47.701996 74.166992 47.725998 C 73.835999 49.824997 72.890991 51.994003 68.215027 52.205002 C 68.422974 52.723999 69.184021 54.212006 70.484009 54.677002 C 71.776001 55.141998 73.78302 54.235001 73.78302 54.235001 C 73.78302 54.235001 72.991028 55.677002 72.221008 56.683998 C 71.437012 57.683998 69.130005 59.643997 66.109009 59.793999 C 66.838989 61.747002 68.47699 62.512001 69.284973 62.678001 C 70.106995 62.834999 72.237 62.811996 72.237 62.811996 L 71.398987 63.865997 C 69.077026 66.857002 65.017029 68.101997 62.064026 67.757004 C 62.724976 70.528999 64.364014 72.573997 67.085022 73.754997 C 71.083008 75.527 76.13501 74.880997 78.325989 73.632004 C 77.880981 70.679001 77.533997 67.819 77.533997 65.024002 C 77.533997 60.725998 78.356995 56.569 80.909973 52.378998 L 82.062988 53.016998 C 80.385986 56.339005 79.825989 59.882996 79.825989 63.416 C 79.825989 67.218002 80.463989 71.016998 81.062988 74.565002 C 81.546997 77.478996 82.025024 80.244003 82.025024 82.612 C 82.025024 85.848999 81.156006 88.393997 78.317993 89.642998 C 79.872009 90.185997 82.463013 90.32 84.869995 89.666 C 86.554016 89.220001 89.528992 87.989998 90.406006 84.872002 C 90.567017 84.288002 90.66803 83.634003 90.674988 82.980003 C 90.513977 79.792 89.16803 76.101997 87.768982 72.195999 C 85.723999 66.516998 83.60199 60.643005 84.825012 55.533005 L 84.932007 55.044998 L 86.307983 55.044998 L 86.130981 55.826004 C 85.961975 56.583 85.893005 57.360001 85.893005 58.162994 C 85.893005 62.076996 87.731018 66.425003 89.544983 70.662003 C 91.44397 75.091003 93.374023 79.620003 93.374023 83.872002 C 93.374023 86.893997 92.382019 89.777 89.721985 92.399002 C 92.935974 93.052002 96.895996 92.845001 99.51001 90.334999 C 101.163025 88.763 101.994019 86.456001 101.994019 83.602997 C 101.994019 82.241997 101.802002 80.762001 101.432007 79.178001 C 99.893982 74.879997 97.809998 71.114998 95.802979 67.494003 C 93.335022 63.030998 91.005005 58.817001 89.85199 53.992004 C 89.85199 53.992004 89.89801 53.984001 89.914001 53.975998 C 89.914001 53.969002 89.914001 53.969002 89.914001 53.960999 C 89.914001 53.960999 90.052979 53.93 90.114014 53.910995 C 90.44397 53.811005 91.120972 53.630997 91.120972 53.630997 C 92.151001 57.306 94.612 61.139 97.195007 65.195 C 100.879028 70.949997 104.861023 77.170998 104.861023 83.644997 C 104.861023 86.817001 103.892029 90.054001 101.469971 93.314003 C 104.698975 92.321999 111.228027 89.747002 113.380981 84.697998 C 113.84198 83.579002 114.080017 82.414001 114.080017 81.172997 C 114.080017 78.786003 113.203979 76.179001 111.442017 73.384003 C 109.466003 70.603996 106.991028 68.040001 104.353027 65.336998 C 100.27002 61.166 96.164001 56.494995 93.856995 51.147003 C 93.049011 49.306 95.018005 47.936996 96.632996 47.268005 C 100.61499 45.306999 107.158997 52.158005 106.544006 44.587997 C 111.096008 43.030998 114.640991 51.834999 118.185974 43.014999 C 112.713013 46.555 104.661987 38.541992 101.202026 44.479004 Z M 94.643005 31.227005 C 95.205017 30.565002 96.172974 30.123001 97.281006 30.123001 C 98.458008 30.123001 99.471985 30.619003 100.018005 31.360992 C 99.448975 32.014999 98.47998 32.453003 97.411987 32.453003 C 96.211975 32.453003 95.195984 31.959991 94.643005 31.227005 Z"/></svg>