<svg version="1.2" xmlns="http://www.w3.org/2000/svg" viewBox="0 0.9 1545 659"><title>JNJ_BIG_BIG copy-svg</title><path id="Layer" fill-rule="evenodd" d="m416.5 451.1c0 117.8-58.7 207.9-208.3 207.9-150 0-208.2-90.1-208.2-207.9v-38.5l111.1-28.2v86.4c0 82 29.1 129.9 97.1 129.9 68.1 0 96.8-44.8 96.8-120.5v-465.4h111.5z" fill="#eb1700"/><path id="path460" fill-rule="evenodd" d="m747.4 0.9c107.5 0 168.9 54.2 168.9 122.3 0 47.9-29.2 82-97.2 119.2l1.8 3.5c27.7-10.7 70.3-21.9 107.9-21.9 71.6 0 117.3 46.1 117.3 114.7 0 54.6-27.7 117.8-76.1 175.6l114.6 126.7v4.5h-140.6l-54.2-58.7c-66.2 47.1-139.7 73.1-202.8 73.1-109.3 0-180.1-77.5-180.1-170.3 0-69.8 40.3-138.4 128.1-180.9l-0.9-1.8c-51.9-56.5-71.6-103.5-71.6-150.1 0-86.5 60.9-155.9 184.5-155.9zm223.4 386.1c0-73-44.7-115.1-117.3-115.1-25.5 0-56 4.5-87.3 17l176 194.5c19.7-30.5 28.6-63.6 28.6-96.4zm-141.9-251.7c0-56-32.3-86.5-84.2-86.5-52 0-85.1 29.6-85.1 81.6 0 28.2 9.4 51.5 43.9 89.1l38.5 43.5c61.8-27.8 86.9-76.6 86.9-127.7zm34.5 422l-202.9-222.7c-34 24.7-54.6 67.7-54.6 114.7 0 74.4 52.8 144.7 138.8 144.7 38.5 0 80.6-14.3 118.7-36.7z" fill="#eb1700"/><path id="path462" fill-rule="evenodd" d="m1545 451.1c0 117.8-58.2 207.9-208.2 207.9-149.6 0-208.3-90.1-208.3-207.9v-39l111.5-27.7v86.4c0 82 28.7 129.5 96.8 129.5 68 0 97.1-44.8 97.1-120.5v-465.5h111.1z" fill="#eb1700"/></svg>