<svg version="1.1" id="Layer_1" xmlns:x="ns_extend;" xmlns:i="ns_ai;" xmlns:graph="ns_graphs;" xmlns="http://www.w3.org/2000/svg" xmlns:xlink="http://www.w3.org/1999/xlink" x="0px" y="0px" viewBox="0.035 0.047 59.465 59.07" xml:space="preserve" enable-background="new 0 0 59.4 59.1"><metadata><sfw xmlns="ns_sfw;"><slices/><sliceSourceBounds bottomLeftOrigin="true" height="59.1" width="59.4" x="170.2" y="-216.2"/></sfw></metadata><g><path d="M41.2,17.6c-5.5-5.5-14.1-6.3-20.5-2c-3.1,2.1-5.4,5.2-6.5,8.8c-1.1,3.6-0.9,7.4,0.6,10.9
		c1.4,3.5,4.1,6.3,7.4,8.1c3.3,1.8,7.2,2.3,10.8,1.6c3.7-0.7,7-2.7,9.4-5.6c2.4-2.9,3.7-6.5,3.7-10.3C46,24.7,44.3,20.6,41.2,17.6
		L41.2,17.6z M39.7,39c-2.7,2.7-6.3,4.1-10.1,4.1c-3.8,0-7.4-1.5-10.1-4.1c-2-2-3.3-4.5-3.9-7.3c-0.5-2.7-0.3-5.6,0.8-8.2
		c1.1-2.6,2.9-4.8,5.2-6.4c4.8-3.2,11-3.2,15.8,0c2.3,1.6,4.2,3.8,5.2,6.4c1.1,2.6,1.4,5.4,0.8,8.2C43,34.5,41.7,37.1,39.7,39z" fill="#080808"/><path d="M27.9,40.4c-1.8-0.3-3.4-1-4.8-2c-1.9-1.5-3.3-3.5-4.1-5.7c-0.3-0.8-0.5-1.5-0.7-2.3c-0.1-0.3-0.1-0.5-0.1-0.7
		c0-0.1,0-0.1,0-0.2v-0.1l-1.3,0.1c0.3,2,0.9,3.9,1.9,5.7c0.9,1.6,2,3,3.5,4.2c1.8,1.4,3.9,2.2,6.2,2.4l0.7,0.1V17h-1.3
		C27.8,17,27.9,40.4,27.9,40.4z M41.7,29.7v-1.3H31.5V17h-1.3v24.8l0.7-0.1c1.7-0.2,3.3-0.8,4.7-1.6c1.4-0.8,2.7-1.9,3.8-3.1
		c1.4-1.7,2.4-3.6,2.9-5.7L41.1,31c-0.5,1.9-1.4,3.7-2.7,5.2c-1.8,2.1-4.2,3.6-6.9,4.2V29.7L41.7,29.7L41.7,29.7z" fill="#080808"/><path d="M57.4,29.6h-1.9c0,5.9-2,11.7-5.8,16.3c-3.8,4.6-9,7.8-14.9,8.9c-5.9,1.2-11.9,0.3-17.2-2.5
		C12.3,49.6,8.2,45,5.9,39.5C3.6,34.1,3.3,27.9,5,22.3c1.7-5.7,5.4-10.6,10.3-13.9c10.2-6.8,23.8-5.5,32.6,3.2
		c2.4,2.4,4.3,5.2,5.6,8.3c1.3,3.1,2,6.4,2,9.8h3.9c0-6.8-2.4-13.5-6.7-18.8C48.3,5.6,42.2,1.9,35.5,0.6c-6.7-1.3-13.7-0.3-19.8,2.9
		C9.7,6.7,4.9,11.9,2.3,18.2c-2.6,6.3-3,13.4-1,19.9c2,6.6,6.2,12.2,11.9,16c11.8,7.9,27.4,6.3,37.5-3.6c2.8-2.7,5-6,6.5-9.6
		c1.5-3.6,2.3-7.4,2.3-11.3L57.4,29.6L57.4,29.6z" fill="#EE322F"/></g></svg>