<svg viewBox="0.5 0.625 1325 1718.75" xmlns="http://www.w3.org/2000/svg"><path id="Path" fill="#e9478b" stroke="none" d="M 25.5 644.375 C 253.625 644.375 469.25 703.75 656.75 803.75 L 1325.5 0.625 L 0.5 0.625 L 0.5 1594.375 L 0.5 644.375 L 25.5 644.375 Z"/><path id="path1" fill="#3ebeb0" stroke="none" d="M 656.75 803.75 L 0.5 1594.375 L 0.5 1719.375 L 1322.375 1719.375 C 1247.375 1325.625 997.375 991.25 656.75 803.75 Z"/><path id="path2" fill="#37a595" stroke="none" d="M 656.75 803.75 L 0.5 1594.375 L 0.5 1719.375 L 234.875 1719.375 L 872.375 950.625 C 872.375 950.625 828.625 916.25 769.25 872.5 C 725.5 841.25 656.75 803.75 656.75 803.75 Z"/><path id="path3" fill="#353535" stroke="none" d="M 25.5 644.375 L 0.5 644.375 L 0.5 1594.375 L 656.75 803.75 C 469.25 703.75 253.625 644.375 25.5 644.375 Z"/><path id="path4" fill="none" stroke="none" d="M -587 -390 L 1913 -390 L 1913 2110 L -587 2110 Z"/></svg>