<svg viewBox="0 0 94 110" xmlns="http://www.w3.org/2000/svg"><path id="uuid-91012e00-d040-4f70-ab2c-83938b8b56bf" fill="#ffa116" stroke="none" d="M 67.510002 82.150002 C 70 79.660004 74.040001 79.669998 76.529999 82.160004 C 79.019997 84.660004 79.010002 88.700005 76.519997 91.190002 L 65.449997 102.25 C 55.23 112.450005 38.580002 112.599998 28.190001 102.590004 C 28.129999 102.529999 23.5 98 8.24 83.029999 C -1.91 73.080002 -2.92 57.150002 6.63 46.920002 L 24.440001 27.849998 C 33.919998 17.700005 51.400002 16.590004 62.240002 25.349998 L 78.419998 38.43 C 81.160004 40.650002 81.589996 44.669998 79.379997 47.410004 C 77.169998 50.150002 73.150002 50.580002 70.410004 48.370003 L 54.23 35.290001 C 48.560001 30.709999 38.639999 31.330002 33.75 36.57 L 15.94 55.640003 C 11.29 60.620003 11.8 68.639999 17.16 73.900002 C 28.370001 84.889999 37 93.360001 37.009998 93.370003 C 42.41 98.57 51.139999 98.490005 56.450001 93.200005 L 67.519997 82.139999 Z"/><path id="uuid-aab0c755-2160-4f95-a967-77dc5fc7a46a" fill="#b3b3b3" fill-rule="evenodd" stroke="none" d="M 40.610001 71.080002 C 37.09 71.080002 34.23 68.220001 34.23 64.690002 C 34.23 61.160004 37.080002 58.300003 40.610001 58.300003 L 87.629997 58.300003 C 91.150002 58.300003 94.010002 61.160004 94.010002 64.690002 C 94.010002 68.220001 91.160004 71.080002 87.629997 71.080002 L 40.610001 71.080002 Z"/><path id="uuid-9ec73720-edd5-4565-9515-376ad333b30c" fill="#000000" fill-rule="evenodd" stroke="none" d="M 49.41 1.099998 C 51.82 -1.480003 55.849998 -1.610001 58.419998 0.800003 C 60.990002 3.209999 61.130001 7.25 58.720001 9.830002 L 15.93 55.650002 C 11.28 60.630001 11.79 68.650002 17.15 73.910004 L 36.91 93.290001 C 39.43 95.760002 39.470001 99.800003 37.009998 102.32 C 34.549999 104.840004 30.51 104.880005 27.99 102.419998 L 8.23 83.040001 C -1.92 73.090004 -2.93 57.160004 6.62 46.93 L 49.41 1.099998 Z"/></svg>