<svg version="1.2" xmlns="http://www.w3.org/2000/svg" viewBox="0 0 1550.1 1547"><title>051910</title><g><path fill-rule="evenodd" d="m775.1 1547c-428.6 0-775.1-345.8-775.1-773.5 0-427.7 346.5-773.5 775.1-773.5 428.6 0 775 345.8 775 773.5 0 427.7-346.4 773.5-775 773.5z" fill="#a50034"/><path d="m743.8 434.3v678.9h216.3v-61.5h-153.8v-617.4z" fill="#ffffff"/><path fill-rule="evenodd" d="m527.8 619.3c-51.4 0-93-41.5-93-92.8 0-51.2 41.6-92.7 93-92.7 51.4 0 93 41.5 93 92.7 0 51.3-41.6 92.8-93 92.8z" fill="#ffffff"/><path d="m806.3 126.3c-8.4-0.5-23.8-1-31.2-1-357.5 0-648.8 291.3-648.8 648.2 0 173.3 67.6 336 190.2 458 122.5 122.1 285.2 189.7 458.6 189.7 173.8 0 336-67.6 458.6-189.7 122.6-122 190.1-284.7 190.1-458v-28.9h-463.2v59.7h401.2c0 1.4 0 7.4 0 9.3-20.5 305.2-275.9 547-586.7 547-157.1 0-304.8-61-415.8-171.9-111.4-110.5-172.9-257.7-172.9-415.2 0-157.5 61.5-304.3 172.9-415.2 111-110.9 258.7-171.9 415.8-171.9 7 0 23.3 0 31.2 0.5z" fill="#ffffff"/></g></svg>