<?xml version="1.0" encoding="UTF-8"?>
<!-- Generated by Pixelmator Pro 3.6.14 -->
<svg width="255" height="284" viewBox="0 0 255 284" xmlns="http://www.w3.org/2000/svg">
    <g id="Group">
        <path id="Path" fill="#c4baff" stroke="none" d="M 129.794006 61.024994 L 189.270004 283.036987 L 70.317001 283.036987 Z"/>
        <path id="path1" fill="#6750e5" fill-opacity="0.498" stroke="none" d="M 205.037003 0 L 70.092003 283.122009 L 254.514008 283.122009 Z"/>
        <path id="path2" fill="#6750e5" fill-opacity="0.498" stroke="none" d="M 56.919998 0 L 189.488998 283.122009 L 0 283.122009 Z"/>
        <linearGradient id="linearGradient1" x1="137.441685" y1="205.108091" x2="137.441685" y2="103.348861" gradientUnits="userSpaceOnUse">
            <stop offset="1e-05" stop-color="#803fa5" stop-opacity="1"/>
            <stop offset="1" stop-color="#4b114a" stop-opacity="1"/>
        </linearGradient>
        <path id="path3" fill="url(#linearGradient1)" stroke="none" d="M 26.541 263.876007 L 66.234001 61.131012 L 130.966003 207.694 L 198.018005 61.131012 L 233.681 263.876007 L 204.490997 263.876007 L 186.292999 150.046005 L 130.477997 272.548004 L 76.25 149.923996 L 55.976002 263.876007 Z"/>
        <path id="path4" fill="none" stroke="#a28bca" stroke-width="2" stroke-opacity="0.356" stroke-linecap="square" d="M 44.666 243.947998 L 69.404999 110.63501 M 129.188995 235.014999 L 70.092003 107.197998 M 131.938004 233.638 L 192.408997 107.197998 M 215.085999 246.695007 L 192.410004 109.947998"/>
        <path id="path5" fill="#dcc6ff" stroke="none" d="M 215.772995 243.259995 C 218.050339 243.259995 219.8965 245.106155 219.8965 247.383499 C 219.8965 249.660843 218.050339 251.507004 215.772995 251.507004 C 213.495651 251.507004 211.649506 249.660843 211.649506 247.383499 C 211.649506 245.106155 213.495651 243.259995 215.772995 243.259995 M 43.979 243.259995 C 46.256348 243.259995 48.102501 245.106155 48.102501 247.383499 C 48.102501 249.660843 46.256348 251.507004 43.979 251.507004 C 41.701653 251.507004 39.855499 249.660843 39.855499 247.383499 C 39.855499 245.106155 41.701653 243.259995 43.979 243.259995 M 130.563004 235.014008 C 132.840073 235.014008 134.686005 236.859924 134.686005 239.136993 C 134.686005 241.414063 132.840073 243.259995 130.563004 243.259995 C 128.285934 243.259995 126.440002 241.414063 126.440002 239.136993 C 126.440002 236.859924 128.285934 235.014008 130.563004 235.014008 M 70.092003 105.825012 C 72.369072 105.825012 74.215004 107.670929 74.215004 109.947998 C 74.215004 112.225067 72.369072 114.070984 70.092003 114.070984 C 67.814934 114.070984 65.969002 112.225067 65.969002 109.947998 C 65.969002 107.670929 67.814934 105.825012 70.092003 105.825012 M 192.408997 105.825012 C 194.686066 105.825012 196.531998 107.670929 196.531998 109.947998 C 196.531998 112.225067 194.686066 114.070984 192.408997 114.070984 C 190.131927 114.070984 188.285995 112.225067 188.285995 109.947998 C 188.285995 107.670929 190.131927 105.825012 192.408997 105.825012"/>
    </g>
</svg>
