<svg version="1.1" xmlns="http://www.w3.org/2000/svg" viewBox="0 0 200 200"><path d="M0 0 C5.94 0 11.88 0 18 0 C20.57 6.23 23.13 12.46 25.69 18.69 C26.56 20.81 27.44 22.93 28.31 25.05 C29.56 28.09 30.81 31.14 32.06 34.18 C32.46 35.13 32.85 36.08 33.26 37.06 C33.44 37.51 33.44 37.51 34.35 39.73 C34.67 40.51 34.99 41.29 35.32 42.09 C36 44 36 44 36 46 C36.66 46 37.32 46 38 46 C38.13 45.26 38.26 44.53 38.4 43.77 C38.95 41.23 39.67 39.06 40.67 36.67 C41.01 35.85 41.35 35.03 41.71 34.18 C42.07 33.31 42.44 32.44 42.82 31.54 C43.19 30.64 43.57 29.74 43.96 28.81 C45.15 25.93 46.36 23.06 47.56 20.19 C48.38 18.24 49.19 16.28 50.01 14.33 C52 9.55 54 4.78 56 0 C61.94 0 67.88 0 74 0 C73.67 0.99 73.34 1.98 73 3 C71.35 3.66 69.7 4.32 68 5 C67.67 22.49 67.34 39.98 67 58 C68.98 58.33 70.96 58.66 73 59 C73.33 59.99 73.66 60.98 74 62 C66.74 62 59.48 62 52 62 C52 61.01 52 60.02 52 59 C53.65 58.34 55.3 57.68 57 57 C57 43.14 57 29.28 57 15 C49.81 32.88 49.81 32.88 47.58 38.45 C39.38 58.83 39.38 58.83 37 62 C34.86 62.74 34.86 62.74 33 63 C26.11 47.08 19.36 31.14 13 15 C13 28.86 13 42.72 13 57 C14.65 57.66 16.3 58.32 18 59 C18 59.99 18 60.98 18 62 C12.06 62 6.12 62 0 62 C0.33 61.01 0.66 60.02 1 59 C1.82 58.84 1.82 58.84 6 58 C6 40.18 6 22.36 6 4 C4.02 3.34 2.04 2.68 0 2 C0 1.34 0 0.68 0 0 Z " fill="#004A80" transform="translate(15,66)"/><path d="M0 0 C7.26 0 14.52 0 22 0 C21.67 0.99 21.34 1.98 21 3 C19.35 3.33 17.7 3.66 16 4 C16.33 12.25 16.66 20.5 17 29 C33.43 11.01 33.43 11.01 38 3 C37.18 2.83 37.18 2.83 33 2 C33 1.34 33 0.68 33 0 C39.6 0 46.2 0 53 0 C53 0.99 53 1.98 53 3 C51.99 3.35 50.98 3.7 49.94 4.06 C45.29 6.07 42.34 9.28 39 13 C38.4 13.67 37.8 14.34 37.18 15.02 C35.99 16.37 34.81 17.72 33.65 19.08 C32.59 20.31 31.52 21.52 30.41 22.7 C29 24.25 29 24.25 27 27 C27.31 30.66 29.26 32.97 31.46 35.81 C31.81 36.26 31.81 36.26 33.58 38.57 C34.32 39.52 35.05 40.46 35.81 41.44 C36.54 42.38 37.26 43.32 38.01 44.29 C40 46.87 41.99 49.44 44 52 C44.7 52.9 45.4 53.81 46.12 54.74 C47.98 56.98 49.06 57.83 51.75 58.81 C52.29 59.01 52.29 59.01 55 60 C55 60.66 55 61.32 55 62 C49.35 62.76 43.59 63.49 38 62 C34.37 58.88 32.39 55.19 30.18 51.03 C27.94 47.18 25.15 43.72 22.44 40.19 C20.64 37.82 18.85 35.44 17 33 C16.67 41.25 16.34 49.5 16 58 C17.98 58.66 19.96 59.32 22 60 C22 60.66 22 61.32 22 62 C14.74 62 7.48 62 0 62 C0.33 61.01 0.66 60.02 1 59 C1.82 58.84 1.82 58.84 6 58 C6 40.18 6 22.36 6 4 C4.02 3.34 2.04 2.68 0 2 C0 1.34 0 0.68 0 0 Z " fill="#004A80" transform="translate(132,66)"/><path d="M0 0 C1.12 -0 2.25 -0.01 3.41 -0.01 C5.97 0.1 8.06 0.37 10.5 1.12 C10.36 2.58 10.21 4.04 10.06 5.5 C9.98 6.31 9.9 7.12 9.82 7.96 C9.5 10.12 9.5 10.12 8.5 12.12 C7.51 12.12 6.52 12.12 5.5 12.12 C4.84 10.14 4.18 8.16 3.5 6.12 C-2.48 4.97 -6.07 4.83 -11.5 8.12 C-14.96 12.85 -15.63 18.37 -15.5 24.12 C-14.6 29.14 -12.57 33.12 -8.37 36.22 C-2.53 39.05 4.32 38.33 10.5 37.12 C10.83 38.12 11.16 39.1 11.5 40.12 C4.82 43.94 -1.95 43.9 -9.5 43.12 C-15.39 41.5 -19.15 38.25 -22.5 33.12 C-25.23 25.67 -25.07 18.26 -22 10.88 C-19.19 5.78 -14.07 2.37 -8.62 0.47 C-5.73 -0 -2.93 -0.01 0 0 Z " fill="#004A80" transform="translate(116.5,84.875)"/></svg>