<svg viewBox="0.02 0.28 161.6 115.6" xmlns="http://www.w3.org/2000/svg"><path id="path88" fill="#d62427" stroke="none" d="M 104.820015 58.080002 C 104.820015 71.18 94.120003 81.979996 80.720009 81.979996 C 67.620003 81.979996 57.119999 71.279999 57.119999 58.080002 C 57.119999 44.68 67.620003 33.980003 80.720009 33.980003 C 94.120003 33.980003 104.820015 44.68 104.820015 58.080002 Z M 80.720009 110.080002 C 52.320011 110.080002 28.919987 86.68 28.919987 57.98 C 28.919987 29.080002 52.320011 5.68 80.720009 5.68 C 109.620003 5.68 132.820007 29.080002 132.820007 57.98 C 132.720001 86.68 109.620003 110.080002 80.720009 110.080002 Z M 104.320015 0.279999 C 95.919991 0.279999 88.120003 1.979996 80.720009 5.080002 C 73.820015 1.979996 65.720009 0.279999 57.519993 0.279999 C 25.519995 0.279999 0.019994 25.879997 0.019994 58.080002 C 0.019994 89.879997 25.620001 115.879997 57.519993 115.879997 C 65.620003 115.879997 73.720009 113.979996 80.720009 110.879997 C 88.120003 113.979996 96.019997 115.879997 104.320015 115.879997 C 136.119995 115.879997 161.619995 89.879997 161.619995 58.080002 C 161.619995 25.879997 136.119995 0.279999 104.320015 0.279999"/></svg>