<svg version="1.1" xmlns="http://www.w3.org/2000/svg" viewBox="0 0 2000 1730"><path d="M0 0 C0.8 0.46 1.6 0.92 2.42 1.39 C6.34 3.64 10.25 5.91 14.15 8.18 C19.25 11.15 24.37 14.08 29.5 17 C44.13 25.35 58.71 33.78 73.18 42.41 C78.57 45.61 84.01 48.68 89.53 51.66 C92.5 53.27 95.44 54.94 98.38 56.62 C99.57 57.31 100.76 57.99 101.95 58.68 C102.59 59.04 103.23 59.41 103.89 59.79 C106.22 61.13 108.56 62.46 110.89 63.79 C119.44 68.67 127.99 73.56 136.5 78.5 C143.11 82.34 149.74 86.15 156.38 89.94 C156.81 90.19 156.81 90.19 159.01 91.44 C163.47 93.99 167.94 96.53 172.4 99.07 C180.42 103.65 188.43 108.23 196.38 112.94 C204.9 117.98 213.52 122.84 222.15 127.7 C234.68 134.76 247.18 141.9 259.56 149.22 C265.9 152.96 272.29 156.6 278.69 160.24 C286.68 164.8 294.63 169.44 302.57 174.1 C308.1 177.35 313.68 180.49 319.32 183.54 C323.62 185.88 327.87 188.31 332.12 190.75 C333.03 191.27 333.93 191.78 334.86 192.32 C341.29 196 347.68 199.73 354.05 203.5 C359.32 206.61 364.62 209.64 369.93 212.66 C376.39 216.35 382.8 220.13 389.21 223.9 C394.9 227.23 400.62 230.45 406.42 233.59 C410.28 235.7 414.08 237.91 417.88 240.12 C424.73 244.11 431.61 248.07 438.5 252 C453.13 260.35 467.71 268.78 482.18 277.41 C487.5 280.57 492.88 283.6 498.32 286.54 C502.48 288.8 506.58 291.15 510.69 293.5 C511.58 294.01 512.47 294.52 513.39 295.05 C521.21 299.53 528.98 304.08 536.75 308.63 C545.23 313.59 553.8 318.38 562.39 323.15 C567.76 326.15 573.05 329.21 578.25 332.5 C592.56 341.45 607.68 347.52 624.62 344 C644.65 338.46 663.74 325.12 681.33 314.4 C689.8 309.26 698.47 304.49 707.1 299.64 C720.31 292.18 733.45 284.59 746.55 276.93 C752.76 273.3 758.98 269.72 765.23 266.16 C769.25 263.86 773.25 261.52 777.25 259.17 C787.77 253.01 798.35 246.97 809 241.04 C817.52 236.28 825.98 231.42 834.41 226.5 C839.5 223.55 844.59 220.62 849.69 217.69 C857.17 213.37 864.65 209.04 872.1 204.67 C882.37 198.65 892.71 192.77 903.11 186.98 C910.56 182.83 917.93 178.56 925.26 174.21 C928.67 172.19 932.11 170.21 935.56 168.25 C940.82 165.26 946.04 162.22 951.26 159.16 C961.65 153.08 972.1 147.12 982.62 141.26 C992.05 136 1001.38 130.56 1010.7 125.1 C1015.84 122.09 1021 119.14 1026.18 116.2 C1032.55 112.55 1038.88 108.82 1045.21 105.1 C1050.85 101.8 1056.53 98.61 1062.28 95.5 C1066.95 92.93 1071.53 90.21 1076.12 87.5 C1085.83 81.8 1095.61 76.25 1105.45 70.79 C1110.81 67.82 1116.11 64.76 1121.36 61.58 C1126.04 58.78 1130.78 56.09 1135.52 53.4 C1137.36 52.35 1139.2 51.3 1141.03 50.25 C1145.71 47.58 1150.39 44.92 1155.07 42.25 C1164.6 36.82 1174.12 31.36 1183.56 25.78 C1189.91 22.04 1196.3 18.39 1202.7 14.75 C1208.58 11.4 1214.43 8 1220.26 4.57 C1236.04 -4.68 1236.04 -4.68 1243.38 -8.69 C1243.9 -8.98 1243.9 -8.98 1246.59 -10.45 C1254.84 -14.2 1262.33 -15.53 1271.38 -15.44 C1272.39 -15.43 1273.4 -15.42 1274.44 -15.41 C1281.88 -15.25 1288.28 -14.39 1295 -11 C1295.85 -10.58 1296.7 -10.15 1297.58 -9.71 C1312.42 -1.53 1322.19 10.83 1327 27 C1327.78 31.64 1328.13 36.1 1328.13 40.8 C1328.13 41.45 1328.13 42.1 1328.13 42.77 C1328.14 44.95 1328.13 47.13 1328.13 49.31 C1328.13 50.89 1328.13 52.48 1328.13 54.06 C1328.14 58.43 1328.14 62.8 1328.13 67.17 C1328.13 71.92 1328.14 76.67 1328.14 81.42 C1328.15 89.74 1328.15 98.07 1328.15 106.4 C1328.14 118.78 1328.15 131.17 1328.15 143.55 C1328.16 166.95 1328.17 190.36 1328.17 213.76 C1328.17 231.83 1328.17 249.9 1328.17 267.97 C1328.17 273.17 1328.17 278.37 1328.18 283.56 C1328.18 284.86 1328.18 286.15 1328.18 287.48 C1328.18 323.84 1328.19 360.19 1328.19 396.55 C1328.19 397.94 1328.19 399.32 1328.19 400.71 C1328.19 406.96 1328.19 413.21 1328.19 419.47 C1328.19 422.26 1328.19 425.04 1328.19 427.83 C1328.19 429.23 1328.19 430.62 1328.19 432.02 C1328.18 476.15 1328.19 520.29 1328.21 564.42 C1328.21 575.54 1328.21 586.66 1328.22 597.78 C1328.22 598.12 1328.22 598.12 1328.22 599.85 C1328.22 620.96 1328.23 642.06 1328.23 663.16 C1328.23 663.82 1328.23 664.49 1328.23 665.17 C1328.23 680.37 1328.23 695.56 1328.23 710.76 C1328.23 715.96 1328.23 721.16 1328.23 726.36 C1328.23 727.64 1328.23 728.92 1328.23 730.24 C1328.23 750.86 1328.24 771.48 1328.24 792.1 C1328.25 812.82 1328.25 833.54 1328.25 854.25 C1328.24 866.57 1328.24 878.88 1328.25 891.19 C1328.26 899.42 1328.26 907.64 1328.25 915.86 C1328.25 920.55 1328.25 925.23 1328.26 929.92 C1328.26 934.19 1328.26 938.45 1328.25 942.72 C1328.25 944.25 1328.25 945.78 1328.26 947.31 C1328.31 963.69 1326.67 979.87 1314.85 992.36 C1305.31 1000.83 1294.55 1007.1 1283.4 1013.13 C1271.22 1019.82 1259.23 1026.85 1247.25 1033.88 C1237.75 1039.44 1228.18 1044.87 1218.55 1050.21 C1213.09 1053.24 1207.7 1056.35 1202.35 1059.58 C1198.7 1061.78 1195.01 1063.93 1191.31 1066.06 C1190.51 1066.53 1189.71 1066.99 1188.89 1067.47 C1182.41 1071.21 1175.89 1074.89 1169.38 1078.56 C1161.98 1082.73 1154.63 1086.95 1147.34 1091.27 C1141.9 1094.49 1136.43 1097.63 1130.94 1100.75 C1123.3 1105.1 1115.7 1109.5 1108.12 1113.94 C1099.19 1119.17 1090.2 1124.3 1081.17 1129.38 C1074.69 1133.03 1068.25 1136.76 1061.84 1140.55 C1056.6 1143.66 1051.31 1146.68 1046.02 1149.7 C1041.9 1152.04 1037.82 1154.44 1033.74 1156.84 C1024.15 1162.46 1014.52 1167.97 1004.81 1173.38 C996.41 1178.06 988.05 1182.74 980 1188 C979.25 1188.47 978.5 1188.94 977.73 1189.43 C967.78 1196.17 962.27 1206.68 959 1218 C958.33 1222.67 958.23 1227.22 958.31 1231.94 C958.32 1232.55 958.32 1232.55 958.35 1235.66 C958.61 1244.96 959.82 1252.09 965 1260 C965.56 1260.86 966.13 1261.72 966.71 1262.61 C971.95 1269.85 978.54 1275.05 986.25 1279.44 C986.96 1279.85 987.67 1280.26 988.4 1280.68 C996.56 1285.38 1004.82 1289.91 1013.06 1294.47 C1019.96 1298.29 1026.8 1302.18 1033.57 1306.22 C1039.82 1309.93 1046.16 1313.47 1052.5 1317 C1059.59 1320.95 1066.65 1324.92 1073.62 1329.06 C1086.97 1336.99 1100.54 1344.54 1114.12 1352.06 C1120.67 1355.69 1127.19 1359.36 1133.69 1363.06 C1134.57 1363.57 1135.46 1364.07 1136.38 1364.59 C1141.03 1367.26 1145.63 1369.98 1150.19 1372.79 C1165 1381.89 1180 1387.19 1197.49 1383.98 C1204.54 1382.01 1210.67 1378.58 1217 1375 C1218.06 1374.4 1219.12 1373.8 1220.22 1373.19 C1227.34 1369.17 1234.43 1365.1 1241.51 1361.01 C1245.1 1358.94 1248.7 1356.88 1252.3 1354.83 C1257.57 1351.82 1262.82 1348.8 1268.06 1345.75 C1275.75 1341.29 1283.45 1336.88 1291.17 1332.48 C1296.92 1329.2 1302.65 1325.89 1308.38 1322.56 C1315.43 1318.47 1322.52 1314.44 1329.62 1310.44 C1337.18 1306.18 1344.69 1301.87 1352.16 1297.45 C1357.4 1294.34 1362.69 1291.32 1367.98 1288.3 C1372.1 1285.96 1376.18 1283.56 1380.26 1281.16 C1390.65 1275.08 1401.1 1269.12 1411.62 1263.26 C1421.99 1257.48 1432.23 1251.48 1442.48 1245.47 C1447.33 1242.64 1452.21 1239.86 1457.09 1237.08 C1478.31 1225.02 1478.31 1225.02 1488.38 1219.06 C1495.86 1214.63 1503.42 1210.36 1511 1206.1 C1518 1202.15 1524.95 1198.13 1531.88 1194.06 C1541.33 1188.51 1550.86 1183.11 1560.45 1177.79 C1566.71 1174.32 1572.89 1170.73 1579 1167 C1579.65 1166.6 1580.31 1166.21 1580.98 1165.8 C1595.66 1156.83 1605.16 1147.57 1609.35 1130.29 C1610.36 1125.17 1610.47 1120.17 1610.5 1114.97 C1610.51 1114.4 1610.51 1114.4 1610.55 1111.52 C1610.61 1107.77 1610.64 1104.02 1610.67 1100.27 C1610.69 1098.28 1610.72 1096.28 1610.74 1094.28 C1610.86 1085.19 1610.93 1076.09 1611 1067 C1611.01 1065.67 1611.02 1064.33 1611.03 1063 C1611.16 1045 1611.22 1027 1611.27 1009.01 C1611.28 1001.7 1611.31 994.38 1611.33 987.07 C1611.37 974.03 1611.41 960.98 1611.45 947.94 C1611.45 947.17 1611.45 946.4 1611.45 945.61 C1611.48 937.76 1611.5 929.92 1611.52 922.07 C1611.53 918.11 1611.54 914.15 1611.55 910.19 C1611.55 909.41 1611.56 908.63 1611.56 907.82 C1611.59 894.75 1611.63 881.68 1611.68 868.61 C1611.7 860.61 1611.73 852.62 1611.74 844.62 C1611.76 838.52 1611.78 832.43 1611.8 826.33 C1611.81 823.84 1611.81 821.36 1611.82 818.87 C1611.9 773.46 1611.9 773.46 1626.85 756.96 C1633.27 750.75 1641.08 746.62 1648.79 742.26 C1651.49 740.72 1654.16 739.14 1656.83 737.55 C1665.82 732.21 1674.9 727.05 1683.98 721.88 C1691.48 717.61 1698.95 713.28 1706.33 708.8 C1710.41 706.33 1714.57 704.02 1718.77 701.77 C1724.05 698.88 1729.25 695.87 1734.47 692.88 C1741.21 689.02 1747.98 685.19 1754.75 681.38 C1762.09 677.24 1769.39 673.04 1776.65 668.74 C1784.87 663.88 1793.18 659.15 1801.49 654.43 C1803.87 653.08 1806.24 651.71 1808.61 650.34 C1810.01 649.54 1811.41 648.74 1812.81 647.94 C1813.12 647.76 1813.12 647.76 1814.68 646.85 C1827.73 639.43 1843.79 637.57 1858.45 641.12 C1875.24 646.88 1888.16 658.32 1896.1 674.19 C1900.51 685.17 1899.55 696.89 1899.51 708.52 C1899.51 711.04 1899.52 713.56 1899.53 716.07 C1899.54 721.54 1899.54 727 1899.53 732.47 C1899.52 740.59 1899.52 748.72 1899.54 756.85 C1899.56 771.36 1899.55 785.88 1899.54 800.39 C1899.53 813.1 1899.53 825.8 1899.54 838.5 C1899.54 838.92 1899.54 838.92 1899.54 841.06 C1899.54 844.48 1899.54 847.9 1899.54 851.32 C1899.55 883.42 1899.54 915.52 1899.52 947.61 C1899.5 976.12 1899.5 1004.63 1899.52 1033.13 C1899.54 1065.17 1899.55 1097.21 1899.54 1129.25 C1899.54 1132.67 1899.54 1136.08 1899.54 1139.5 C1899.53 1140.34 1899.53 1141.18 1899.53 1142.05 C1899.53 1154.74 1899.54 1167.43 1899.55 1180.13 C1899.56 1194.56 1899.55 1209 1899.53 1223.44 C1899.52 1231.51 1899.52 1239.59 1899.53 1247.66 C1899.54 1253.7 1899.53 1259.73 1899.51 1265.76 C1899.51 1268.2 1899.51 1270.64 1899.52 1273.08 C1899.61 1296.49 1899.61 1296.49 1895 1306 C1894.49 1307.06 1893.99 1308.13 1893.46 1309.23 C1884.75 1322.91 1872.91 1329.71 1859.05 1337.31 C1853.53 1340.37 1848.08 1343.53 1842.62 1346.69 C1841.52 1347.33 1840.41 1347.97 1839.27 1348.62 C1832.73 1352.4 1826.23 1356.24 1819.77 1360.15 C1815.65 1362.64 1811.46 1364.96 1807.22 1367.24 C1793.8 1374.57 1780.62 1382.35 1767.43 1390.1 C1761.9 1393.35 1756.32 1396.49 1750.68 1399.54 C1746.38 1401.88 1742.13 1404.31 1737.88 1406.75 C1736.97 1407.27 1736.06 1407.79 1735.12 1408.33 C1729.6 1411.49 1724.1 1414.69 1718.62 1417.94 C1710.1 1422.98 1701.48 1427.84 1692.85 1432.7 C1680.15 1439.86 1667.5 1447.08 1654.95 1454.5 C1647.54 1458.87 1640.07 1463.12 1632.59 1467.37 C1623.02 1472.81 1613.46 1478.28 1604.04 1483.99 C1599.68 1486.62 1595.25 1489.09 1590.76 1491.5 C1583.3 1495.55 1575.97 1499.84 1568.65 1504.13 C1557.29 1510.79 1545.88 1517.33 1534.38 1523.74 C1524.01 1529.52 1513.77 1535.52 1503.52 1541.53 C1498.67 1544.36 1493.79 1547.14 1488.91 1549.92 C1467.7 1561.97 1467.7 1561.97 1457.62 1567.94 C1449.1 1572.98 1440.48 1577.84 1431.85 1582.7 C1420.05 1589.35 1408.28 1596.04 1396.62 1602.94 C1388.1 1607.98 1379.48 1612.84 1370.85 1617.7 C1358.15 1624.86 1345.5 1632.09 1332.94 1639.5 C1327.68 1642.61 1322.38 1645.64 1317.07 1648.66 C1310.61 1652.35 1304.2 1656.13 1297.79 1659.9 C1292.13 1663.21 1286.43 1666.43 1280.66 1669.55 C1276.37 1671.89 1272.12 1674.32 1267.88 1676.75 C1266.97 1677.27 1266.06 1677.79 1265.12 1678.33 C1259.6 1681.49 1254.1 1684.7 1248.62 1687.94 C1241.84 1691.95 1234.99 1695.87 1228.12 1699.75 C1227.19 1700.28 1226.25 1700.81 1225.28 1701.36 C1223.44 1702.4 1221.6 1703.43 1219.75 1704.46 C1217.9 1705.5 1216.05 1706.55 1214.21 1707.62 C1204.77 1713 1196.5 1715.53 1185.62 1715.44 C1185.2 1715.45 1185.2 1715.45 1183.03 1715.5 C1171.19 1715.49 1161.41 1710.52 1151.38 1704.69 C1150.31 1704.08 1149.24 1703.47 1148.13 1702.84 C1144.75 1700.9 1141.37 1698.95 1138 1697 C1135.8 1695.73 1133.6 1694.47 1131.41 1693.2 C1127.05 1690.69 1122.7 1688.18 1118.36 1685.66 C1112.32 1682.18 1106.26 1678.74 1100.19 1675.31 C1085.12 1666.82 1070.1 1658.22 1055.12 1649.56 C1045.89 1644.22 1036.62 1638.94 1027.33 1633.7 C1012.09 1625.11 996.94 1616.39 981.8 1607.64 C974.68 1603.53 967.54 1599.47 960.38 1595.44 C951.58 1590.49 942.85 1585.42 934.14 1580.31 C925.7 1575.37 917.16 1570.6 908.61 1565.85 C902.31 1562.33 896.11 1558.73 890.04 1554.84 C886.4 1552.64 882.67 1550.62 878.93 1548.59 C874.3 1546.07 869.71 1543.47 865.12 1540.88 C864.63 1540.6 864.63 1540.6 862.13 1539.18 C859.09 1537.46 856.04 1535.73 853 1534 C852.06 1533.46 851.11 1532.93 850.14 1532.38 C840.22 1526.75 830.35 1521.08 820.62 1515.13 C816.77 1512.82 812.82 1510.71 808.88 1508.57 C804.27 1506.06 799.7 1503.47 795.12 1500.88 C794.13 1500.31 793.13 1499.75 792.11 1499.17 C779.97 1492.29 767.86 1485.39 755.79 1478.41 C743.83 1471.49 731.83 1464.65 719.77 1457.92 C713.25 1454.28 706.79 1450.56 700.38 1446.75 C694.55 1443.3 688.66 1439.95 682.75 1436.62 C681.78 1436.08 680.81 1435.53 679.8 1434.96 C677.84 1433.86 675.87 1432.75 673.91 1431.64 C672.95 1431.1 671.99 1430.56 671 1430 C670.07 1429.48 669.14 1428.95 668.18 1428.41 C621.11 1401.83 621.11 1401.83 615 1381 C613.11 1373.43 612.67 1366.14 612.6 1358.35 C612.58 1357.11 612.56 1355.87 612.54 1354.59 C612.49 1351.18 612.45 1347.76 612.42 1344.34 C612.38 1341.41 612.34 1338.47 612.3 1335.53 C611.93 1307.69 611.74 1279.84 611.59 1251.99 C611.57 1248.37 611.55 1244.75 611.53 1241.13 C611.53 1240.23 611.52 1239.33 611.52 1238.41 C611.43 1223.83 611.25 1209.25 611.04 1194.67 C610.82 1179.68 610.7 1164.69 610.66 1149.7 C610.64 1141.29 610.57 1132.88 610.4 1124.47 C610.26 1117.31 610.19 1110.16 610.24 1103 C610.26 1099.35 610.24 1095.71 610.11 1092.06 C609.42 1070.86 609.42 1070.86 615.32 1064.5 C621.03 1060.06 627.27 1057.09 633.93 1054.33 C638.75 1052.24 643.18 1049.56 647.69 1046.88 C649.4 1045.89 651.11 1044.92 652.83 1043.94 C653.68 1043.46 654.52 1042.98 655.4 1042.48 C657.17 1041.47 658.94 1040.47 660.71 1039.46 C670.19 1034.07 679.64 1028.66 688.96 1023.01 C693.28 1020.4 697.68 1017.98 702.12 1015.59 C705.64 1013.65 709.07 1011.58 712.5 1009.5 C717.53 1006.46 722.6 1003.55 727.78 1000.76 C739.91 994.13 751.83 987.11 763.75 980.12 C772.98 974.72 782.28 969.46 791.62 964.26 C801.99 958.48 812.23 952.48 822.48 946.47 C827.34 943.63 832.23 940.85 837.13 938.06 C850.39 930.52 863.62 922.92 876.83 915.29 C882.26 912.16 887.68 909.03 893.12 905.94 C897.2 903.62 901.25 901.27 905.29 898.9 C916.94 892.07 928.64 885.34 940.45 878.79 C945.81 875.81 951.11 872.76 956.36 869.58 C961.04 866.78 965.78 864.09 970.52 861.4 C972.36 860.35 974.2 859.3 976.03 858.25 C980.71 855.58 985.39 852.92 990.07 850.25 C999.1 845.11 1008.11 839.96 1017.06 834.69 C1017.41 834.48 1017.41 834.48 1019.15 833.46 C1022.32 831.59 1025.49 829.71 1028.65 827.82 C1029.73 827.18 1030.82 826.54 1031.94 825.88 C1032.87 825.32 1033.81 824.76 1034.78 824.18 C1037 823 1037 823 1039 823 C1039.05 785.35 1039.08 747.7 1039.1 710.05 C1039.1 705.61 1039.11 701.16 1039.11 696.71 C1039.11 695.83 1039.11 694.94 1039.11 694.03 C1039.12 679.7 1039.14 665.38 1039.15 651.05 C1039.17 636.35 1039.18 621.64 1039.19 606.94 C1039.19 597.87 1039.2 588.8 1039.22 579.73 C1039.23 573.5 1039.23 567.28 1039.23 561.06 C1039.23 557.47 1039.23 553.88 1039.24 550.29 C1039.25 546.39 1039.25 542.5 1039.24 538.6 C1039.25 537.47 1039.25 536.35 1039.26 535.19 C1039.2 520.04 1035.7 505.98 1024.94 494.73 C1013.55 484.54 1000.18 478.23 984.72 477.94 C974.5 478.57 965.62 481.82 956.69 486.69 C955.86 487.13 955.04 487.57 954.19 488.03 C948.39 491.16 942.77 494.51 937.2 498.03 C933.74 500.16 930.23 502.15 926.69 504.12 C919.92 507.89 913.24 511.77 906.56 515.69 C896.96 521.32 887.28 526.81 877.55 532.21 C872.11 535.23 866.73 538.33 861.41 541.55 C857.47 543.92 853.48 546.21 849.5 548.5 C844.48 551.4 839.46 554.3 834.5 557.31 C831.38 559.2 828.23 560.98 825.02 562.71 C818.7 566.14 812.47 569.71 806.25 573.31 C805.11 573.97 803.97 574.63 802.79 575.31 C796.09 579.19 789.42 583.12 782.79 587.14 C778.51 589.72 774.17 592.13 769.77 594.5 C764.84 597.17 759.98 599.99 755.12 602.79 C752.76 604.14 750.4 605.48 748.04 606.83 C738.97 611.99 729.93 617.19 720.95 622.5 C714.34 626.4 707.67 630.21 701 634 C681.29 645.22 681.29 645.22 671.62 650.94 C664.84 654.94 658.03 658.9 651.19 662.81 C650.26 663.35 649.33 663.89 648.37 664.45 C637.6 670.57 627.62 675.18 615.19 675.38 C614.75 675.39 614.75 675.39 612.55 675.49 C599.3 675.66 587.89 669.25 576.69 662.81 C575.5 662.14 574.3 661.46 573.11 660.79 C565.53 656.5 557.99 652.12 550.5 647.66 C544.66 644.19 538.76 640.82 532.88 637.44 C525.13 632.98 517.42 628.49 509.78 623.86 C505.55 621.3 501.24 618.93 496.88 616.59 C493.36 614.65 489.93 612.58 486.5 610.5 C481.32 607.37 476.1 604.37 470.77 601.5 C465.84 598.83 460.98 596.01 456.12 593.21 C453.76 591.86 451.4 590.52 449.04 589.17 C440.87 584.52 432.71 579.85 424.62 575.06 C418.11 571.21 411.54 567.46 404.94 563.75 C396.02 558.73 387.16 553.62 378.33 548.44 C370 543.56 361.61 538.77 353.22 533.99 C344.87 529.23 336.55 524.42 328.25 519.56 C321.14 515.4 314 511.28 306.8 507.26 C301.67 504.39 296.58 501.45 291.5 498.5 C285.41 494.97 279.32 491.46 273.19 488 C272.55 487.64 271.91 487.28 271.25 486.9 C257.07 478.94 242.74 476.69 226.69 480 C220.8 481.7 215.88 484.82 210.81 488.16 C208 490 208 490 205.75 491 C203.47 492.3 203.05 493.63 202 496 C201.09 497.23 200.15 498.43 199.19 499.62 C189.48 512.39 187.83 525.91 187.87 541.51 C187.87 542.41 187.87 543.32 187.86 544.25 C187.86 547.27 187.86 550.3 187.86 553.32 C187.86 555.51 187.86 557.71 187.85 559.9 C187.85 565.92 187.84 571.94 187.84 577.96 C187.84 584.46 187.83 590.95 187.83 597.45 C187.82 607.97 187.81 618.5 187.8 629.02 C187.79 646.79 187.77 664.56 187.75 682.32 C187.74 689.17 187.73 696.01 187.73 702.85 C187.72 703.61 187.72 704.37 187.72 705.15 C187.7 723.23 187.68 741.31 187.66 759.39 C187.66 760.18 187.66 760.97 187.66 761.79 C187.64 780.24 187.62 798.69 187.61 817.14 C187.61 817.94 187.61 818.73 187.61 819.55 C187.61 825.95 187.6 832.35 187.6 838.74 C187.58 865.13 187.55 891.52 187.51 917.91 C187.51 921.64 187.5 925.36 187.5 929.09 C187.5 929.82 187.5 930.56 187.49 931.31 C187.48 943.11 187.47 954.91 187.47 966.7 C187.47 978.56 187.46 990.42 187.43 1002.28 C187.42 1008.7 187.42 1015.12 187.42 1021.54 C187.43 1027.42 187.42 1033.3 187.4 1039.18 C187.39 1041.31 187.39 1043.43 187.4 1045.56 C187.45 1064.88 185.13 1080.55 171 1095 C170.34 1095 169.68 1095 169 1095 C168.67 1095.99 168.34 1096.98 168 1098 C155.01 1108.33 138.99 1112.28 122.7 1110.68 C111.17 1108.93 101.98 1103.79 92 1098 C91.3 1097.59 90.59 1097.19 89.87 1096.77 C86.42 1094.76 82.99 1092.73 79.56 1090.69 C74.34 1087.59 69.05 1084.61 63.75 1081.62 C50.72 1074.28 37.73 1066.9 24.79 1059.41 C12.83 1052.49 0.83 1045.65 -11.23 1038.92 C-17.75 1035.28 -24.2 1031.57 -30.61 1027.76 C-36.53 1024.25 -42.51 1020.87 -48.5 1017.5 C-51.42 1015.85 -54.34 1014.2 -57.26 1012.55 C-59.01 1011.56 -60.76 1010.58 -62.51 1009.59 C-79.15 1000.21 -93.51 990.44 -99.97 971.53 C-102.58 961.6 -101.67 950.79 -101.61 940.62 C-101.61 937.92 -101.62 935.22 -101.62 932.52 C-101.63 926.66 -101.63 920.8 -101.61 914.94 C-101.58 906.21 -101.58 897.48 -101.59 888.76 C-101.6 874.01 -101.59 859.26 -101.56 844.51 C-101.53 829.76 -101.52 815.01 -101.51 800.25 C-101.51 799.33 -101.51 798.4 -101.51 797.45 C-101.51 792.75 -101.51 788.04 -101.51 783.34 C-101.5 749.91 -101.48 716.48 -101.43 683.05 C-101.39 651.17 -101.36 619.29 -101.35 587.42 C-101.35 585.47 -101.35 583.51 -101.35 581.56 C-101.34 573.77 -101.34 565.99 -101.34 558.2 C-101.31 468.55 -101.2 378.9 -101.03 289.26 C-101.01 278.39 -100.99 267.53 -100.97 256.66 C-100.91 223.11 -100.84 189.55 -100.74 156 C-100.73 153.32 -100.72 150.65 -100.71 147.97 C-100.71 146.66 -100.7 145.35 -100.7 144 C-100.67 134.97 -100.65 125.93 -100.63 116.89 C-100.61 106.2 -100.58 95.51 -100.54 84.83 C-100.51 79.5 -100.5 74.18 -100.49 68.85 C-100.49 64.04 -100.47 59.23 -100.44 54.42 C-100.43 52.7 -100.43 50.98 -100.43 49.26 C-100.45 29.69 -96.74 13.99 -82.79 -0.49 C-56.36 -24.23 -27.35 -15.74 0 0 Z " fill="#007FFF" transform="translate(101,15)"/><path d="M0 0 C10.82 9.2 18.07 20.92 19.24 35.28 C19.53 41.15 19.49 47.02 19.45 52.9 C19.45 55.14 19.46 57.39 19.47 59.63 C19.5 65.69 19.48 71.74 19.46 77.79 C19.44 84.15 19.45 90.51 19.46 96.87 C19.47 108.23 19.44 119.58 19.41 130.94 C19.38 141.21 19.38 151.47 19.39 161.74 C19.42 174.99 19.42 188.23 19.4 201.48 C19.39 206.52 19.39 211.56 19.4 216.6 C19.41 222.54 19.4 228.48 19.36 234.42 C19.35 236.6 19.35 238.77 19.36 240.94 C19.44 259.64 16.6 273.99 3.19 288 C-2.39 293.28 -8.46 296.85 -15.22 300.45 C-18.68 302.4 -21.99 304.51 -25.31 306.69 C-30.28 309.94 -35.32 312.89 -40.57 315.68 C-44.66 317.93 -48.59 320.4 -52.55 322.87 C-56.97 325.6 -61.42 328.27 -65.88 330.94 C-66.3 331.19 -66.3 331.19 -68.45 332.48 C-70.19 333.52 -71.94 334.57 -73.69 335.61 C-76.27 337.16 -78.86 338.72 -81.45 340.27 C-89.21 344.95 -96.99 349.6 -104.81 354.19 C-113.42 359.24 -121.98 364.37 -130.53 369.51 C-133.5 371.3 -136.47 373.08 -139.44 374.86 C-140.48 375.49 -141.53 376.12 -142.61 376.77 C-144.74 378.05 -146.87 379.32 -149.01 380.6 C-153.99 383.58 -158.96 386.58 -163.89 389.63 C-172.78 395.11 -181.26 400.13 -191.31 403.19 C-191.92 403.38 -192.54 403.58 -193.17 403.78 C-208.3 406.67 -223.65 402.75 -236.31 394.19 C-247.02 386.83 -254.36 377.62 -258.31 365.19 C-258.48 364.68 -258.48 364.68 -259.35 362.11 C-260.59 357.71 -260.6 353.45 -260.58 348.9 C-260.58 347.98 -260.59 347.07 -260.59 346.13 C-260.61 343.07 -260.6 340.02 -260.6 336.96 C-260.61 334.77 -260.62 332.57 -260.62 330.38 C-260.64 324.42 -260.65 318.46 -260.65 312.5 C-260.65 308.78 -260.65 305.05 -260.66 301.33 C-260.68 288.99 -260.68 276.65 -260.68 264.31 C-260.68 263.65 -260.68 262.98 -260.68 262.3 C-260.68 261.97 -260.68 261.97 -260.68 260.28 C-260.68 249.52 -260.7 238.75 -260.73 227.98 C-260.76 216.91 -260.77 205.83 -260.77 194.75 C-260.77 188.54 -260.78 182.33 -260.8 176.12 C-260.82 170.28 -260.82 164.43 -260.8 158.58 C-260.8 156.45 -260.8 154.31 -260.82 152.17 C-260.92 133.44 -258.79 118.19 -245.69 103.81 C-238.62 96.99 -230.22 92.39 -221.72 87.56 C-218.38 85.66 -215.1 83.68 -211.81 81.69 C-210.61 80.97 -209.42 80.25 -208.22 79.53 C-207.6 79.16 -206.98 78.79 -206.34 78.41 C-197.64 73.18 -188.93 67.96 -180.23 62.74 C-179.61 62.36 -178.98 61.99 -178.34 61.6 C-177.12 60.87 -175.9 60.14 -174.68 59.41 C-171.67 57.6 -168.66 55.79 -165.65 53.98 C-164.41 53.24 -163.18 52.49 -161.94 51.75 C-161.32 51.38 -160.71 51.01 -160.08 50.63 C-156.76 48.64 -153.43 46.67 -150.08 44.71 C-142.68 40.4 -135.37 35.99 -128.2 31.3 C-123.96 28.55 -119.62 26.14 -115.16 23.78 C-111.78 21.89 -108.55 19.81 -105.31 17.69 C-100.38 14.46 -95.37 11.54 -90.16 8.78 C-86.78 6.89 -83.55 4.81 -80.31 2.69 C-74.47 -1.13 -68.54 -4.65 -62.31 -7.81 C-61.56 -8.2 -60.8 -8.59 -60.02 -9 C-39.55 -18.89 -17.47 -13.18 0 0 Z " fill="#007FFF" transform="translate(1981.3125,14.8125)"/></svg>