<svg viewBox="0.002 0.169 67.749 35.661" xmlns="http://www.w3.org/2000/svg"><path id="Path" fill="#ea4b71" fill-rule="evenodd" stroke="none" d="M 60.619999 14.433998 C 57.367634 14.433609 54.527119 12.233826 53.713001 9.084999 L 45.540001 9.084999 C 43.796902 9.085251 42.309444 10.345596 42.022999 12.065002 L 41.73 13.824005 C 41.462238 15.442184 40.642475 16.917763 39.41 18 C 40.641735 19.082542 41.46077 20.558083 41.728001 22.176003 L 42.021 23.934998 C 42.307442 25.654404 43.794903 26.914742 45.537998 26.915001 L 46.581001 26.915001 C 47.478859 23.437607 50.822376 21.170311 54.385193 21.622841 C 57.948006 22.075378 60.61853 25.10656 60.61853 28.697998 C 60.61853 32.289436 57.948006 35.320618 54.385193 35.773155 C 50.822376 36.225693 47.478859 33.958397 46.581001 30.481003 L 45.537998 30.481003 C 42.051125 30.481804 39.07518 27.960609 38.502998 24.521004 L 38.209999 22.763 C 37.923557 21.043602 36.436096 19.783257 34.693001 19.782997 L 31.868 19.782997 C 31.053314 22.931465 28.212658 25.130638 24.960501 25.130638 C 21.708342 25.130638 18.867687 22.931465 18.052999 19.782997 L 14.04 19.782997 C 13.14214 23.260399 9.798623 25.527695 6.235808 25.075157 C 2.672993 24.62262 0.002471 21.591438 0.002471 18 C 0.002471 14.408562 2.672993 11.37738 6.235808 10.924843 C 9.798623 10.472305 13.14214 12.739609 14.04 16.216995 L 18.055 16.216995 C 18.869686 13.068542 21.710342 10.869362 24.9625 10.869362 C 28.214659 10.869362 31.055313 13.068542 31.870001 16.216995 L 34.695 16.216995 C 36.438 16.216995 37.924999 14.957001 38.212002 13.237 L 38.505001 11.479004 C 39.077179 8.039391 42.053123 5.518188 45.540001 5.518997 L 53.714001 5.518997 C 54.64053 1.930573 58.161087 -0.350235 61.814781 0.270874 C 65.468475 0.891983 68.037605 4.208008 67.726326 7.901016 C 67.415054 11.594032 64.32711 14.433235 60.620998 14.433998 M 60.620998 10.867996 C 62.590446 10.867996 64.186996 9.271446 64.186996 7.302002 C 64.186996 5.33255 62.590446 3.736 60.620998 3.736 C 58.651554 3.736 57.055 5.33255 57.055 7.302002 C 57.055 9.271446 58.651554 10.867996 60.620998 10.867996 M 7.133 21.566002 C 9.102448 21.566002 10.699 19.969444 10.699 18 C 10.699 16.030548 9.102448 14.433998 7.133 14.433998 C 5.163553 14.434006 3.567 16.030548 3.567 18 C 3.567 19.969444 5.163553 21.566002 7.133 21.566002 M 28.527 18 C 28.548573 19.288063 27.873749 20.487617 26.761711 21.137962 C 25.649673 21.7883 24.273327 21.7883 23.161289 21.137962 C 22.049252 20.487617 21.374428 19.288063 21.396 18 C 21.428589 16.054108 23.015333 14.493713 24.9615 14.493713 C 26.907667 14.493713 28.494411 16.054108 28.527 18 M 57.055 28.697998 C 57.055 30.66745 55.458447 32.264 53.488998 32.264 C 51.519554 32.264 49.923 30.66745 49.923 28.697998 C 49.923 26.728554 51.519554 25.132004 53.488998 25.132004 C 55.458447 25.132004 57.055 26.728554 57.055 28.697998"/></svg>