<svg version="1.2" xmlns="http://www.w3.org/2000/svg" viewBox="0 0 1615 764"><title>Netease_logo_2-svg</title><g id="Layer"><path id="Fill-1" fill-rule="evenodd" d="m43.4 584c3.6-15.7 10.7-24.9 20.7-28.5 9.3-2.8 17.8 0 24.2 9.3 5 8.5 5 19.2 0 33.4-1.4 10-1.4 19.9-0.7 30.6 2.9 10.7 2.2 20-2.1 29.2-3.6 9.3-9.3 17.8-15.7 24.9-3.6 8.6-7.8 17.8-10.7 28.5-2.9 11.4-7.8 18.5-14.3 21.4-6.4 4.2-14.9 5.7-24.9 3.5-9.3-2.8-15.7-9.2-17.9-19.2-2.8-10.7-2.1-22.1 0.8-34.2 4.2-9.2 7.8-19.2 9.2-31.3 0-17.8 5.7-33.5 17.9-47 7.1-7.1 11.4-14.2 13.5-20.6zm102-5.7c3.6-1.4 6.4-2.9 8.6-5 1.4-3.6 8.5-3.6 19.9 0 7.9 2.8 13.6 7.8 16.4 14.9 2.9 10 3.6 19.3 3.6 27.1-0.7 14.2 0.7 27.8 4.3 39.9 0.7 11.4-1.4 22.8-6.4 34.9-0.8 7.8-1.5 13.5-1.5 17-1.4 5-3.5 10-7.8 15.7-7.1 7.8-13.6 12.1-19.3 12.1q-8.5 1.1-17.1-14.9c-7.8-11.4-11.4-20.7-10.7-29.2q-6.4-44.9-4.3-59.8c1.5-7.9 3.6-20.7 5.7-39.9q5.4-12.8 8.6-12.8zm89.9-24.9c2.8-2.2 5-5 7.1-8.6 0.7-4.3 7.8-6.4 20-5.7 8.5 0 16.4 3.6 22.1 10.7 6.4 9.3 10 17.1 11.4 25.6 0.7 4.3 2.1 7.9 3.6 11.4q1 5.4 0 10.7c1.4 7.1 2.8 13.5 3.5 18.5 0.7 5 0 10.7-2.1 18.5-5 10-10.7 15.7-15.7 17.1-5.7 2.1-12.8-0.7-22.1-10-12.1-8.5-18.6-17.8-20-26.3-6.4-13.5-9.3-22.1-9.3-27.1 0-3.5-0.7-9.9-2.8-19.2 0-9.9 2.1-14.9 4.3-15.6zm-196.9-94c0.7-6.4-0.7-13.5-2.8-21.4-1.5-8.5 0-17.8 5.7-28.4q13.9-28.9 25.6-34.2c5.8-2.9 8.6-8.6 9.3-16.4 0.7-7.8 4.3-17.1 11.4-27 4.3-9.3 5-18.6 0.7-27.1-0.7-4.3-2.8-8.5-5.7-12.1q-5.3-7.5-10.7-8.5c-9.2-3.6-15.7-7.9-17.8-13.6q-3.2-4.2-8.5-6.4c-4.3-2.1-6.5-5.7-5.8-10.7 0.8-3.5-0.7-7.1-4.9-10.6-3.6-4.3-6.5-8.6-6.5-13.6-0.7-15.6 0.7-24.9 4.3-27 4.3-3.6 5.7-7.1 5-10.7 0-5.7 4.3-17.1 13.6-34.2 10.7-19.9 17.8-31.3 21.4-34.9 2.1-1.4 4.2-4.9 5.7-10.6 2.1-4.3 5-8.6 9.2-11.4 3.6-2.2 5-5 5.7-9.3q2.2-7.5 8.6-10.7c3.6-1.4 7.1-4.9 10-11.3 8.5-17.1 15.7-25 20.7-25 5 0 9.2-0.7 12.8-3.5 5.7-2.9 12.1-3.6 20.7-0.7q10.7 3.2 15 2.1c8.5-2.1 19.2 0 31.3 6.4 13.6 9.3 20.7 19.2 20.7 29.9 0.7 10-1.4 16.4-5 18.5-9.2 7.1-16.4 10.7-22.1 10-6.4-0.7-11.4 0-13.5 2.8q-6.4 5.4-15 4.3c-5-1.4-9.3 0-13.6 3.6q-5.3 4.2-8.5 4.2c-3.6-0.7-6.4 1.5-10 5-4.3 5.7-7.1 10-7.8 13.5-1.5 6.5-3.6 10-6.5 11.4-3.5 3.6-7.1 8.6-9.2 15-2.9 7.1-5 11.4-7.9 11.4-3.5 2.8-7.1 10.7-9.3 24.2-7.1 14.9-9.2 25.6-5.7 33.4 6.5 9.3 11.5 15 15 17.8 4.3 0.8 6.4 2.9 7.2 5 1.4 4.3 5.7 7.1 12.8 7.1 5.7 0.8 10 1.5 11.4 3.6q11.8 5.3 19.3-2.1c4.2-4.3 8.5-7.2 12.8-7.2 6.4-0.7 10-4.2 12.8-11.3 1.5-4.3 3.6-6.5 5.7-8.6 5.7-3.5 9.3-9.2 12.2-17.8q3.2-8.5 6.4-12.8c3.5-4.3 5-8.5 3.5-12.1-0.7-4.3-5.7-9.3-16.4-15-4.2-2.8-4.9-8.5-0.7-17.8q4.3-8.5 15-8.5c3.6-0.7 7.9-2.1 10.7-4.3 4.3-2.8 8.6-2.8 13.6-0.7 3.5 1.4 7.8 2.9 13.5 2.9q23.5 2.1 38.5 21.3c6.4 8.6 7.9 14.3 5.7 17.8-2.8 4.3-2.8 10 0.7 17.1 2.2 6.4 2.2 13.5 0 19.9-4.2 10-9.2 15-14.9 15.7-14.3 4.3-25 10.7-32.1 17.8-5 4.3-7.9 9.3-8.6 14.2-1.4 2.9-2.8 5.7-3.6 9.3 0 1.4 0 2.8 0.8 3.6 1.4 5.7 2.1 12.1 2.1 20.6 0.7 0.7 1.4 1.4 1.4 1.4 1.5 3.6 3.6 5 5.7 5.7 5.7 2.2 9.3 6.4 12.2 13.6 2.1 5.6 5.7 9.9 9.2 14.2 3.6 2.1 7.2 7.1 9.3 14.2 4.3 11.4 7.1 22.1 7.8 30.6 1.5 11.4 2.9 20 5 25.7 2.9 7.8 4.3 14.2 3.6 19.9-0.7 12.1-4.3 22.1-11.4 30.6-4.3 4.3-9.3 7.9-14.3 10q-4.3 5.3-12.8 10.7c-10.7 6.4-19.3 14.2-26.4 23.5-10.7 12.8-26.4 19.9-46.4 21.3-7.8 0-15.7 1.4-22.8 3.6-9.3 2.1-18.5 0.7-27.1-4.3-11.4-6.4-22.1-8.5-32.1-8.5-16.4 1.4-32.1-4.3-47.1-16.4-12.1-23.5-18.5-38.5-17.8-47.7zm146.9-131c-0.7 0-0.7 0-0.7 0.7-4.3 3.6-11.4 5.7-19.9 6.4-7.9 1.4-12.9 5-15 12.1-4.3 10.7-12.1 19.2-22.8 25.6-7.2 4.3-11.5 10-12.2 16.4-1.4 9.3-4.2 16.4-10 21.4-7.1 6.4-10.7 12.8-9.9 18.5 2.1 10 7.8 19.2 16.4 27.8 6.4 3.5 12.8 4.9 19.2 4.9 8.6 0.7 14.3 2.2 17.9 4.3 5.7 3.6 9.9 4.3 14.2 2.1 7.9-2.8 13.6-3.5 17.8-1.4 6.5 1.4 14.3 0 24.3-4.3 10-4.2 18.5-11.3 25-19.9 0-10 1.4-17.8 3.5-23.5 2.9-7.1 3.6-15.6 3.6-26.3-1.4-10-3.6-17.1-7.9-20.7-1.4-1.4-2.8-5-4.2-9.9-2.2-6.4-5-11.4-9.3-15-2.1-2.1-3.6-4.3-4.3-5.7-0.7-1.4-1.4-3.5-3.6-5-6.4-3.5-13.5-6.4-22.1-8.5zm587.7 339.6c2.9 13.5 2.9 24.9 0.7 33.4-2.8 5.7-4.2 10.7-5 15-2.1 5.7-4.2 10-6.4 12.1-8.5 7.1-17.8 10.7-28.5 10.7-9.3-0.7-17.8-5-24.2-14.3-7.2-11.4-10.7-20.6-10-28.4 0.7-6.4 0-12.1-2.9-17.1-1.4-4.3-1.4-9.3 0-14.3q2.2-8.5 0-19.2c-4.3-16.4-5.7-29.2-4.3-37.7 2.9-24.9 2.2-49.1-1.4-73.3-0.7-6.5-0.7-12.9 0-18.6 0.7-6.4 0.7-14.9 0-27-1.4-14.2-0.7-25.6 1.4-34.2 2.9-10.7 3.6-22.8 1.5-34.9-1.5-6.4-2.9-14.9-3.6-24.9-5-5.7-9.3-9.2-13.6-11.4-7.1-6.4-12.1-11.4-14.9-13.5-1.5-0.7-2.9-1.4-4.3-1.4-17.1-5-35-5.7-52.1-2.9-7.1 1.4-13.5 2.9-19.2 2.9q-9.7 1-12.9 4.2c-3.5 1.5-6.4 2.9-8.5 5 0.7 0.7 0.7 2.2 0.7 2.2 0 6.4 0 12.8 0.7 19.9 0.7 4.3 0 8.5-1.4 12.1-0.7 0.7-0.7 1.4-0.7 3.6 4.2 5.7 9.2 9.9 14.9 14.2 0.7 0.7 1.5 1.4 1.5 1.4 7.1-0.7 15.7 0 26.3 1.4 10.7 0.8 20 0.8 28.6 0 9.2 0.8 17.8 3.6 26.4 9.3 9.2 5.7 14.2 15 14.2 26.3 0.7 10-5 17.8-16.4 23.5-13.5 5-28.5 5-46.3-0.7-12.2-3.5-25-3.5-38.5-1.4-10 2.8-19.3 2.8-28.6 0.7h-0.7c-22.8 7.8-38.5 14.3-47.1 19.9l0.8 0.8c1.4 8.5 0 19.2-5 33.4-1.5 7.1-1.5 12.1-0.8 15.7v17.8c0 6.4 1.5 12.8 3.6 17.1q2.2 5.3 4.3 8.5c7.1 4.3 9.3 10.7 5 19.2-3.6 8.6-8.6 14.3-15.7 17.1-4.3 0.7-8.6 0.7-11.4 0q-5.4-2.1-12.9-4.3c-12.1-3.5-20.6-13.5-25.6-30.6-4.3-22.7-5.7-41.3-4.3-54.8q2.1-9.6 2.1-17.1v-6.4c-0.7-3.5-2.1-7.1-4.2-9.2-1.5-3.6-3.6-5.7-5-7.9-5 0-9.3 0-13.6-0.7-5-2.8-9.3-5-12.8-7.1 0 0.7 0 2.1 0.7 4.3 0 7.1-1.4 16.4-3.6 26.3-3.5 8.6-5.7 16.4-5 23.5-0.7 5-0.7 10-1.4 15-1.4 4.2-2.1 8.5-1.4 13.5 0 5-1.5 10-3.6 15.7q-4.3 8.5-4.3 19.2c0 3.5-1.4 9.2-3.5 16.3-8.6 20.7-13.6 37.1-15.7 49.2-2.9 7.8-7.9 15.6-14.3 22.8q-15 12.8-27.8 14.9c-7.1 0.7-15-1.4-23.5-5-7.2-5.7-12.2-12.1-14.3-19.2-1.4-7.1-2.1-14.2-1.4-21.4q3.2-10.6 6.4-19.2c3.5-4.3 8.5-10.7 14.2-19.9 9.3-10.7 14.3-20 14.3-27.1 0.7-5.7 2.9-9.9 5-12.1q7.5-19.2 10.7-34.1c3.6-7.2 5-13.6 5-19.3 0-22 4.3-43.4 13.5-64 5-12.9 5.8-25 2.2-37.8 1.4-9.2 2.1-15.6 2.1-19.9 2.9-8.6 4.3-16.4 3.6-24.9-2.1-13.6-2.9-26.4-0.7-38.5 0.7-10.6 0.7-30.6-2.2-61.2-1.4-17.8-6.4-31.3-13.5-41.3-10-14.2-15.7-32.7-16.4-54.8q-4.3-34.2 10.7-61.9c9.3-22.1 18.5-34.9 27.1-39.2 12.8-6.4 24.2-6.4 34.2 0.7-0.7-0.7-0.7-0.7 0-0.7 2.2-0.7 6.4-0.7 11.4 0 3.6 0 8.6 0 15-0.7 12.8-4.3 25.7-5.7 37.8-3.6 9.3 2.2 15.7 2.9 21.4 0.7 11.4-5.7 20.7-7.8 25.7-5.7 3.5 0.8 7.8 0 12.8-2.8 13.6-5.7 25-6.4 35-3.6 10.7 2.9 21.4 2.9 32.1 0.7 17.1-2.8 32.1-2.8 44.9-0.7 7.8 0.7 14.3 1.5 19.2 0.7 6.5 0 11.5 1.5 15 5 6.4 3.6 12.1 5.7 19.3 5 9.3-0.7 16.4 0 22.1 2.9 7.1 3.5 12.1 7.8 14.3 11.4q4.2 9.6 17.1 14.9c14.2 7.8 23.5 19.9 28.5 37q3.2 13.9 0 29.9c-1.4 7.1-4.3 12.1-8.6 15.7-4.2 4.3-6.4 9.2-7.1 14.9-0.7 6.4-1.4 10-3.6 12.1-2.8 6.4-3.5 12.1-1.4 17.1 1.4 5 1.4 10.7 0 18.5-3.5 18.5-4.3 38.5-2.8 59.1 0 13.6-2.2 24.9-5.7 34.2-1.5 5-1.5 12.1 0.7 20.6 1.4 7.2 1.4 15.7-0.7 25.7q-3.3 12.8 0 25.6c3.5 20.7 5 39.2 2.8 54.1-3.6 25.6-2.1 44.2 3.6 56.3 10.7 32 16.4 57.6 17.1 77.6 1.4 17.8 3.6 31.3 7.1 43.4zm-201.8-79.8c4.3-0.7 12.1-2.1 22.1-2.1 9.3-0.7 16.4-2.1 20-4.3q17.1-5.3 34.2 4.3c9.3 5 15 13.5 16.4 24.9 0.7 12.8-2.8 21.4-11.4 26.4-10.7 6.4-25.7 8.5-44.2 6.4-5.7-1.4-8.6-1.4-9.3-0.7-3.6 0.7-7.1 0.7-10.7 0.7-4.3 0-8.6 0.7-11.4 2.8-10 3.6-22.8 2.9-37.8-0.7-7.9-5-12.1-12.1-12.8-20.6 0.7-6.4 2.8-12.8 6.4-20 6.4-7.8 13.5-12.1 22.8-12.1 6.4-2.1 12.1-3.5 15.7-5zm114.1-275.5c3.6-3.5 6.4-6.4 8.6-9.9v-11.4c-0.8-12.1 0-22.8 2.8-31.4 1.4-9.2 2.2-23.4 1.4-42-1.4-15.6-8.5-29.9-20.6-44.1-31.4-27-57.1-37-77.8-29.9-11.4 3.6-25.7 2.9-44.2-0.7-24.3-5.7-47.1-2.9-69.9 7.1-10.7 4.3-18.5 6.4-23.5 5.7-5-0.7-9.3-0.7-13.6 0-2.1 0.7-3.6 0.7-4.3 1.4-19.2 7.9-32.1 14.3-39.2 20-0.7 1.4-1.4 2.8-1.4 4.9-9.3 18.6-14.3 32.1-13.6 39.2 2.9 17.8 4.3 29.9 5 37-0.7 17.1 1.5 31.3 8.6 41.3v1.4l1.4 0.8c10 8.5 18.6 14.9 26.4 19.9 0.7 0.7 2.1 2.1 2.9 2.1q10.6-3.2 19.2-2.1c7.9 1.4 16.4 1.4 25 0 7.1-2.1 14.9-2.1 22.1-0.7 9.3 1.4 16.4 0 22.1-4.3 6.4-2.1 16.4-2.8 30.7-2.1h0.7c5.7-3.6 9.2-5.7 12.1-8.6 1.4-2.1 3.6-4.2 5.7-6.4 0.7-3.5 2.1-7.1 4.3-9.2 2.1-4.3 4.3-9.3 5.7-16.4 0-5-0.7-12.1-2.2-20.7-0.7-6.4-0.7-12.1 0-15.6 4.3-10 7.2-18.5 7.9-24.9q0-19.3 15-29.9c11.4-8.6 19.9-12.1 27.1-10.7 6.4 1.4 11.4 6.4 14.9 13.5 4.3 9.3 6.5 19.9 5.8 31.3-1.5 8.6-3.6 17.1-5.8 24.2-3.5 7.9-7.8 15-13.5 21.4-6.4 7.1-9.3 17.8-10 31.3-0.7 2.9-1.4 5.7-1.4 9.3 1.4 1.4 3.6 3.5 5 5.7 0.7 0 1.4 0.7 1.4 2.1 7.1-0.7 16.4 0 27.1 1.4 10 1.5 19.3 1.5 27.8 0.7 0.7 0 2.2 0.8 2.9 0.8q0.4-0.9 0.8-1.4c-0.1 0.2 0 0.2 0.6-0.1zm-0.6 0.1c0.1-0.3 0.6-0.8 0.6-0.8 0 0-0.3 0.3-0.6 0.8zm-174.1 116.7c0-1.4 0-3.6 0.7-5 0.7-6.4 0-11.4-1.4-16.4v-20.6c-1.5-2.2-3.6-3.6-5.8-4.3-6.4-3.5-13.5-6.4-22.1-8.5h-0.7c-9.2 5-17.1 7.8-22.8 8.5-6.4 0.7-12.8 1.4-18.5 1.4-2.9 1.5-4.3 2.2-5 2.2-6.5 3.5-10 7.8-12.9 11.4-2.8 2.8-5 6.4-6.4 9.9-0.7 11.4-2.1 20-4.3 26.4-3.5 7.1-5 14.9-4.3 24.2 6.5-7.1 14.3-12.1 25-14.3 9.3-3.5 16.4-4.2 22.1-4.2q9.6 2.1 19.3 0c6.4-1.5 12.1-1.5 17.8 0h2.1c7.2-3.6 13.6-7.2 17.2-10.7zm-52.8-222.1c2.8-1.5 5-4.3 6.4-7.2 0.7-4.2 6.4-6.4 18.5-5.6 8.6 0.7 15.7 3.5 20.7 9.2 5.7 8.5 9.3 16.4 10.7 24.9 0.7 3.6 2.2 7.9 4.3 10.7 0.7 2.8 0.7 6.4 0 10 1.4 7.8 2.9 13.5 3.6 17.1 0.7 4.2 0 9.9-2.9 17-4.3 9.3-8.5 15-14.2 16.4-5 2.2-12.2-0.7-20-9.2-12.1-7.9-18.6-15.7-20-24.2-5.7-12.9-8.5-21.4-9.3-26.4 0-3.5-0.7-9.2-2.8-18.5 1.4-8.5 2.8-13.5 5-14.2zm674-126c-16.4-4.3-24.3-12.9-24.3-25-0.7-12.1 3.6-21.3 12.9-28.4 10.7-8.6 23.5-13.6 39.2-14.3q13.9-1 29.9-4.3 21.4-8.5 49.3-8.5c22.8-0.7 40.6 0.7 54.2 2.9 17.1 4.2 35.6 5.6 54.2 3.5 29.2-3.5 54.9-0.7 77 10 5.7 4.3 13.5 5.7 24.2 5 12.2 0.7 23.6 5.7 35.7 15.6 13.6 8.6 21.4 15.7 22.1 22.8 0.7 6.4 3.6 12.1 9.3 17.1 7.1 7.8 10.7 22.1 10 42 1.4 10 4.2 18.5 7.8 25.6q6.4 10.7 6.4 34.2v49.8c-0.7 23.5-6.4 39.9-17.1 50.6q-12.8 19.2-40.6 29.9c-13.6 7.8-30.7 10.7-52.8 8.5-15-0.7-27.8-0.7-38.5 1.5-12.2 4.2-23.6 4.9-34.3 1.4-9.9-4.3-19.9-5-30.6-1.4-12.2 6.4-23.6 6.4-34.3 1.4-7.8-3.6-16.4-3.6-24.9-1.4-2.9 9.9-6.4 19.2-11.4 28.4-5 7.9-12.2 15-22.2 22.1-4.9 4.3-9.2 8.5-13.5 14.2-3.6 8.6-9.3 13.6-15.7 15.7-7.8 2.8-14.3 7.1-20 12.1-9.2 10-19.9 17.1-32.8 20.6q-13.9 6.5-27.8 15c-7.8 6.4-19.2 9.3-34.9 10-13.6 0.7-25 4.2-35 10.6-10.7 5-18.5 7.2-24.2 6.5-6.4-0.8-12.2 0-15.7 1.4-13.6 5-27.1 5.7-40.7 1.4-11.4-3.6-17.1-7.1-17.8-10.7-0.7-4.3-2.1-7.1-4.3-7.8q-3.2-2.1-4.3-10.7c-0.7-8.5 1.5-16.4 7.2-23.5 5-5 12.8-9.2 22.8-12.1 10.7-2.8 21.4-2.8 31.4-0.7 7.1 1.4 16.4 2.1 27.1 2.1 10.7-1.4 19.9-4.2 29.2-9.2 8.6-6.4 17.8-10 28.5-10.7 10.7-1.4 20-6.4 28.6-13.5 7.8-5.7 16.4-10 24.9-11.4 12.9-6.4 23.6-14.3 32.1-24.2 3.6-6.4 6.5-12.1 10-15.7-14.2-4.3-27.1-3.5-39.2 1.4-8.6 3.6-21.4 2.2-39.9-3.5-19.3-5-31.4-12.1-35-20.7-1.4-8.5-7.8-17.1-18.5-24.2-8.6-5-11.5-16.3-10-33.4-0.7-26.4-2.2-47-4.3-64.1-2.9-10-2.9-19.9-0.7-29.9 0.7-6.4 1.4-13.5 0.7-20.7-0.7-14.9 2.1-28.4 7.8-39.8 3.6-8.6 8.6-14.3 14.3-18.5 5-4.3 10.7-5.7 15.7-6.4 6.4 1.4 12.8 2.8 17.8 4.9q7.5 6.5 10.7 19.3c3.6 9.9 5 25.6 2.2 48.4-3.6 26.3-4.3 47-2.2 60.5 3.6 17.8 7.9 29.9 13.6 37 6.4 11.4 17.1 19.2 31.4 23.5 20.6 5.7 43.5 5.7 68.4-1.4 32.1-9.3 64.2-10.7 94.2-3.6 19.2 4.3 37.1 3.6 52-1.4 15-4.3 32.1-6.4 50.7-5.7 15.7 2.1 28.5-2.1 37.8-12.8 7.1-5.7 13.5-15.7 18.5-30.6 2.2-16.4 0.7-31.3-4.3-43.5-4.2-11.3-5.7-21.3-5.7-29.9q-1-8.5-4.2-19.2c-6.5-8.5-10.7-14.2-10.7-17.1-2.2-6.4-5-11.4-9.3-13.5-5.7-2.1-11.4-5-15-8.5-5.7-7.1-30.7-12.1-76.3-14.3-31.4 0.7-57.1 0-77.7-2.1-27.9-5.7-53.5-2.9-77.8 9.3-22.8 12.1-42.8 15.6-61.3 12.1zm110.5 54.1c20.7-4.3 42.1-5 62.8-0.8 16.4 4.3 29.9 5 42.8 1.5 15-3.6 27.8-2.9 37.8 2.8 10 7.1 15 17.1 15.7 29.2-2.2 11.4-7.2 19.2-14.3 23.5-10 4.3-19.3 5-28.5 0.7-17.1-4.3-32.8-5-45.7-0.7-16.4 5.7-31.4 6.4-44.9 0.7-13.6-3.5-32.8-2.1-55.6 3.6-17.2 5.7-32.1 5.7-44.3 0-9.2-7.1-12.8-16.4-12.8-26.4 1.4-9.9 5-18.5 12.8-25.6 7.2-7.1 17.2-9.3 29.3-5 10 2.9 25.7 2.2 44.9-3.5zm161.9 621.5c-13.5 5.7-24.2 7.8-32.1 5.7-9.2-3.6-17.1-5-22.8-5.7-11.4-1.4-19.3-5-22.1-10.7q-3.2-9.6-10.7-17.1-7.5-6.4-8.6-14.9c-1.4-4.3-3.5-8.6-6.4-12.1-6.4-8.6-9.3-17.1-10-25.7q-1-13.9 6.5-19.2c7.8-5.7 17.8-5 29.9 1.4 5.7 2.9 12.1 7.9 19.3 13.6 4.2 2.1 7.8 3.5 11.4 3.5 10.7 3.6 26.4 2.2 47-3.5 26.4-5 43.6-11.4 51.4-18.6 2.9-4.2 6.4-7.1 11.4-7.1 11.4-5 24.3-16.3 38.5-33.4 5-7.2 9.3-12.8 13.6-16.4 10-10 18.5-26.4 24.9-48.4 4.3-23.5 4.3-39.9-0.7-49.9-5.7-17.8-17.1-33.4-32.1-47.7-2.8-1.4-5-2.8-7.8-3.5-7.9 0.7-13.6 0.7-17.1 1.4-8.6 1.4-15 2.9-20 3.6-5.7 1.4-10 2.1-13.6 2.1-3.5-0.7-5.7-5.7-8.5-16.4-3.6-11.4-7.1-20.6-10.7-29.2-2.2-3.5-3.6-5.7-4.3-7.8-3.6-0.7-6.4-0.7-10.7-0.7-14.3-2.8-24.2-2.8-29.9-0.7-10.7 2.8-18.6 3.5-24.3 1.4h-1.4c-2.9 8.6-9.3 15.7-20 22.1-6.4 3.5-11.4 8.5-15 14.2-11.4 9.3-22.1 17.8-32.8 24.9-7.8 4.3-15 10-19.9 17.1q-18.2 16-32.1 23.5c-5.7 2.9-11.5 7.1-16.4 12.8-8.6 8.6-17.2 15-25.7 20-7.2 3.5-13.6 7.8-19.3 14.9-5.7 6.4-14.2 11.4-27.1 15-6.4 2.8-14.2 8.5-22.8 16.3-7.1 4.3-18.5 10-34.2 16.4-20.7 9.3-35 14.3-43.5 14.3-4.3-0.8-12.2 2.8-22.9 9.9-11.4 7.9-23.5 12.1-34.9 12.8-14.3 1.5-25.7-0.7-32.8-5.7-10-6.4-16.4-14.9-18.6-27-1.4-7.8 2.9-16.4 12.9-26.4 9.2-9.2 20.7-13.5 34.2-14.2 24.3-2.1 40.7-6.4 49.2-11.4 5.7-3.5 14.3-5.7 26.4-8.5 28.5-9.3 47.1-17.8 54.9-24.9 5-5.7 12.2-10 20.7-13.6 7.9-3.5 14.3-8.5 20-14.2 10.7-7.1 19.2-12.1 26.4-15.7 12.1-7.1 27.1-15.6 44.2-26.3 14.3-9.3 23.5-16.4 29.2-19.9 4.3-5 9.3-9.3 15-13.6 12.1-6.4 23.5-14.2 34.2-22l-0.7-0.8c-7.8-4.2-11.4-12.8-11.4-24.9 0.7-11.4 7.2-19.9 19.3-24.9 12.1-3.6 23.5-5.7 34.2-5q16.1 1.1 34.2 4.3c12.9 4.3 22.9 5.7 29.3 3.6 4.3-1.5 10.7-2.2 17.8-1.5q9.6 5.4 23.6 4.3c5.7-1.4 12.1 0.7 19.2 5.7 12.1 9.3 25 15.7 38.5 20.6 12.1 5 20 11.4 23.6 18.6 7.8 8.5 18.5 18.5 32.8 29.1 6.4 4.3 9.2 10.7 10 19.3 3.5 6.4 7.8 14.2 12.8 24.9 5.7 6.4 7.8 14.2 7.1 23.5 1.4 6.4 3.6 12.8 7.9 17.1 2.8 4.2 2.8 9.2 0.7 14.2-3.6 5.7-3.6 13.5-1.4 22.1 3.5 6.4 2.1 18.5-5 37.7-0.8 4.3-1.5 10-1.5 17.1 0 9.2-5.7 22.8-15.7 39.1-14.2 16.4-23.5 25-28.5 25.7-3.6 2.8-7.8 7.8-10.7 14.9-8.5 10.7-21.4 22.1-38.5 32.1-34.2 23.5-57.8 36.3-69.9 38.4-10.7 0.7-23.5 4.3-37.1 10zm-226.1-128.2c5.7-6.4 12.9-12.1 22.1-15.6 8.6-3.6 15.7-9.3 22.9-15.7 11.4-8.5 21.4-14.2 28.5-18.5 12.8-7.8 28.5-17.8 47.8-29.9 15-10.7 25.7-18.5 32.8-22.1 3.6-6.4 9.3-12.1 15.7-15.6 15.7-9.3 30.6-20 44.2-32.1 11.4-7.8 20.7-10.7 29.2-8.5 12.9 3.5 19.3 10.7 18.6 22.8-2.2 10.6-9.3 19.9-22.1 27-6.4 3.6-11.4 9.3-16.4 16.4-12.9 10.7-24.3 19.9-35 28.5-9.3 4.2-16.4 11.4-22.1 19.9-12.8 12.1-24.2 20.6-34.9 25.6-2.9 5.7-4.3 11.4-5 18.5q-3.2 13.9-4.3 15c-4.3-0.7-9.3-0.7-14.3 0-3.5 0.7-9.2 1.4-16.4 1.4-2.1 0-3.5 0-4.3 0.7-0.7 0-1.4 0-1.4 0.7-7.8 5-14.2 11.4-20 18.5-5.7 5.7-15.6 11.4-29.2 16.4-7.8 3.6-16.4 9.3-25 18.5-7.1 5.7-19.2 12.1-37 19.3-22.9 11.3-38.6 17-47.8 17-5-0.7-13.6 3.6-25 11.4-13.5 8.6-26.4 13.6-38.5 14.3-15.7 1.4-27.8 0-35.7-5-10.7-6.4-17.8-16.4-20.6-29.9-1.5-9.3 2.8-19.2 13.5-29.9 10-10 22.8-15 37.8-15.7q38.5-5.3 53.5-14.9c6.4-4.3 16.4-7.9 29.9-10 30-11.4 50-21.4 58.5-28.5z" fill="#c22b2f"/></g></svg>