<svg version="1.2" xmlns="http://www.w3.org/2000/svg" viewBox="0 0 1500 500"><title>Nintendo-svg</title><g id="layer1"><path id="rect80" d="m0 0h1500v500h-1500z" fill="#e60012"/><path id="path29" fill-rule="evenodd" d="m277.4 407.7c-100.3-0.1-167.4-71.2-167.4-157.4 0-86.3 67.2-158.2 167.3-158h945.4c100.1-0.2 167.3 71.7 167.3 158 0 86.2-67.1 157.3-167.4 157.4zm0.3-276.6c-79.5 0.2-128.2 53.3-128.2 119 0 65.7 48.4 119.2 128.2 118.9h944.5c79.8 0.3 128.3-53.2 128.3-118.9 0-65.7-48.8-118.8-128.2-119zm994.8 91.3c-12.7 0-22.9-10.2-22.9-22.9 0-12.6 10.2-22.8 22.9-22.8 12.6 0 22.8 10.2 22.8 22.8 0 12.7-10.2 22.9-22.8 22.9zm18.4-22.8c0-10.3-8.2-18.5-18.4-18.5-10.2 0-18.5 8.2-18.5 18.5 0 10.2 8.3 18.4 18.5 18.4 10.2 0 18.4-8.2 18.4-18.4zm-17.9-13c7.3 0 10.8 2.4 10.8 7.3 0 3.3-2 5.8-5.5 6.7l5.7 11.3h-6.9l-4.8-10.4h-3v10.4h-6.2v-25.3zm-3.8 11.2h3.1c3.5 0 5.2-1 5.2-3.6 0-2.6-1.8-3.7-5.6-3.7h-2.7zm-434.7 91.5c-7.8 23.4-33.2 40.5-63.4 40.5-36.3 0-65.7-24.8-65.7-55.4 0-30.6 29.4-55.4 65.7-55.4 36.3 0 65.9 25.4 65.9 56 0 0-84.1 0-84.1 0 0 0 0 15 0 20.4 0 18 12.1 22 18.7 22 6.6 0 18.4-4 18.4-22 0-5.6 0-6 0-6zm-44.3-29.7c0.1-8.7-0.1-14.5-2.9-19.4-3.5-6.1-9.9-9-15.7-9-5.8 0-12.2 2.9-15.7 9-2.8 4.9-3 10.7-3 19.4zm-18.5-28.4h-0.1q0 0 0.1 0 0 0 0 0zm158.8-10.6c16.7-0.5 50.6 10.4 50.4 49.5-0.1 6.9-0.1 53.7-0.1 53.7h-44.3c0 0 0-58.7 0-64.8 0-8.6-8.2-18.2-20.4-18.2-12.2 0-21.2 9.6-21.2 18.2 0 4.2 0 64.8 0 64.8h-44.3l0.1-98.7h44.3c0 0-0.1 7.9 0 10.4 8.5-8.2 20.8-14.5 35.5-14.9zm-362.7 0c16.7-0.5 50.5 10.4 50.3 49.5-0.1 6.9 0 53.7 0 53.7h-44.4c0 0 0-58.7 0-64.8 0-8.6-8.2-18.2-20.4-18.2-12.1 0-21.2 9.6-21.2 18.2 0 4.2 0.1 64.8 0.1 64.8h-44.3l-0.1-98.7h44.4c0 0-0.1 7.9 0 10.4 8.5-8.2 20.8-14.5 35.6-14.9zm509.3-45.2h44v148.4h-44.1c0 0 0-4.8 0-5.7-17.1 10.8-36.4 10.7-51.4 3.7-4-1.8-30.5-14.5-30.5-48.9 0-26.1 24.6-54.5 56.7-51.7 10.6 0.9 18.2 4.8 25.3 8.8 0-22.8 0-54.6 0-54.6zm0.3 98.6c0 0 0-12.4 0-17.7 0-15.2-10.5-19.1-17.5-19.1-7.1 0-17.5 3.9-17.5 19.1 0 5.1 0 17.6 0 17.6 0 0 0 12.3 0 17.6 0 15.2 10.4 19.2 17.5 19.2 7 0 17.5-4 17.5-19.2 0-6.3 0-17.5 0-17.5zm123.5 55.2c-36.1 0-65.2-24.7-65.2-55.4 0-30.6 29.1-55.4 65.2-55.4 36.1 0 65.2 24.8 65.2 55.4 0 30.7-29.1 55.4-65.2 55.4zm18-55.5c-0.1-3.9-0.1-15-0.1-21 0-15.6-9.3-22.1-18.2-22.1-8.9 0-18.3 6.5-18.3 22.1 0 6 0 20.6 0 20.6 0 0 0 15.3 0 21.3 0 15.7 9.3 22.2 18.3 22.2 8.9 0 18.2-6.5 18.2-22.2 0-6 0-20.9 0-20.9zm-800.3-98.4h44.7v30.4h-44.7zm0.1 148.4v-98.7h44.6v98.7zm224 0v-98.5h-24.3v-14.6l24.3-0.1v-19.9h44.7v19.9h24.1v14.7h-24.1v98.5zm-405.6 0v-148.4h46.3l63.9 103.5v-103.5h45.9v148.4h-45.8l-64.3-103.5v103.5z" fill="#ffffff"/></g></svg>