<?xml version="1.0" encoding="UTF-8"?>
<!-- Generated by Pixelmator Pro 3.6.14 -->
<svg width="36" height="36" viewBox="0 0 36 36" xmlns="http://www.w3.org/2000/svg">
    <path id="Path" fill="#191919" fill-rule="evenodd" stroke="none" d="M 19.799999 0.259998 L 19.059999 9.380001 C 18.709999 9.34 18.360001 9.32 18 9.32 C 17.549999 9.32 17.110001 9.35 16.68 9.42 L 16.26 5 C 16.25 4.860001 16.360001 4.74 16.5 4.74 L 17.25 4.74 L 16.889999 0.27 C 16.879999 0.130001 16.99 0.009998 17.120001 0.009998 L 19.57 0.009998 C 19.709999 0.009998 19.82 0.130001 19.799999 0.27 L 19.799999 0.27 Z M 13.62 0.709999 C 13.58 0.580002 13.44 0.5 13.31 0.549999 L 11.01 1.389999 C 10.88 1.439999 10.82 1.59 10.88 1.709999 L 12.75 5.790001 L 12.04 6.049999 C 11.91 6.1 11.85 6.25 11.91 6.369999 L 13.82 10.380001 C 14.51 10 15.26 9.709999 16.049999 9.529999 L 13.63 0.709999 Z M 7.98 3.25 L 13.27 10.709999 C 12.6 11.15 11.99 11.67 11.47 12.27 L 8.3 9.15 C 8.2 9.049999 8.21 8.889999 8.31 8.799999 L 8.89 8.32 L 5.74 5.130001 C 5.64 5.030001 5.65 4.869999 5.76 4.780001 L 7.63 3.209999 C 7.74 3.119999 7.89 3.139999 7.97 3.25 Z M 3.54 7.57 C 3.43 7.49 3.27 7.530001 3.2 7.65 L 1.98 9.77 C 1.91 9.889999 1.96 10.040001 2.08 10.1 L 6.14 12.02 L 5.76 12.67 C 5.69 12.790001 5.74 12.950001 5.87 13 L 9.91 14.85 C 10.2 14.1 10.59 13.4 11.07 12.77 L 3.54 7.57 Z M 0.55 13.33 C 0.57 13.189999 0.71 13.110001 0.84 13.139999 L 9.69 15.450001 C 9.46 16.200001 9.33 16.99 9.31 17.809999 L 4.88 17.450001 C 4.74 17.440001 4.64 17.309999 4.67 17.17 L 4.8 16.43 L 0.33 16.01 C 0.19 16 0.1 15.869999 0.12 15.73 L 0.54 13.32 L 0.54 13.32 Z M 0.22 19.309999 C 0.08 19.32 -0.01 19.450001 0.01 19.59 L 0.44 22 C 0.46 22.139999 0.6 22.219999 0.73 22.190001 L 5.07 21.059999 L 5.2 21.799999 C 5.22 21.940001 5.36 22.02 5.49 21.99 L 9.77 20.809999 C 9.52 20.07 9.36 19.280001 9.32 18.469999 L 0.21 19.309999 Z M 1.64 25.65 C 1.57 25.530001 1.62 25.379999 1.74 25.32 L 10 21.4 C 10.31 22.139999 10.73 22.83 11.23 23.450001 L 7.61 26.030001 C 7.5 26.110001 7.34 26.08 7.27 25.959999 L 6.89 25.299999 L 3.2 27.85 C 3.09 27.93 2.93 27.889999 2.86 27.77 L 1.63 25.65 Z M 11.65 23.93 L 5.22 30.440001 C 5.12 30.540001 5.13 30.700001 5.24 30.790001 L 7.12 32.360001 C 7.23 32.450001 7.38 32.43 7.46 32.32 L 10.06 28.66 L 10.64 29.15 C 10.75 29.24 10.91 29.219999 10.99 29.1 L 13.51 25.440001 C 12.83 25.02 12.2 24.51 11.66 23.93 Z M 10.38 34.380001 C 10.25 34.330002 10.19 34.18 10.25 34.060001 L 14.06 25.74 C 14.76 26.1 15.52 26.370001 16.309999 26.52 L 15.19 30.82 C 15.16 30.950001 15.01 31.030001 14.88 30.98 L 14.17 30.719999 L 12.98 35.049999 C 12.94 35.18 12.8 35.259998 12.67 35.209999 L 10.37 34.369999 L 10.37 34.369999 Z M 16.940001 26.629999 L 16.200001 35.75 C 16.190001 35.889999 16.299999 36.009998 16.43 36.009998 L 18.879999 36.009998 C 19.02 36.009998 19.129999 35.889999 19.110001 35.75 L 18.75 31.280001 L 19.5 31.280001 C 19.639999 31.280001 19.75 31.16 19.74 31.02 L 19.32 26.6 C 18.889999 26.67 18.450001 26.700001 18 26.700001 C 17.639999 26.700001 17.290001 26.68 16.940001 26.629999 L 16.940001 26.629999 Z M 25.76 1.939999 C 25.82 1.810001 25.76 1.669998 25.629999 1.619999 L 23.33 0.779999 C 23.200001 0.73 23.059999 0.810001 23.02 0.939999 L 21.83 5.27 L 21.120001 5.01 C 20.99 4.959999 20.85 5.040001 20.809999 5.17 L 19.690001 9.470001 C 20.49 9.630001 21.24 9.9 21.940001 10.25 L 25.76 1.939999 L 25.76 1.939999 Z M 30.780001 5.57 L 24.35 12.08 C 23.809999 11.5 23.190001 10.99 22.5 10.57 L 25.02 6.91 C 25.1 6.799999 25.26 6.77 25.370001 6.860001 L 25.950001 7.35 L 28.549999 3.689999 C 28.629999 3.580002 28.790001 3.560001 28.889999 3.650002 L 30.77 5.219999 C 30.879999 5.309999 30.879999 5.469999 30.790001 5.57 Z M 34.259998 10.689999 C 34.389999 10.630001 34.43 10.48 34.360001 10.360001 L 33.130001 8.24 C 33.060001 8.119999 32.900002 8.09 32.790001 8.16 L 29.1 10.709999 L 28.719999 10.060001 C 28.65 9.939999 28.49 9.9 28.379999 9.99 L 24.76 12.57 C 25.26 13.189999 25.67 13.880001 25.99 14.619999 L 34.25 10.700001 Z M 35.560001 14.01 L 35.98 16.42 C 36 16.559999 35.91 16.68 35.77 16.700001 L 26.66 17.549999 C 26.620001 16.73 26.459999 15.950001 26.209999 15.209999 L 30.49 14.029999 C 30.620001 13.99 30.76 14.08 30.780001 14.220001 L 30.91 14.959999 L 35.25 13.83 C 35.380001 13.799999 35.52 13.880001 35.540001 14.02 L 35.540001 14.02 Z M 35.150002 22.860001 C 35.279999 22.889999 35.419998 22.809999 35.439999 22.67 L 35.860001 20.26 C 35.880001 20.120001 35.790001 20 35.650002 19.98 L 31.18 19.559999 L 31.309999 18.82 C 31.33 18.68 31.24 18.559999 31.1 18.540001 L 26.67 18.18 C 26.65 19 26.52 19.790001 26.290001 20.540001 L 35.139999 22.85 L 35.139999 22.85 Z M 32.790001 28.360001 C 32.720001 28.48 32.560001 28.51 32.450001 28.440001 L 24.92 23.24 C 25.4 22.610001 25.790001 21.91 26.08 21.16 L 30.120001 23.01 C 30.25 23.07 30.299999 23.219999 30.23 23.34 L 29.85 23.99 L 33.91 25.91 C 34.029999 25.969999 34.080002 26.120001 34.009998 26.24 L 32.790001 28.360001 L 32.790001 28.360001 Z M 22.719999 25.290001 L 28.01 32.75 C 28.09 32.860001 28.25 32.880001 28.35 32.790001 L 30.219999 31.219999 C 30.33 31.129999 30.33 30.969999 30.24 30.870001 L 27.09 27.68 L 27.67 27.200001 C 27.780001 27.110001 27.780001 26.950001 27.68 26.85 L 24.51 23.73 C 23.98 24.33 23.379999 24.860001 22.709999 25.290001 L 22.709999 25.290001 Z M 22.67 35.450001 C 22.540001 35.5 22.4 35.419998 22.360001 35.290001 L 19.940001 26.469999 C 20.73 26.290001 21.48 26 22.17 25.620001 L 24.08 29.629999 C 24.139999 29.76 24.08 29.91 23.950001 29.950001 L 23.24 30.209999 L 25.110001 34.290001 C 25.17 34.419998 25.110001 34.560001 24.98 34.610001 L 22.68 35.450001 L 22.68 35.450001 Z"/>
</svg>
