<svg viewBox="0 0 249 147" xmlns="http://www.w3.org/2000/svg"><path id="Path" fill="#002c77" stroke="none" d="M 241.867355 31.229752 L 189.295944 0.94487 C 185.593506 -1.187988 179.534958 -1.187988 175.832535 0.94487 L 30.800697 84.493507 L 111.057785 23.004868 L 72.763901 0.944885 C 69.06147 -1.187988 63.00293 -1.187988 59.300491 0.944885 L 6.729082 31.229752 C 3.026644 33.362625 -0.002632 38.603653 2e-06 42.871979 L 2e-06 103.415878 C -0.002632 107.693237 3.026644 112.934273 6.729082 115.067146 L 59.300491 145.35202 C 63.002934 147.484879 69.06147 147.484879 72.763901 145.35202 L 217.795731 61.803383 L 137.538651 123.292015 L 175.832535 145.35202 C 179.534958 147.484879 185.593506 147.484879 189.295944 145.35202 L 241.867355 115.067146 C 245.569794 112.934273 248.59906 107.693237 248.59906 103.420403 L 248.59906 42.876495 C 248.59906 38.603653 245.569794 33.36261 241.867355 31.229752 Z"/></svg>