<svg viewBox="0 0 255 238" xmlns="http://www.w3.org/2000/svg"><path id="Path" fill="#ff0101" stroke="none" d="M 96.899002 111.576996 C 73.524002 98.082001 62.129002 70.570007 69.113998 44.5 C 76.098999 18.429993 99.724998 0.299011 126.716003 0.299011 C 153.707001 0.299011 177.332001 18.428009 184.317993 44.498993 C 191.302994 70.569 179.908005 98.082001 156.533005 111.576996 L 138.578003 80.480011 C 147.877045 75.111191 152.410721 64.165924 149.631622 53.794189 C 146.852524 43.422455 137.453613 36.210419 126.716003 36.210419 C 115.978386 36.210419 106.579475 43.422455 103.800377 53.794189 C 101.021278 64.165924 105.554955 75.111191 114.853996 80.480011 Z"/><path id="path1" fill="#0101ff" stroke="none" d="M 224.600006 126.014999 C 247.975006 139.511002 259.369995 167.022995 252.384995 193.095001 C 245.399994 219.164993 221.774002 237.294006 194.783005 237.294006 C 167.792007 237.294006 144.167007 219.164993 137.182007 193.093994 C 130.195999 167.024002 141.591995 139.511002 164.966995 126.014999 L 182.921005 157.115005 C 173.621948 162.48381 169.088272 173.429062 171.867371 183.800812 C 174.646469 194.172546 184.04538 201.384583 194.783005 201.384583 C 205.520615 201.384583 214.919525 194.172546 217.698624 183.800812 C 220.477722 173.429062 215.944046 162.48381 206.645004 157.115005 Z"/><path id="path2" fill="#01ff01" stroke="none" d="M 119.567001 177.658997 C 119.567001 204.649002 101.438004 228.274994 75.366997 235.261002 C 49.297001 242.246002 21.784 230.850998 8.289 207.475998 C -5.206 184.100998 -1.32 154.576004 17.766001 135.490997 C 36.852001 116.406006 66.375999 112.518997 89.75 126.014008 L 71.794998 157.113998 C 62.495903 151.745163 50.75013 153.291565 43.157494 160.884293 C 35.564861 168.47702 34.018608 180.222809 39.387562 189.521835 C 44.756512 198.820877 55.701904 203.354401 66.073647 200.575104 C 76.445389 197.795792 83.657265 188.396667 83.656998 177.658997 Z"/></svg>