<svg viewBox="0.005 0.148 506.234 414.898" xmlns="http://www.w3.org/2000/svg"><g id="Group"><path id="Path" fill="#d3002d" fill-rule="evenodd" stroke="none" d="M 506.2388 49.009033 C 506.2388 76.007599 484.381256 97.906616 457.415924 97.906616 C 430.450562 97.906616 408.580872 76.007599 408.580872 49.009033 C 408.580872 22.022614 430.450562 0.148041 457.415924 0.148041 C 484.381256 0.148041 506.2388 22.022614 506.2388 49.009033 M 0.004876 207.609024 C 0.017067 93.026611 92.786591 0.172424 207.291733 0.148041 C 321.784698 0.172424 414.542023 93.026611 414.566406 207.609024 C 414.542023 322.167023 321.784698 415.02124 207.291733 415.045624 C 92.786591 415.02124 0.017067 322.167023 0.004876 207.609024 M 107.610214 107.825226 C 82.058968 133.494049 66.345444 168.53241 66.33326 207.609024 C 66.345444 246.649033 82.058968 281.711792 107.610214 307.331818 C 133.222412 332.915222 168.257828 348.641022 207.291733 348.665436 C 246.313446 348.641022 281.324493 332.915222 306.948853 307.331818 C 332.512299 281.711792 348.2258 246.649033 348.2258 207.609024 C 348.2258 168.53241 332.512299 133.494049 306.948853 107.825226 C 281.324493 82.278412 246.313446 66.564819 207.291733 66.540436 C 168.257828 66.564819 133.222412 82.278412 107.610214 107.825226"/></g></svg>