<svg viewBox="0 0 25.576 30.177" xmlns="http://www.w3.org/2000/svg"><path id="Path" fill="#253b80" stroke="none" d="M 7.266 29.153999 L 7.789 25.832001 L 6.624 25.805 L 1.061 25.805 L 4.927 1.292 C 4.939 1.218 4.978 1.149 5.035 1.1 C 5.092 1.051001 5.165 1.024 5.241 1.024 L 14.621 1.024 C 17.735001 1.024 19.884001 1.672001 21.006001 2.951 C 21.532 3.551001 21.867001 4.177999 22.028999 4.868 C 22.198999 5.591999 22.202 6.457001 22.035999 7.512001 L 22.024 7.589001 L 22.024 8.264999 L 22.549999 8.563 C 22.993 8.798 23.344999 9.067001 23.615 9.375 C 24.065001 9.888 24.356001 10.540001 24.479 11.313 C 24.606001 12.108 24.563999 13.054001 24.356001 14.125 C 24.115999 15.357 23.728001 16.43 23.204 17.308001 C 22.722 18.117001 22.108 18.788 21.379 19.308001 C 20.683001 19.802 19.856001 20.177 18.921 20.417 C 18.014999 20.653 16.982 20.771999 15.849 20.771999 L 15.119 20.771999 C 14.597 20.771999 14.09 20.959999 13.692 21.297001 C 13.293 21.641001 13.029 22.111 12.948 22.625 L 12.893 22.924 L 11.969 28.778999 L 11.927 28.993999 C 11.916 29.062 11.897 29.096001 11.869 29.118999 C 11.844 29.139999 11.808 29.153999 11.773 29.153999 L 7.266 29.153999 Z"/><path id="path1" fill="#179bd7" stroke="none" d="M 23.048 7.667 L 23.048 7.667 L 23.048 7.667 C 23.02 7.846001 22.988001 8.028999 22.952 8.216999 C 21.715 14.568001 17.483 16.761999 12.078 16.761999 L 9.326 16.761999 C 8.665 16.761999 8.108 17.242001 8.005 17.893999 L 8.005 17.893999 L 8.005 17.893999 L 6.596 26.83 L 6.197 29.363001 C 6.13 29.791 6.46 30.177 6.892 30.177 L 11.773 30.177 C 12.351 30.177 12.842 29.757 12.933 29.187 L 12.981 28.938999 L 13.9 23.107 L 13.959 22.787001 C 14.049 22.215 14.541 21.795 15.119 21.795 L 15.849 21.795 C 20.577999 21.795 24.280001 19.875 25.362 14.319 C 25.813999 11.998001 25.58 10.060001 24.384001 8.696999 C 24.021999 8.285999 23.573 7.945 23.048 7.667 Z"/><path id="path2" fill="#222d65" stroke="none" d="M 21.754 7.151001 C 21.565001 7.096001 21.370001 7.046 21.17 7.000999 C 20.969 6.957001 20.763 6.917999 20.551001 6.883999 C 19.809 6.764 18.996 6.707001 18.125 6.707001 L 10.773 6.707001 C 10.592 6.707001 10.42 6.748001 10.266 6.822001 C 9.927 6.985001 9.675 7.306 9.614 7.698999 L 8.05 17.605 L 8.005 17.893999 C 8.108 17.242001 8.665 16.761999 9.326 16.761999 L 12.078 16.761999 C 17.483 16.761999 21.715 14.567001 22.952 8.216999 C 22.989 8.028999 23.02 7.846001 23.048 7.667 C 22.735001 7.500999 22.396 7.359001 22.031 7.237999 C 21.941 7.208 21.848 7.179001 21.754 7.151001 Z"/><path id="path3" fill="#253b80" stroke="none" d="M 9.614 7.698999 C 9.675 7.306 9.927 6.985001 10.266 6.823 C 10.421 6.749001 10.592 6.708 10.773 6.708 L 18.125 6.708 C 18.996 6.708 19.809 6.764999 20.551001 6.885 C 20.763 6.919001 20.969 6.958 21.17 7.001999 C 21.370001 7.047001 21.565001 7.097 21.754 7.152 C 21.848 7.18 21.941 7.209 22.032 7.237999 C 22.396999 7.359001 22.736 7.501999 23.049 7.667 C 23.417 5.32 23.046 3.722 21.777 2.275 C 20.378 0.681999 17.853001 0 14.622 0 L 5.242 0 C 4.582 0 4.019 0.48 3.917 1.132999 L 0.01 25.898001 C -0.067 26.388 0.311 26.83 0.805 26.83 L 6.596 26.83 L 8.05 17.605 L 9.614 7.698999 Z"/></svg>