<svg version="1.1" xmlns="http://www.w3.org/2000/svg" viewBox="0 0 230 220"><path d="M0 0 C1.03 0 2.06 0 3.12 0.01 C3.7 0.01 3.7 0.01 6.63 0.01 C7.27 0.01 7.27 0.01 10.46 0.02 C11.11 0.02 11.11 0.02 14.36 0.03 C17.78 0.03 21.21 0.04 24.63 0.05 C28.13 0.06 31.62 0.07 35.11 0.07 C41.97 0.08 48.82 0.1 55.68 0.12 C58.26 5.14 60.84 10.16 63.43 15.18 C63.63 15.57 63.63 15.57 64.64 17.53 C69.37 26.74 74.11 35.96 78.83 45.18 C79.26 46 79.68 46.83 80.11 47.68 C80.96 49.33 81.81 50.99 82.66 52.65 C90.56 68.06 98.49 83.45 106.48 98.81 C107.57 100.9 108.62 103.01 109.68 105.12 C109.69 104.41 109.7 103.7 109.71 102.97 C109.84 93.87 109.98 84.78 110.12 75.68 C110.13 74.96 110.14 74.23 110.15 73.49 C110.52 49.03 111 24.57 111.68 0.12 C116.25 0.04 120.81 -0.01 125.38 -0.04 C126.93 -0.06 128.47 -0.08 130.02 -0.11 C151.12 -0.46 168.85 3.59 185.68 17.12 C186.34 17.63 187.01 18.14 187.69 18.67 C189.07 19.76 190.38 20.93 191.68 22.12 C191.68 22.78 191.68 23.44 191.68 24.12 C192.67 24.45 193.66 24.78 194.68 25.12 C196.25 27.24 197.67 29.32 199.05 31.56 C199.45 32.2 199.85 32.84 200.26 33.5 C201.41 35.36 202.55 37.24 203.68 39.12 C203.94 39.54 203.94 39.54 205.24 41.64 C213.93 57.1 214.76 76.94 210.65 93.81 C206.91 106.5 200.98 117.08 191.92 126.7 C189.4 129.42 187.04 132.25 184.68 135.12 C198.06 162.07 198.06 162.07 203.43 172.12 C208.1 180.91 212.62 189.79 217.1 198.68 C217.94 200.35 218.79 202.01 219.63 203.67 C220.83 206.02 222.01 208.37 223.19 210.72 C223.56 211.43 223.92 212.15 224.3 212.89 C225.16 214.6 225.93 216.36 226.68 218.12 C226.35 218.78 226.02 219.44 225.68 220.12 C206.54 220.12 187.4 220.12 167.68 220.12 C155.89 197.72 155.89 197.72 151.3 188.87 C150.73 187.77 150.17 186.68 149.58 185.55 C145.94 178.52 142.33 171.49 138.72 164.46 C138.51 164.04 138.51 164.04 137.41 161.91 C135.29 157.76 133.17 153.61 131.05 149.46 C125 137.64 118.84 125.89 112.68 114.12 C112.35 149.1 112.02 184.08 111.68 220.12 C78.35 220.12 45.02 220.12 10.68 220.12 C10.64 206.49 10.6 192.85 10.55 178.81 C10.53 174.52 10.52 170.24 10.5 165.82 C10.49 160.54 10.49 160.54 10.49 158.06 C10.48 156.34 10.48 154.63 10.47 152.92 C10.35 131.87 13.88 115.31 26.68 98.12 C27.14 97.49 27.61 96.87 28.09 96.22 C30.17 93.58 32.36 91.59 35.05 89.62 C35.92 88.8 36.79 87.97 37.68 87.12 C37.41 82.82 36.13 79.59 34.12 75.82 C33.57 74.8 33.03 73.77 32.48 72.72 C32.18 72.17 32.18 72.17 30.68 69.37 C29.4 66.95 28.13 64.54 26.86 62.12 C26.52 61.48 26.19 60.84 25.84 60.19 C21.72 52.33 17.76 44.38 13.8 36.43 C13.11 35.04 12.41 33.64 11.72 32.25 C10.71 30.22 9.7 28.2 8.69 26.18 C6.95 22.66 5.19 19.15 3.43 15.65 C3.06 14.92 2.69 14.19 2.31 13.44 C1.61 12.04 0.9 10.64 0.2 9.24 C-1.15 6.56 -2.37 3.98 -3.32 1.12 C-2.32 0.12 -2.32 0.12 0 0 Z " fill="#000000" transform="translate(3.3221588134765625,-0.1202545166015625)"/></svg>