<?xml version="1.0" encoding="UTF-8"?>
<!-- Generated by Pixelmator Pro 3.6.14 -->
<svg width="512" height="549" viewBox="0 0 512 549" xmlns="http://www.w3.org/2000/svg">
    <path id="Path" fill="#000000" stroke="none" d="M 341.065826 25.689331 C 341.065826 11.501526 329.613281 0 315.485901 0 L 25.579937 0 C 11.452528 0 -0 11.501526 -0 25.689331 L -0 145.572906 C -0 159.753448 11.459812 171.262268 25.579937 171.262268 L 315.485901 171.262268 C 329.613281 171.262268 341.065826 182.763733 341.065826 196.951599 L 341.065826 231.204041 C 341.065826 245.391846 329.613281 256.893372 315.485901 256.893372 L 127.899696 256.893372 C 113.77227 256.893372 102.319748 268.394897 102.319748 282.582733 L 102.319748 402.466309 C 102.319748 416.64679 113.779556 428.15564 127.899696 428.15564 L 315.485901 428.15564 C 329.613281 428.15564 341.065826 439.657166 341.065826 453.844971 L 341.065826 522.349854 C 341.065826 536.564636 352.525665 548.039246 366.645782 548.039246 L 486.018799 548.039246 C 500.14621 548.039246 511.598785 536.53772 511.598785 522.349854 L 511.598785 402.466309 C 511.598785 388.278503 500.14621 376.776978 486.018799 376.776978 L 366.645782 376.776978 C 352.518372 376.776978 341.065826 365.275452 341.065826 351.087616 L 341.065826 316.835175 C 341.065826 302.647339 352.518372 291.145844 366.645782 291.145844 L 486.018799 291.145844 C 500.14621 291.145844 511.598785 279.644318 511.598785 265.456482 L 511.598785 145.572906 C 511.598785 131.385101 500.14621 119.883575 486.018799 119.883575 L 366.645782 119.883575 C 352.518372 119.883575 341.065826 108.38208 341.065826 94.194244 Z"/>
</svg>
