<svg version="1.2" xmlns="http://www.w3.org/2000/svg" viewBox="0.5 0.7 1551 1554.2"><title>RTX_BIG-svg</title><g id="Layer"><g id="Layer"><path id="Layer" fill-rule="evenodd" d="m614.8 9.7c17.3-4.5 34.8-6.6 52.4-8.9l81 464.1c-17.6 2.1-35.1 4.5-52.7 8.7zm-253.5 103c17.3-11 37-19.6 54.5-30.6l234.1 409.3c-19.6 8.6-37.2 17.6-54.7 30.7zm105.1 709h-463.8c-2.1-15.2-2.1-30.7-2.1-45.9 0-17.5 0-32.7 2.1-48.2h463.8c-2.4 15.5-4.5 32.8-4.5 50.3 0 15.5 2.1 28.6 4.5 43.8zm607.9-151h470.4c4.4 32.8 6.8 67.9 6.8 102.8 0 30.7-2.4 61.3-4.5 89.9h-253.8l238.3 87.6c-13.1 59-30.4 113.8-56.8 166.3l-271.1-100.7 223.1 188.2c-30.7 45.9-65.6 89.7-105.1 129.1l-249.4-210.1 162.1 284.5c-43.8 32.8-89.7 59.3-137.9 81.1l-177.3-308.7 61.4 350.3c-46.2 10.8-92 19.7-140 23.9l-65.8-378.6-65.6 378.6c-45.8-4.2-89.6-13.1-133.4-23.9l70-405.1-203.4 356.9c-39.4-17.6-74.5-39.3-109.4-63.5l216.6-378.6-330.3 280c-26.3-28.3-52.5-59-74.5-89.6l352.4-302.1-433.1 159.7c-13.4-30.4-26.5-63.5-35.2-98.4l437.6-159.7c26.2 148.7 155.2 262.5 310.6 262.5 174.9 0 314.9-140 314.9-315.2 0-37.2-6.6-72.1-17.6-107.2zm-1038.9-124.8c8.6-26.3 17.6-52.5 28.6-78.7l437.2 159.7c-13.1 24.1-23.8 50.3-30.4 78.9zm1351.7-256.2l-356.5 300c-6.5-8.9-15.2-19.7-24.1-28.6l356.5-299.7c8.9 8.7 17.6 19.7 24.1 28.3zm-433 225.5c-13.2-8.9-26.3-15.4-39.4-22l234.1-404.9c10.8 6.6 23.9 13.2 37.3 22.1zm-439.9 87.6l-356.6-302.1c15.5-20 30.7-39.6 48.3-56.9l358.6 301.8c-19.7 17.6-34.9 35.1-50.3 57.2zm376.4-602.1c15.2 2.1 30.4 6.5 45.9 8.6l-81 464.2c-15.2-4.5-30.7-6.6-45.9-8.7z" fill="#000000"/></g></g></svg>