<svg viewBox="0 0 44 41" xmlns="http://www.w3.org/2000/svg"><path id="path6" fill="#ea1d25" stroke="none" d="M 31.5 18.6 C 31.4 17.1 31 15.6 30.200001 14.299999 L 23.4 2.400002 C 22.9 1.5 22.5 0.5 22.299999 -0.5 L 22 0 C 20.299999 2.900002 20.299999 6.599998 22 9.5 L 27.5 19 C 29.200001 21.9 29.200001 25.6 27.5 28.5 L 27.200001 29 C 27 28 26.6 27 26.1 26.1 L 21.1 17.4 L 17.9 11.799999 C 17.4 10.9 17 9.9 16.799999 8.900002 L 16.5 9.4 C 14.8 12.299999 14.8 15.9 16.5 18.9 L 16.5 18.9 L 22 28.4 C 23.700001 31.300001 23.700001 35 22 37.899998 L 21.700001 38.399998 C 21.5 37.399998 21.1 36.399998 20.6 35.5 L 13.7 23.6 C 12.8 22 12.4 20.200001 12.4 18.4 C 5.1 20.300001 0 24.4 0 29.1 C 0 35.699997 9.8 41 21.9 41 C 34 41 43.799999 35.699997 43.799999 29.1 C 43.900002 24.6 38.900002 20.5 31.5 18.6 Z"/></svg>