<svg version="1.1" xmlns="http://www.w3.org/2000/svg" viewBox="15.464 15.498 289.184 288.909"><path d="M0 0 C0.71 0 1.41 0.01 2.14 0.02 C10.01 0.28 13.59 2.96 18.94 8.31 C22.99 14.22 25.29 20.22 24.12 27.5 C21.86 35.94 17.29 41.19 11.17 47.22 C10.25 48.14 9.34 49.07 8.4 50.02 C5.87 52.57 3.33 55.1 0.79 57.62 C-1.96 60.36 -4.69 63.11 -7.43 65.86 C-12.78 71.24 -18.15 76.6 -23.52 81.96 C-27.89 86.31 -32.25 90.67 -36.61 95.03 C-37.23 95.66 -37.85 96.28 -38.49 96.92 C-39.75 98.18 -41.01 99.45 -42.27 100.71 C-54.1 112.55 -65.94 124.37 -77.78 136.18 C-87.94 146.31 -98.08 156.46 -108.21 166.62 C-119.98 178.42 -131.77 190.22 -143.56 202 C-144.82 203.25 -146.08 204.51 -147.34 205.77 C-147.96 206.39 -148.58 207.01 -149.22 207.64 C-153.57 211.99 -157.92 216.35 -162.27 220.71 C-167.57 226.03 -172.88 231.34 -178.21 236.63 C-180.92 239.33 -183.63 242.03 -186.33 244.75 C-189.25 247.7 -192.2 250.62 -195.16 253.54 C-196 254.4 -196.84 255.26 -197.71 256.14 C-203.83 262.14 -210.15 266.28 -218.88 267 C-226.04 266.54 -232.08 263.84 -236.88 258.5 C-241.08 253.33 -242.26 249.43 -242.31 242.75 C-242.33 242.41 -242.33 242.41 -242.41 240.7 C-242.5 232.77 -238.08 227.59 -232.79 222.04 C-231.15 220.38 -229.5 218.73 -227.85 217.09 C-226.94 216.18 -226.03 215.26 -225.09 214.32 C-222.58 211.79 -220.05 209.28 -217.53 206.76 C-214.8 204.04 -212.09 201.32 -209.37 198.59 C-204.05 193.26 -198.72 187.93 -193.39 182.61 C-189.06 178.28 -184.73 173.95 -180.4 169.62 C-179.78 169 -179.16 168.39 -178.53 167.75 C-177.28 166.5 -176.02 165.24 -174.77 163.99 C-163.04 152.25 -151.29 140.51 -139.54 128.78 C-129.47 118.72 -119.39 108.64 -109.33 98.56 C-97.64 86.85 -85.94 75.15 -74.23 63.45 C-72.98 62.2 -71.73 60.96 -70.49 59.71 C-69.87 59.1 -69.26 58.48 -68.63 57.85 C-64.3 53.53 -59.98 49.2 -55.66 44.87 C-50.39 39.6 -45.12 34.33 -39.84 29.07 C-37.15 26.38 -34.46 23.7 -31.78 21 C-28.87 18.09 -25.95 15.18 -23.03 12.27 C-22.18 11.42 -21.34 10.57 -20.46 9.69 C-14.1 3.39 -9.23 -0.09 0 0 Z " fill="#000000" transform="translate(257.875,15.5)"/><path d="M0 0 C5.55 3.29 10.65 8.02 12.56 14.31 C12.87 17 13.06 19.55 13.12 22.25 C13.15 22.92 13.18 23.59 13.21 24.27 C13.12 35.38 3.48 42.83 -3.83 50.1 C-5 51.27 -6.16 52.43 -7.32 53.6 C-10.47 56.76 -13.62 59.91 -16.78 63.05 C-20.08 66.35 -23.38 69.66 -26.69 72.97 C-32.23 78.52 -37.78 84.06 -43.33 89.59 C-49.74 95.99 -56.14 102.4 -62.54 108.81 C-68.04 114.33 -73.55 119.84 -79.06 125.34 C-82.35 128.62 -85.64 131.91 -88.92 135.2 C-92 138.29 -95.09 141.38 -98.19 144.46 C-99.32 145.59 -100.45 146.72 -101.58 147.85 C-103.13 149.41 -104.68 150.95 -106.23 152.49 C-107.1 153.35 -107.96 154.22 -108.85 155.11 C-114.09 159.58 -118.68 160.8 -125.44 160.69 C-125.78 160.69 -125.78 160.69 -127.52 160.72 C-133.61 160.69 -137.54 158.99 -142.06 155 C-147.15 149.24 -149.52 144.8 -149.81 137.19 C-149.86 136.32 -149.91 135.45 -149.96 134.55 C-148.23 123.85 -140.58 116.73 -133.2 109.42 C-132.05 108.27 -130.9 107.11 -129.76 105.96 C-126.66 102.84 -123.55 99.74 -120.43 96.64 C-117.16 93.38 -113.9 90.11 -110.64 86.84 C-105.17 81.36 -99.69 75.88 -94.19 70.42 C-87.86 64.11 -81.55 57.79 -75.24 51.45 C-69.81 46 -64.37 40.56 -58.92 35.12 C-55.67 31.88 -52.43 28.64 -49.2 25.39 C-46.15 22.33 -43.1 19.29 -40.03 16.25 C-38.91 15.14 -37.8 14.02 -36.69 12.9 C-26.64 2.76 -14.85 -6.82 0 0 Z " fill="#000000" transform="translate(291.4375,143.6875)"/></svg>