<svg viewBox="0 0 800 336" xmlns="http://www.w3.org/2000/svg"><path id="Path" fill="#000000" stroke="none" d="M 798.424988 0.174988 C 798.150024 0.174988 798.024963 0.049988 797.924988 0.049988 C 797.650024 0.049988 797.400024 0.174988 797.125 0.325012 C 292.825012 51.100037 55.849998 270.350006 0 324.300018 L 7.425 336 L 95.550003 336 C 324.574982 105.674988 634.075012 29.225037 797.774963 4.099976 L 797.900024 4.225037 C 798 4.225037 798.125 3.950012 798.275024 3.950012 C 799.200012 3.825012 799.975037 3.049988 799.975037 2.025024 C 799.975037 1.100037 799.299988 0.450012 798.400024 0.200012 Z M 12.625 118.274994 L 7.3 128.299988 L 115.5 207.200012 C 137.375 194.424988 159.774994 182.599976 182.574997 171.399994 L 110.049995 118.274994 Z M 253.125 222.925018 C 235.150009 236.225006 216.925003 250.299988 197.25 266.824982 L 292.324982 335.950012 L 390.899994 335.950012 L 395.075012 326.974976 Z"/></svg>