<svg viewBox="0 0 503 503" xmlns="http://www.w3.org/2000/svg"><path id="Path" fill="#141414" stroke="none" d="M 125.718391 251.435623 C 125.718391 286.151672 97.575447 314.294617 62.859375 314.294617 C 28.143301 314.294617 0.000362 286.151672 0.000362 251.435623 C 0.000362 216.719543 28.143301 188.576599 62.859375 188.576599 C 97.575447 188.576599 125.718391 216.719543 125.718391 251.435623 Z"/><path id="path1" fill="#141414" stroke="none" d="M 314.294647 251.435623 C 314.294647 286.151672 286.151703 314.294617 251.435623 314.294617 C 216.719543 314.294617 188.576599 286.151672 188.576599 251.435623 C 188.576599 216.719543 216.719543 188.576599 251.435623 188.576599 C 286.151703 188.576599 314.294647 216.719543 314.294647 251.435623 Z"/><path id="path2" fill="#141414" stroke="none" opacity="0.2" d="M 125.718391 440.013733 C 125.718391 474.729828 97.575447 502.872772 62.859375 502.872772 C 28.143301 502.872772 0.000362 474.729828 0.000362 440.013733 C 0.000362 405.297668 28.143301 377.154724 62.859375 377.154724 C 97.575447 377.154724 125.718391 405.297668 125.718391 440.013733 Z"/><path id="path3" fill="#141414" stroke="none" opacity="0.2" d="M 502.872772 440.013733 C 502.872772 474.729828 474.729828 502.872772 440.013733 502.872772 C 405.297668 502.872772 377.154724 474.729828 377.154724 440.013733 C 377.154724 405.297668 405.297668 377.154724 440.013733 377.154724 C 474.729828 377.154724 502.872772 405.297668 502.872772 440.013733 Z"/><path id="path4" fill="#141414" stroke="none" d="M 314.294647 440.013733 C 314.294647 474.729828 286.151703 502.872772 251.435623 502.872772 C 216.719543 502.872772 188.576599 474.729828 188.576599 440.013733 C 188.576599 405.297668 216.719543 377.154724 251.435623 377.154724 C 286.151703 377.154724 314.294647 405.297668 314.294647 440.013733 Z"/><path id="path5" fill="#141414" stroke="none" d="M 502.872772 251.435623 C 502.872772 286.151672 474.729828 314.294617 440.013733 314.294617 C 405.297668 314.294617 377.154724 286.151672 377.154724 251.435623 C 377.154724 216.719543 405.297668 188.576599 440.013733 188.576599 C 474.729828 188.576599 502.872772 216.719543 502.872772 251.435623 Z"/><path id="path6" fill="#141414" stroke="none" opacity="0.2" d="M 125.718391 62.859375 C 125.718391 97.575439 97.575447 125.718384 62.859375 125.718384 C 28.143301 125.718384 0.000362 97.575439 0.000362 62.859375 C 0.000362 28.143311 28.143301 0.000366 62.859375 0.000366 C 97.575447 0.000366 125.718391 28.143311 125.718391 62.859375 Z"/><path id="path7" fill="#141414" stroke="none" opacity="0.2" d="M 314.294647 62.859375 C 314.294647 97.575439 286.151703 125.718384 251.435623 125.718384 C 216.719543 125.718384 188.576599 97.575439 188.576599 62.859375 C 188.576599 28.143311 216.719543 0.000366 251.435623 0.000366 C 286.151703 0.000366 314.294647 28.143311 314.294647 62.859375 Z"/><path id="path8" fill="#141414" stroke="none" opacity="0.2" d="M 502.872772 62.859375 C 502.872772 97.575439 474.729828 125.718384 440.013733 125.718384 C 405.297668 125.718384 377.154724 97.575439 377.154724 62.859375 C 377.154724 28.143311 405.297668 0.000366 440.013733 0.000366 C 474.729828 0.000366 502.872772 28.143311 502.872772 62.859375 Z"/></svg>