<svg viewBox="0 -0.21 41.61 37.21" xmlns="http://www.w3.org/2000/svg"><path id="Path" fill="#3dae2b" stroke="none" d="M 0 37 L 41.610001 37 L 41.610001 -0.209999 L 0 -0.209999 L 0 37 Z"/><path id="path1" fill="#ffffff" stroke="none" d="M 27.32 28.950001 L 17.629999 28.950001 L 17.629999 11.49 L 22.5 11.49 L 22.5 25.860001 L 27.18 25.860001 C 30.41 25.860001 31.77 23.619999 31.77 17.85 C 31.77 12.050001 30.23 10.360001 26.950001 10.360001 L 16.26 10.360001 L 16.26 28.939999 L 11.44 28.939999 L 11.44 10.370001 L 4.37 10.370001 L 4.37 7.27 L 28.440001 7.27 C 34.25 7.27 37 10.27 37 17.810001 C 37.009998 27.740002 32.889999 28.950001 27.32 28.950001"/></svg>