<svg version="1.2" xmlns="http://www.w3.org/2000/svg" viewBox="0 0 1545 1539"><title>TTD_BIG</title><path d="m417.7 1116.5v335.2c-247.6-128.6-417.1-386.6-417.1-684.6 0-108.5 22.9-213.3 64.8-306.6h315.1c-66.6 83.8-106.6 191.4-106.6 306.6 0 136.2 54.3 259.9 143.8 349.4z" fill="#0c0c27"/><path d="m1544 767.1c0 426.6-345.6 771.2-771.2 771.2-46.6 0-92.3-4.7-136.1-12.3v-280c42.8 12.4 88.5 18.1 136.1 18.1 275.2 0 498.9-222.8 498.9-498 0-136.1-56.1-260.8-145.6-350.3v-333.3c248.5 127.6 417.9 386.6 417.9 685.5z" fill="#0c0c27"/><path fill-rule="evenodd" d="m340.5 0.6v273.3h296.2v589.4h273.2v-862.7z" fill="#0c0c27"/></svg>