<?xml version="1.0" encoding="UTF-8"?>
<!-- Generated by Pixelmator Pro 3.6.14 -->
<svg width="30" height="30" viewBox="0 0 30 30" xmlns="http://www.w3.org/2000/svg">
    <path id="Path" fill="#f22f46" stroke="none" d="M 14.4 11.299999 C 14.4 13 13 14.4 11.3 14.4 C 9.6 14.4 8.2 13 8.2 11.299999 C 8.2 9.6 9.6 8.200001 11.3 8.200001 C 13 8.200001 14.4 9.6 14.4 11.299999 Z M 11.3 15.6 C 9.6 15.6 8.2 17 8.2 18.700001 C 8.2 20.4 9.6 21.799999 11.3 21.799999 C 13 21.799999 14.4 20.4 14.4 18.700001 C 14.4 17 13 15.6 11.3 15.6 Z M 30 15 C 30 23.299999 23.299999 30 15 30 C 6.7 30 0 23.299999 0 15 C 0 6.700001 6.7 0 15 0 C 23.299999 0 30 6.700001 30 15 Z M 26 15 C 26 8.9 21.1 4 15 4 C 8.9 4 4 8.9 4 15 C 4 21.1 8.9 26 15 26 C 21.1 26 26 21.1 26 15 Z M 18.700001 15.6 C 17 15.6 15.6 17 15.6 18.700001 C 15.6 20.4 17 21.799999 18.700001 21.799999 C 20.4 21.799999 21.799999 20.4 21.799999 18.700001 C 21.799999 17 20.4 15.6 18.700001 15.6 Z M 18.700001 8.200001 C 17 8.200001 15.6 9.6 15.6 11.299999 C 15.6 13 17 14.4 18.700001 14.4 C 20.4 14.4 21.799999 13 21.799999 11.299999 C 21.799999 9.6 20.4 8.200001 18.700001 8.200001 Z"/>
</svg>
