<svg viewBox="0 0.6 822.187 904.799" xmlns="http://www.w3.org/2000/svg"><path id="Path" fill="#000000" stroke="none" d="M 670.731689 262.205383 L 654.996033 275.97406 L 672.698669 333.015747 L 621.557861 305.478394 L 603.855225 319.24707 L 660.896912 350.718323 L 599.921326 399.892181 L 584.185669 378.255737 L 605.822144 360.553101 L 590.086548 340.883545 L 568.450012 358.586182 L 550.747437 334.982666 L 572.383972 317.28009 L 556.648315 295.643616 L 446.49884 388.090515 L 552.714417 472.669556 L 572.383972 449.066071 C 586.152649 449.066071 595.987427 460.867798 601.888306 472.669556 L 582.21875 496.273041 L 594.020447 506.107819 C 619.590881 482.504333 654.996033 466.768707 690.401245 466.768707 C 765.145569 466.768707 822.187256 527.744263 822.187256 602.488586 C 822.187256 626.092041 816.286377 653.629456 802.5177 675.26593 L 822.187256 691.001526 C 822.187256 704.770264 808.418518 720.505859 794.649902 724.439819 L 774.980347 708.704163 C 749.409912 734.274536 714.0047 748.043274 678.599548 748.043274 C 603.855225 748.043274 546.813538 689.034607 546.813538 614.290344 C 546.813538 590.68689 554.681396 565.116455 564.516174 543.47998 L 550.747437 533.645142 L 531.077881 559.215576 C 517.309204 557.248596 505.507477 547.413818 501.573578 533.645142 L 521.243103 512.008667 L 432.730133 437.264374 L 432.730133 555.281677 L 462.234467 555.281677 C 466.168396 561.182495 468.135315 567.083374 468.135315 572.984253 C 468.135315 578.885132 466.168396 586.75293 462.234467 592.653809 L 432.730133 592.653809 L 432.730133 606.422485 C 497.639648 618.224243 552.714417 673.299011 552.714417 740.175415 C 552.714417 809.01886 499.606598 864.093628 432.730133 875.895386 L 432.730133 899.49884 C 426.829285 903.432739 418.961426 905.399658 411.093628 905.399658 C 403.2258 905.399658 393.391022 903.432739 387.490173 899.49884 L 387.490173 875.895386 C 320.613678 866.060608 269.472839 809.01886 269.472839 740.175415 C 269.472839 673.299011 320.613678 618.224243 387.490173 608.389404 L 387.490173 592.653809 L 356.01889 592.653809 C 352.084961 586.75293 350.118011 580.852051 350.118011 572.984253 C 350.118011 565.116455 352.084961 559.215576 356.01889 553.314697 L 387.490173 553.314697 L 387.490173 435.297424 L 297.010223 510.041687 L 316.679779 531.678223 C 312.74585 545.446899 300.944153 555.281677 287.175446 557.248596 L 267.50592 531.678223 L 255.704163 543.47998 C 267.50592 565.116455 275.373718 588.71991 275.373718 614.290344 C 275.373718 689.034607 216.365067 748.043274 143.587723 748.043274 C 108.182533 748.043274 72.777344 734.274536 47.206924 708.704163 L 27.537373 724.439819 C 15.735641 720.505859 1.966955 704.770264 0 691.001526 L 19.669552 675.26593 C 7.867821 653.629456 0 628.05896 0 602.488586 C 0 527.744263 57.041702 466.768707 131.785995 466.768707 C 167.191193 466.768707 202.59639 482.504333 228.166809 506.107819 L 239.968521 498.23996 L 220.298981 474.636505 C 224.23288 462.834778 236.034622 453 249.803299 451.033051 L 269.472839 474.636505 L 375.688446 390.057434 L 265.53894 297.610535 L 249.803299 319.24707 L 271.439819 336.949646 L 255.704163 358.586182 L 234.067657 340.883545 L 218.332031 360.553101 L 236.034622 374.321777 L 220.298981 395.958313 L 161.290314 346.784424 L 216.365067 315.31311 L 200.629425 301.544434 L 149.488586 329.081848 L 165.224228 275.97406 L 149.488586 262.205383 L 129.819031 323.180969 L 68.84343 274.00708 L 84.579079 254.337524 L 106.215584 272.0401 L 123.918175 252.370605 L 102.281662 232.70105 L 118.017311 213.031494 L 139.653809 228.76709 L 155.389465 209.097595 L 108.182533 173.692383 C 112.11644 157.956726 121.951218 146.154968 137.686859 136.320251 L 387.490173 340.883545 L 387.490173 205.163635 L 361.919739 205.163635 L 361.919739 230.73407 L 336.349335 230.73407 L 336.349335 205.163635 L 310.778931 205.163635 L 310.778931 230.73407 L 285.208496 230.73407 L 285.208496 154.022827 L 344.217163 179.593262 L 344.217163 157.956726 L 289.142395 134.353271 L 344.217163 112.716736 L 344.217163 93.04718 L 285.208496 116.650696 L 285.208496 37.972473 L 310.778931 37.972473 L 310.778931 65.509827 L 336.349335 65.509827 L 336.349335 37.972473 L 361.919739 37.972473 L 361.919739 65.509827 L 387.490173 65.509827 L 387.490173 4.534241 C 395.358002 2.567261 403.2258 0.600342 411.093628 0.600342 C 418.961426 0.600342 426.829285 2.567261 432.730133 4.534241 L 432.730133 340.883545 L 682.533447 136.320251 C 696.302124 146.154968 706.136902 157.956726 712.037781 173.692383 L 664.830811 211.064514 L 680.566467 230.73407 L 702.203003 214.998413 L 717.93866 234.667969 L 696.302124 254.337524 L 712.037781 274.00708 L 733.674255 256.304504 L 749.409912 275.97406 L 688.434326 325.147888 L 670.731689 262.205383 Z M 161.290314 631.99292 C 161.290314 653.629456 177.02597 667.398132 196.695511 669.365051 L 165.224228 692.968506 C 143.587723 685.100708 123.918175 659.530273 123.918175 635.926819 C 123.918175 628.05896 125.885132 624.125122 127.852081 618.224243 L 121.951218 618.224243 C 92.446892 618.224243 68.84343 590.68689 62.942566 563.149536 L 96.380806 537.579102 L 96.380806 547.413818 C 96.380806 565.116455 114.083405 580.852051 131.785995 580.852051 C 151.455536 580.852051 169.158157 565.116455 169.158157 545.446899 C 169.158157 521.843445 151.455536 506.107819 127.852081 506.107819 C 84.579079 506.107819 41.306057 549.380798 41.306057 604.455566 C 41.306057 620.191162 45.239967 635.926819 51.140831 649.695557 L 70.810387 633.9599 C 84.579079 639.860718 94.413849 653.629456 98.347755 669.365051 L 78.678207 685.100708 C 98.347755 700.836304 121.951218 708.704163 145.554688 708.704163 C 196.695511 708.704163 236.034622 667.398132 236.034622 631.99292 C 236.034622 610.356445 222.26593 592.653809 200.629425 592.653809 C 177.02597 596.587708 161.290314 612.323364 161.290314 631.99292 Z M 428.796204 710.671082 C 428.796204 730.340637 444.53186 746.076355 464.201416 746.076355 C 477.970093 746.076355 483.870972 740.175415 493.70575 732.307617 L 493.70575 773.613647 C 483.870972 779.514526 474.036194 781.481506 462.234467 781.481506 C 440.597961 781.481506 422.895355 775.580688 411.093628 755.911133 C 399.29187 775.580688 379.622314 781.481506 357.98584 781.481506 C 348.151062 781.481506 336.349335 779.514526 326.514557 773.613647 L 326.514557 732.307617 C 336.349335 742.142456 342.250183 746.076355 356.01889 746.076355 C 375.688446 746.076355 391.424072 730.340637 391.424072 710.671082 C 391.424072 691.001526 379.622314 675.26593 357.98584 675.26593 C 320.613678 675.26593 304.878052 710.671082 304.878052 744.109375 C 304.878052 791.316284 340.283234 832.622314 385.523224 840.490173 L 385.523224 816.886719 C 393.391022 812.952759 401.25885 812.952759 407.159729 812.952759 C 415.027557 812.952759 422.895355 812.952759 430.763184 816.886719 L 430.763184 840.490173 C 474.036194 834.589355 511.408325 789.349304 511.408325 744.109375 C 511.408325 710.671082 497.639648 675.26593 458.300537 675.26593 C 442.564911 673.299011 428.796204 691.001526 428.796204 710.671082 Z M 653.029114 547.413818 C 653.029114 565.116455 672.698669 582.819092 690.401245 582.819092 C 708.103882 582.819092 725.806458 567.083374 725.806458 549.380798 L 725.806458 539.546021 L 757.27771 565.116455 C 751.376892 596.587708 723.839478 622.158142 692.368225 620.191162 C 694.335144 626.092041 694.335144 631.99292 694.335144 637.893799 C 694.335144 661.497192 674.665588 687.067688 653.029114 694.935486 L 623.52478 669.365051 C 643.194336 667.398132 658.929993 653.629456 658.929993 631.99292 C 658.929993 610.356445 641.227356 596.587708 621.557861 596.587708 C 599.921326 596.587708 586.152649 614.290344 586.152649 635.926819 C 586.152649 661.497192 617.623901 712.638062 678.599548 712.638062 C 702.203003 712.638062 725.806458 704.770264 743.509033 689.034607 L 723.839478 673.299011 C 727.773376 657.563354 737.608154 643.794678 751.376892 637.893799 L 771.046448 653.629456 C 778.914185 639.860718 782.848145 624.125122 782.848145 608.389404 C 782.848145 565.116455 749.409912 510.041687 696.302124 510.041687 C 672.698669 510.041687 653.029114 523.810425 653.029114 547.413818 Z"/></svg>