<svg version="1.2" baseProfile="tiny-ps" xmlns="http://www.w3.org/2000/svg" viewBox="0 0 795 1541"><title>UDMY_BIG copy-svg</title><path id="Layer" d="M794.2 458.62L397.04 229.29L0 458.62L0 229.29L397.1 0L794.26 229.29L794.26 458.62L794.2 458.62Z" fill="#a435f0"/><path id="Layer" fill-rule="evenodd" d="M208.01 651.17L208.01 1156.65C208.01 1287.25 305.54 1350.91 397.1 1350.91C489.49 1350.91 586.25 1285.55 586.25 1154.89L586.25 651.17L794.26 651.17L794.26 1168.7C794.26 1288.98 756.45 1381.81 680.83 1445.47C605.11 1509.09 510.6 1540.05 395.37 1540.05C280.2 1540.05 185.62 1509.12 111.76 1445.47C37.81 1381.87 0 1292.48 0 1173.84L0 651.17L208.01 651.17Z" fill="#000000"/></svg>