<?xml version="1.0" encoding="UTF-8"?>
<!-- Generated by Pixelmator Pro 3.6.14 -->
<svg width="1983" height="375" viewBox="0 0 1983 375" xmlns="http://www.w3.org/2000/svg">
    <path id="esumx" fill="#ffffff" fill-rule="evenodd" stroke="none" d="M 1698 367 L 1796.400024 217.600006 L 1696.800049 69.399994 L 1783.199951 69.399994 L 1844.400024 161.200012 L 1900.199951 69.399994 L 1981.800049 69.399994 L 1882.800049 217.600006 L 1983 367 L 1897.199951 367 L 1834.800049 274.600006 L 1779.599976 367 Z M 1187.400024 367 L 1187.400024 69.399994 L 1263.599976 69.399994 L 1263.599976 103.600006 C 1273.600098 89.599945 1286.399902 79.200043 1302 72.399994 C 1317.600098 65.599976 1333.999878 62.200012 1351.199951 62.200012 C 1373.600098 62.200012 1394.499878 66.899963 1413.900024 76.299988 C 1433.300049 85.700043 1448.399902 100.399902 1459.199951 120.399994 C 1469.200073 101.999908 1483.099854 87.700043 1500.900024 77.5 C 1518.700073 67.299957 1538.199951 62.200012 1559.400024 62.200012 C 1582.200073 62.200012 1602.899902 66.899963 1621.5 76.299988 C 1640.100098 85.700043 1654.799927 99.999908 1665.599976 119.200012 C 1676.400024 138.400085 1681.800049 162.399841 1681.800049 191.200012 L 1681.800049 367 L 1605.599976 367 L 1605.599976 202 C 1605.599976 179.599884 1600.200073 161.800079 1589.400024 148.600006 C 1578.599976 135.399933 1562.000122 128.799988 1539.599976 128.799988 C 1517.599854 128.799988 1501 135.399933 1489.800049 148.600006 C 1478.599976 161.800079 1473 179.599884 1473 202 L 1473 367 L 1396.800049 367 L 1396.800049 202 C 1396.800049 179.19989 1391.100098 161.300079 1379.699951 148.299988 C 1368.299927 135.299927 1352.000122 128.799988 1330.800049 128.799988 C 1312.799927 128.799988 1297.100098 134.499939 1283.699951 145.899994 C 1270.299927 157.300049 1263.599976 175.999878 1263.599976 202 L 1263.599976 367 Z M 972.599976 374.200012 C 946.999878 374.200012 925.200073 368.700073 907.200012 357.700012 C 889.19989 346.699951 875.400024 331.500092 865.799988 312.100006 C 856.199951 292.69989 851.400024 270.600128 851.400024 245.799988 L 851.400024 69.399994 L 927.599976 69.399994 L 927.599976 234.399994 C 927.599976 256.400116 933.299927 274.399933 944.700012 288.399994 C 956.100037 302.400085 972.799866 309.399994 994.799988 309.399994 C 1017.600098 309.399994 1034.599854 302.600067 1045.800049 289 C 1057 275.399933 1062.599976 257.200104 1062.599976 234.399994 L 1062.599976 69.399994 L 1139.400024 69.399994 L 1139.400024 367 L 1062.599976 367 L 1062.599976 332.200012 C 1052.599976 345.800049 1039.5 356.199951 1023.299988 363.399994 C 1007.099915 370.600037 990.200073 374.200012 972.599976 374.200012 Z M 699.599976 374.200012 C 677.19989 374.200012 656.200073 370.100037 636.599976 361.899994 C 616.999878 353.699951 600.900024 342.000061 588.299988 326.799988 C 575.699951 311.599915 568.800049 293.80011 567.599976 273.399994 L 644.400024 273.399994 C 646.400024 286.200073 652.699951 296.199951 663.299988 303.399994 C 673.900024 310.600037 685.799927 314.200012 699 314.200012 C 710.200073 314.200012 720.699951 311.700012 730.5 306.700012 C 740.300049 301.699982 745.200012 293.800049 745.200012 283 C 745.200012 274.599945 741.600037 268.000031 734.400024 263.200012 C 727.199951 258.399963 718.800049 254.600006 709.200012 251.799988 C 699.599976 249 690.800049 246.600006 682.799988 244.600006 C 662.799927 239.799988 644.600098 234.100037 628.200012 227.5 C 611.799927 220.899963 598.800049 211.700073 589.200012 199.899994 C 579.599976 188.099945 574.799988 172.400085 574.799988 152.799988 C 574.799988 133.599915 580.299927 117.200073 591.299988 103.600006 C 602.300049 89.999939 616.899902 79.700043 635.099976 72.700012 C 653.300049 65.699951 672.999878 62.200012 694.200012 62.200012 C 727.400146 62.200012 755.399902 70.599915 778.200012 87.399994 C 801.000122 104.200073 813.399963 128.999847 815.400024 161.799988 L 742.799988 161.799988 C 741.599976 148.999939 736.300049 139.300018 726.900024 132.700012 C 717.499939 126.099976 705.800049 122.799988 691.799988 122.799988 C 680.599976 122.799988 670.600037 124.799988 661.799988 128.799988 C 653 132.800018 648.599976 140.399933 648.599976 151.600006 C 648.599976 159.600037 652.199951 166.099976 659.400024 171.100006 C 666.600037 176.100037 675.199951 180.099976 685.200012 183.100006 C 695.200073 186.100006 704 188.599976 711.599976 190.600006 C 732.400146 195.800018 750.699951 201.799957 766.5 208.600006 C 782.300049 215.400024 794.799927 224.599945 804 236.200012 C 813.200073 247.800049 818 263.399902 818.400024 283 C 818.400024 302.600098 812.900085 319.199951 801.900024 332.799988 C 790.899963 346.400085 776.400085 356.699951 758.400024 363.700012 C 740.399902 370.700012 720.80011 374.200012 699.599976 374.200012 Z M 394.200012 374.200012 C 362.999847 374.200012 336.100098 367.400085 313.5 353.799988 C 290.899902 340.199951 273.400055 321.600098 261 298 C 248.599945 274.399872 242.399994 247.80014 242.399994 218.200012 C 242.399994 186.599854 248.799942 159.200104 261.600006 136 C 274.400055 112.799896 292.19989 94.700073 315 81.700012 C 337.80011 68.699921 364.199829 62.200012 394.200012 62.200012 C 423.80014 62.200012 449.69989 68.599945 471.899994 81.399994 C 494.100098 94.200073 511.499939 111.799896 524.099976 134.200012 C 536.700073 156.600098 543 182.399841 543 211.600006 C 543 216.800018 542.799988 221.899963 542.400024 226.899994 C 542 231.900024 541.400024 236.599976 540.599976 241 L 319.799988 241 C 321 255.000061 324.699951 267.299957 330.899994 277.899994 C 337.100037 288.500061 345.499939 296.699982 356.100006 302.5 C 366.700073 308.300049 378.799927 311.200012 392.399994 311.200012 C 406.400085 311.200012 418.499939 308.200012 428.700012 302.200012 C 438.900055 296.199982 446.999969 287.000061 453 274.600006 L 535.200012 274.600006 C 529.599976 292.200073 520.600098 308.599915 508.200012 323.799988 C 495.799927 339.000061 480.100098 351.199951 461.100006 360.399994 C 442.099915 369.600037 419.80011 374.200012 394.200012 374.200012 Z M 320.399994 190 L 463.799988 190 C 463.399994 169.999908 456.100067 154.200073 441.899994 142.600006 C 427.699951 130.999939 411.000092 125.200012 391.799988 125.200012 C 375.399902 125.200012 360.200073 130.299957 346.200012 140.5 C 332.199921 150.700043 323.600006 167.19989 320.399994 190 Z"/>
    <path id="Circle-copy-7" fill="#ffffff" fill-rule="evenodd" stroke="none" d="M 83.316101 41.658051 C 83.316101 18.65094 64.665154 0 41.658051 0 C 18.650944 0 0 18.65094 0 41.658051 C 0 64.665161 18.650944 83.316101 41.658051 83.316101 C 64.665154 83.316101 83.316101 64.665161 83.316101 41.658051 Z"/>
    <g id="Group-copy-8">
        <path id="Rounded-Corner" fill="#ffffff" fill-rule="evenodd" stroke="#ffffff" stroke-width="60" d="M 72 181 C 72 131.294495 112.294495 91 162 91 L 162 108.441711 C 121.927368 108.441711 89.441711 140.927368 89.441711 181 Z"/>
        <path id="Rectangle" fill="#ffffff" fill-rule="evenodd" stroke="none" d="M 42 373 L 119 373 L 119 209 L 42 209 Z"/>
        <path id="Rectangle-copy" fill="#ffffff" fill-rule="evenodd" stroke="none" d="M 191 61 L 191 138 L 230 138 L 230 61 Z"/>
    </g>
</svg>
