<?xml version="1.0" encoding="UTF-8"?>
<!-- Generated by Pixelmator Pro 3.6.14 -->
<svg width="543" height="375" viewBox="0 0 543 375" xmlns="http://www.w3.org/2000/svg">
    <path id="esumx" fill="#ffffff" fill-rule="evenodd" stroke="none" d="M 394.200012 374.200012 C 362.999847 374.200012 336.100098 367.400085 313.5 353.799988 C 290.899902 340.199951 273.400055 321.600098 261 298 C 248.599945 274.399872 242.399994 247.80014 242.399994 218.200012 C 242.399994 186.599854 248.799942 159.200104 261.600006 136 C 274.400055 112.799896 292.19989 94.700073 315 81.700012 C 337.80011 68.699921 364.199829 62.200012 394.200012 62.200012 C 423.80014 62.200012 449.69989 68.599945 471.899994 81.399994 C 494.100098 94.200073 511.499939 111.799896 524.099976 134.200012 C 536.700073 156.600098 543 182.399841 543 211.600006 C 543 216.800018 542.799988 221.899963 542.400024 226.899994 C 542 231.900024 541.400024 236.599976 540.599976 241 L 319.799988 241 C 321 255.000061 324.699951 267.299957 330.899994 277.899994 C 337.100037 288.500061 345.499939 296.699982 356.100006 302.5 C 366.700073 308.300049 378.799927 311.200012 392.399994 311.200012 C 406.400085 311.200012 418.499939 308.200012 428.700012 302.200012 C 438.900055 296.199982 446.999969 287.000061 453 274.600006 L 535.200012 274.600006 C 529.599976 292.200073 520.600098 308.599915 508.200012 323.799988 C 495.799927 339.000061 480.100098 351.199951 461.100006 360.399994 C 442.099915 369.600037 419.80011 374.200012 394.200012 374.200012 Z M 320.399994 190 L 463.799988 190 C 463.399994 169.999908 456.100067 154.200073 441.899994 142.600006 C 427.699951 130.999939 411.000092 125.200012 391.799988 125.200012 C 375.399902 125.200012 360.200073 130.299957 346.200012 140.5 C 332.199921 150.700043 323.600006 167.19989 320.399994 190 Z"/>
    <path id="Circle-copy-7" fill="#ffffff" fill-rule="evenodd" stroke="none" d="M 83.316101 41.658051 C 83.316101 18.65094 64.665154 0 41.658051 0 C 18.650944 0 0 18.65094 0 41.658051 C 0 64.665161 18.650944 83.316101 41.658051 83.316101 C 64.665154 83.316101 83.316101 64.665161 83.316101 41.658051 Z"/>
    <g id="Group-copy-8">
        <path id="Rounded-Corner" fill="#ffffff" fill-rule="evenodd" stroke="#ffffff" stroke-width="60" d="M 72 181 C 72 131.294495 112.294495 91 162 91 L 162 108.441711 C 121.927368 108.441711 89.441711 140.927368 89.441711 181 Z"/>
        <path id="Rectangle" fill="#ffffff" fill-rule="evenodd" stroke="none" d="M 42 373 L 119 373 L 119 209 L 42 209 Z"/>
        <path id="Rectangle-copy" fill="#ffffff" fill-rule="evenodd" stroke="none" d="M 191 61 L 191 138 L 230 138 L 230 61 Z"/>
    </g>
</svg>
